<?xml version="1.0" encoding="UTF-8" standalone="no"?>
<!DOCTYPE svg PUBLIC "-//W3C//DTD SVG 1.1//EN"
 "http://www.w3.org/Graphics/SVG/1.1/DTD/svg11.dtd">
<!-- Generated by graphviz version 2.43.0 (0)
 -->
<!-- Title: dependency&#45;cruiser output Pages: 1 -->
<svg width="697pt" height="586pt"
 viewBox="0.00 0.00 696.50 586.00" xmlns="http://www.w3.org/2000/svg" xmlns:xlink="http://www.w3.org/1999/xlink">
<g id="graph0" class="graph" transform="scale(1 1) rotate(0) translate(4 582)">
<title>dependency&#45;cruiser output</title>
<polygon fill="white" stroke="transparent" points="-4,4 -4,-582 692.5,-582 692.5,4 -4,4"/>
<g id="clust1" class="cluster">
<title>cluster_GUI</title>
<path fill="#ffffff" stroke="black" stroke-width="2" d="M81.5,-488C81.5,-488 458,-488 458,-488 464,-488 470,-494 470,-500 470,-500 470,-558 470,-558 470,-564 464,-570 458,-570 458,-570 81.5,-570 81.5,-570 75.5,-570 69.5,-564 69.5,-558 69.5,-558 69.5,-500 69.5,-500 69.5,-494 75.5,-488 81.5,-488"/>
<text text-anchor="middle" x="269.75" y="-558.8" font-family="Helvetica,sans-Serif" font-weight="bold" font-size="9.00">GUI</text>
</g>
<g id="clust2" class="cluster">
<title>cluster_scene</title>
<path fill="#ffffff" stroke="black" stroke-width="2" d="M77.5,-192C77.5,-192 473.5,-192 473.5,-192 479.5,-192 485.5,-198 485.5,-204 485.5,-204 485.5,-442 485.5,-442 485.5,-448 479.5,-454 473.5,-454 473.5,-454 77.5,-454 77.5,-454 71.5,-454 65.5,-448 65.5,-442 65.5,-442 65.5,-204 65.5,-204 65.5,-198 71.5,-192 77.5,-192"/>
<text text-anchor="middle" x="275.5" y="-442.8" font-family="Helvetica,sans-Serif" font-weight="bold" font-size="9.00">scene</text>
</g>
<g id="clust3" class="cluster">
<title>cluster_scene/sceneComponents</title>
<path fill="#ffffff" stroke="black" stroke-width="2" d="M227,-286C227,-286 465.5,-286 465.5,-286 471.5,-286 477.5,-292 477.5,-298 477.5,-298 477.5,-416 477.5,-416 477.5,-422 471.5,-428 465.5,-428 465.5,-428 227,-428 227,-428 221,-428 215,-422 215,-416 215,-416 215,-298 215,-298 215,-292 221,-286 227,-286"/>
<text text-anchor="middle" x="346.25" y="-416.8" font-family="Helvetica,sans-Serif" font-weight="bold" font-size="9.00">sceneComponents</text>
</g>
<g id="clust4" class="cluster">
<title>cluster_scene/sceneComponents/stageComponetns</title>
<path fill="#ffffff" stroke="black" stroke-width="2" d="M371.5,-294C371.5,-294 457.5,-294 457.5,-294 463.5,-294 469.5,-300 469.5,-306 469.5,-306 469.5,-364 469.5,-364 469.5,-370 463.5,-376 457.5,-376 457.5,-376 371.5,-376 371.5,-376 365.5,-376 359.5,-370 359.5,-364 359.5,-364 359.5,-306 359.5,-306 359.5,-300 365.5,-294 371.5,-294"/>
<text text-anchor="middle" x="414.5" y="-364.8" font-family="Helvetica,sans-Serif" font-weight="bold" font-size="9.00">stageComponetns</text>
</g>
<g id="clust5" class="cluster">
<title>cluster_simulation</title>
<path fill="#ffffff" stroke="black" stroke-width="2" d="M74,-68C74,-68 668.5,-68 668.5,-68 674.5,-68 680.5,-74 680.5,-80 680.5,-80 680.5,-172 680.5,-172 680.5,-178 674.5,-184 668.5,-184 668.5,-184 74,-184 74,-184 68,-184 62,-178 62,-172 62,-172 62,-80 62,-80 62,-74 68,-68 74,-68"/>
<text text-anchor="middle" x="371.25" y="-172.8" font-family="Helvetica,sans-Serif" font-weight="bold" font-size="9.00">simulation</text>
</g>
<g id="clust6" class="cluster">
<title>cluster_simulation/signallingNetwork</title>
<path fill="#ffffff" stroke="black" stroke-width="2" d="M213,-76C213,-76 660.5,-76 660.5,-76 666.5,-76 672.5,-82 672.5,-88 672.5,-88 672.5,-146 672.5,-146 672.5,-152 666.5,-158 660.5,-158 660.5,-158 213,-158 213,-158 207,-158 201,-152 201,-146 201,-146 201,-88 201,-88 201,-82 207,-76 213,-76"/>
<text text-anchor="middle" x="436.75" y="-146.8" font-family="Helvetica,sans-Serif" font-weight="bold" font-size="9.00">signallingNetwork</text>
</g>
<g id="clust7" class="cluster">
<title>cluster_state</title>
<path fill="#ffffff" stroke="black" stroke-width="2" d="M86,-8C86,-8 165,-8 165,-8 171,-8 177,-14 177,-20 177,-20 177,-48 177,-48 177,-54 171,-60 165,-60 165,-60 86,-60 86,-60 80,-60 74,-54 74,-48 74,-48 74,-20 74,-20 74,-14 80,-8 86,-8"/>
<text text-anchor="middle" x="125.5" y="-48.8" font-family="Helvetica,sans-Serif" font-weight="bold" font-size="9.00">state</text>
</g>
<!-- GUI/controlManager.js -->
<g id="node1" class="node">
<title>GUI/controlManager.js</title>
<g id="a_node1"><a xlink:href="GUI/controlManager.js" xlink:title="controlManager.js">
<path fill="#ffffcc" stroke="black" d="M167.5,-514C167.5,-514 83.5,-514 83.5,-514 80.5,-514 77.5,-511 77.5,-508 77.5,-508 77.5,-502 77.5,-502 77.5,-499 80.5,-496 83.5,-496 83.5,-496 167.5,-496 167.5,-496 170.5,-496 173.5,-499 173.5,-502 173.5,-502 173.5,-508 173.5,-508 173.5,-511 170.5,-514 167.5,-514"/>
<text text-anchor="start" x="85.5" y="-502.8" font-family="Helvetica,sans-Serif" font-size="9.00">controlManager.js</text>
</a>
</g>
</g>
<!-- GUI/sessionTab.js -->
<g id="node2" class="node">
<title>GUI/sessionTab.js</title>
<g id="a_node2"><a xlink:href="GUI/sessionTab.js" xlink:title="sessionTab.js">
<path fill="#ffffcc" stroke="black" d="M293.5,-514C293.5,-514 231.5,-514 231.5,-514 228.5,-514 225.5,-511 225.5,-508 225.5,-508 225.5,-502 225.5,-502 225.5,-499 228.5,-496 231.5,-496 231.5,-496 293.5,-496 293.5,-496 296.5,-496 299.5,-499 299.5,-502 299.5,-502 299.5,-508 299.5,-508 299.5,-511 296.5,-514 293.5,-514"/>
<text text-anchor="start" x="233.5" y="-502.8" font-family="Helvetica,sans-Serif" font-size="9.00">sessionTab.js</text>
</a>
</g>
</g>
<!-- GUI/controlManager.js&#45;&gt;GUI/sessionTab.js -->
<g id="edge1" class="edge">
<title>GUI/controlManager.js&#45;&gt;GUI/sessionTab.js</title>
<path fill="none" stroke="#000000" stroke-width="2" stroke-opacity="0.200000" d="M173.72,-505C188.49,-505 204.68,-505 219.1,-505"/>
<polygon fill="#000000" fill-opacity="0.200000" stroke="#000000" stroke-width="2" stroke-opacity="0.200000" points="219.16,-507.1 225.16,-505 219.16,-502.9 219.16,-507.1"/>
</g>
<!-- GUI/signallingTab.js -->
<g id="node3" class="node">
<title>GUI/signallingTab.js</title>
<g id="a_node3"><a xlink:href="GUI/signallingTab.js" xlink:title="signallingTab.js">
<path fill="#ffffcc" stroke="black" d="M298.5,-544C298.5,-544 226.5,-544 226.5,-544 223.5,-544 220.5,-541 220.5,-538 220.5,-538 220.5,-532 220.5,-532 220.5,-529 223.5,-526 226.5,-526 226.5,-526 298.5,-526 298.5,-526 301.5,-526 304.5,-529 304.5,-532 304.5,-532 304.5,-538 304.5,-538 304.5,-541 301.5,-544 298.5,-544"/>
<text text-anchor="start" x="228.5" y="-532.8" font-family="Helvetica,sans-Serif" font-size="9.00">signallingTab.js</text>
</a>
</g>
</g>
<!-- GUI/controlManager.js&#45;&gt;GUI/signallingTab.js -->
<g id="edge2" class="edge">
<title>GUI/controlManager.js&#45;&gt;GUI/signallingTab.js</title>
<path fill="none" stroke="#000000" stroke-width="2" stroke-opacity="0.200000" d="M167,-514C181.95,-517.32 199.01,-521.11 214.49,-524.55"/>
<polygon fill="#000000" fill-opacity="0.200000" stroke="#000000" stroke-width="2" stroke-opacity="0.200000" points="214.24,-526.65 220.56,-525.9 215.16,-522.55 214.24,-526.65"/>
</g>
<!-- GUI/dataProcessor.js -->
<g id="node4" class="node">
<title>GUI/dataProcessor.js</title>
<g id="a_node4"><a xlink:href="GUI/dataProcessor.js" xlink:title="dataProcessor.js">
<path fill="#ffffcc" stroke="black" d="M452.5,-514C452.5,-514 375.5,-514 375.5,-514 372.5,-514 369.5,-511 369.5,-508 369.5,-508 369.5,-502 369.5,-502 369.5,-499 372.5,-496 375.5,-496 375.5,-496 452.5,-496 452.5,-496 455.5,-496 458.5,-499 458.5,-502 458.5,-502 458.5,-508 458.5,-508 458.5,-511 455.5,-514 452.5,-514"/>
<text text-anchor="start" x="377.5" y="-502.8" font-family="Helvetica,sans-Serif" font-size="9.00">dataProcessor.js</text>
</a>
</g>
</g>
<!-- GUI/sessionTab.js&#45;&gt;GUI/dataProcessor.js -->
<g id="edge3" class="edge">
<title>GUI/sessionTab.js&#45;&gt;GUI/dataProcessor.js</title>
<path fill="none" stroke="#000000" stroke-width="2" stroke-opacity="0.200000" d="M299.69,-505C318.8,-505 342.55,-505 363.35,-505"/>
<polygon fill="#000000" fill-opacity="0.200000" stroke="#000000" stroke-width="2" stroke-opacity="0.200000" points="363.42,-507.1 369.42,-505 363.42,-502.9 363.42,-507.1"/>
</g>
<!-- GUI/visualizationTab.js -->
<g id="node5" class="node">
<title>GUI/visualizationTab.js</title>
<g id="a_node5"><a xlink:href="GUI/visualizationTab.js" xlink:title="visualizationTab.js">
<path fill="#ffffcc" stroke="black" d="M456,-544C456,-544 372,-544 372,-544 369,-544 366,-541 366,-538 366,-538 366,-532 366,-532 366,-529 369,-526 372,-526 372,-526 456,-526 456,-526 459,-526 462,-529 462,-532 462,-532 462,-538 462,-538 462,-541 459,-544 456,-544"/>
<text text-anchor="start" x="374" y="-532.8" font-family="Helvetica,sans-Serif" font-size="9.00">visualizationTab.js</text>
</a>
</g>
</g>
<!-- GUI/signallingTab.js&#45;&gt;GUI/visualizationTab.js -->
<g id="edge4" class="edge">
<title>GUI/signallingTab.js&#45;&gt;GUI/visualizationTab.js</title>
<path fill="none" stroke="#000000" stroke-width="2" stroke-opacity="0.200000" d="M304.75,-535C321.75,-535 341.67,-535 359.76,-535"/>
<polygon fill="#000000" fill-opacity="0.200000" stroke="#000000" stroke-width="2" stroke-opacity="0.200000" points="359.82,-537.1 365.82,-535 359.82,-532.9 359.82,-537.1"/>
</g>
<!-- config.js -->
<g id="node6" class="node">
<title>config.js</title>
<g id="a_node6"><a xlink:href="config.js" xlink:title="config.js">
<path fill="#ffffcc" stroke="black" d="M147,-480C147,-480 104,-480 104,-480 101,-480 98,-477 98,-474 98,-474 98,-468 98,-468 98,-465 101,-462 104,-462 104,-462 147,-462 147,-462 150,-462 153,-465 153,-468 153,-468 153,-474 153,-474 153,-477 150,-480 147,-480"/>
<text text-anchor="middle" x="125.5" y="-468.8" font-family="Helvetica,sans-Serif" font-size="9.00">config.js</text>
</a>
</g>
</g>
<!-- main.js -->
<g id="node7" class="node">
<title>main.js</title>
<g id="a_node7"><a xlink:href="main.js" xlink:title="main.js">
<path fill="#ffffcc" stroke="black" d="M48,-297C48,-297 6,-297 6,-297 3,-297 0,-294 0,-291 0,-291 0,-285 0,-285 0,-282 3,-279 6,-279 6,-279 48,-279 48,-279 51,-279 54,-282 54,-285 54,-285 54,-291 54,-291 54,-294 51,-297 48,-297"/>
<text text-anchor="middle" x="27" y="-285.8" font-family="Helvetica,sans-Serif" font-size="9.00">main.js</text>
</a>
</g>
</g>
<!-- main.js&#45;&gt;GUI/controlManager.js -->
<g id="edge6" class="edge">
<title>main.js&#45;&gt;GUI/controlManager.js</title>
<path fill="none" stroke="#000000" stroke-width="2" stroke-opacity="0.200000" d="M28.34,-297.42C29.81,-332.82 36.73,-457.36 62,-486 64.82,-489.2 68.17,-491.87 71.82,-494.1"/>
<polygon fill="#000000" fill-opacity="0.200000" stroke="#000000" stroke-width="2" stroke-opacity="0.200000" points="71.07,-496.08 77.36,-497.05 73.05,-492.37 71.07,-496.08"/>
</g>
<!-- main.js&#45;&gt;config.js -->
<g id="edge5" class="edge">
<title>main.js&#45;&gt;config.js</title>
<path fill="none" stroke="#000000" stroke-width="2" stroke-opacity="0.200000" d="M28.58,-297.4C30.73,-329.47 39.4,-433.9 62,-457 69.81,-464.98 81.11,-468.85 91.95,-470.62"/>
<polygon fill="#000000" fill-opacity="0.200000" stroke="#000000" stroke-width="2" stroke-opacity="0.200000" points="91.69,-472.7 97.91,-471.39 92.23,-468.53 91.69,-472.7"/>
</g>
<!-- scene/graphicsManager.js -->
<g id="node8" class="node">
<title>scene/graphicsManager.js</title>
<g id="a_node8"><a xlink:href="scene/graphicsManager.js" xlink:title="graphicsManager.js">
<path fill="#ffffcc" stroke="black" d="M171.5,-297C171.5,-297 79.5,-297 79.5,-297 76.5,-297 73.5,-294 73.5,-291 73.5,-291 73.5,-285 73.5,-285 73.5,-282 76.5,-279 79.5,-279 79.5,-279 171.5,-279 171.5,-279 174.5,-279 177.5,-282 177.5,-285 177.5,-285 177.5,-291 177.5,-291 177.5,-294 174.5,-297 171.5,-297"/>
<text text-anchor="start" x="81.5" y="-285.8" font-family="Helvetica,sans-Serif" font-size="9.00">graphicsManager.js</text>
</a>
</g>
</g>
<!-- main.js&#45;&gt;scene/graphicsManager.js -->
<g id="edge7" class="edge">
<title>main.js&#45;&gt;scene/graphicsManager.js</title>
<path fill="none" stroke="#000000" stroke-width="2" stroke-opacity="0.200000" d="M54.11,-288C58.26,-288 62.68,-288 67.21,-288"/>
<polygon fill="#000000" fill-opacity="0.200000" stroke="#000000" stroke-width="2" stroke-opacity="0.200000" points="67.45,-290.1 73.45,-288 67.45,-285.9 67.45,-290.1"/>
</g>
<!-- simulation/simulationManager.js -->
<g id="node9" class="node">
<title>simulation/simulationManager.js</title>
<g id="a_node9"><a xlink:href="simulation/simulationManager.js" xlink:title="simulationManager.js">
<path fill="#ffffcc" stroke="black" d="M175,-145C175,-145 76,-145 76,-145 73,-145 70,-142 70,-139 70,-139 70,-133 70,-133 70,-130 73,-127 76,-127 76,-127 175,-127 175,-127 178,-127 181,-130 181,-133 181,-133 181,-139 181,-139 181,-142 178,-145 175,-145"/>
<text text-anchor="start" x="78" y="-133.8" font-family="Helvetica,sans-Serif" font-size="9.00">simulationManager.js</text>
</a>
</g>
</g>
<!-- main.js&#45;&gt;simulation/simulationManager.js -->
<g id="edge8" class="edge">
<title>main.js&#45;&gt;simulation/simulationManager.js</title>
<path fill="none" stroke="#000000" stroke-width="2" stroke-opacity="0.200000" d="M29.47,-278.8C32.75,-260.39 42.02,-218.26 62,-189 73.26,-172.51 90.96,-158.17 104.66,-148.58"/>
<polygon fill="#000000" fill-opacity="0.200000" stroke="#000000" stroke-width="2" stroke-opacity="0.200000" points="106.1,-150.13 109.87,-145.02 103.74,-146.66 106.1,-150.13"/>
</g>
<!-- state/stateManager.js -->
<g id="node10" class="node">
<title>state/stateManager.js</title>
<g id="a_node10"><a xlink:href="state/stateManager.js" xlink:title="stateManager.js">
<path fill="#ffffcc" stroke="black" d="M163,-34C163,-34 88,-34 88,-34 85,-34 82,-31 82,-28 82,-28 82,-22 82,-22 82,-19 85,-16 88,-16 88,-16 163,-16 163,-16 166,-16 169,-19 169,-22 169,-22 169,-28 169,-28 169,-31 166,-34 163,-34"/>
<text text-anchor="start" x="90" y="-22.8" font-family="Helvetica,sans-Serif" font-size="9.00">stateManager.js</text>
</a>
</g>
</g>
<!-- main.js&#45;&gt;state/stateManager.js -->
<g id="edge9" class="edge">
<title>main.js&#45;&gt;state/stateManager.js</title>
<path fill="none" stroke="#000000" stroke-width="2" stroke-opacity="0.200000" d="M28.4,-278.92C30.18,-241.75 38.36,-101.37 62,-65 70.04,-52.64 83.38,-43.33 95.68,-36.82"/>
<polygon fill="#000000" fill-opacity="0.200000" stroke="#000000" stroke-width="2" stroke-opacity="0.200000" points="96.82,-38.6 101.24,-34.03 94.93,-34.85 96.82,-38.6"/>
</g>
<!-- scene/graphycLibrariesImports.js -->
<g id="node11" class="node">
<title>scene/graphycLibrariesImports.js</title>
<g id="a_node11"><a xlink:href="scene/graphycLibrariesImports.js" xlink:title="graphycLibrariesImports.js">
<path fill="#ffffcc" stroke="black" d="M325,-218C325,-218 200,-218 200,-218 197,-218 194,-215 194,-212 194,-212 194,-206 194,-206 194,-203 197,-200 200,-200 200,-200 325,-200 325,-200 328,-200 331,-203 331,-206 331,-206 331,-212 331,-212 331,-215 328,-218 325,-218"/>
<text text-anchor="start" x="202" y="-206.8" font-family="Helvetica,sans-Serif" font-size="9.00">graphycLibrariesImports.js</text>
</a>
</g>
</g>
<!-- scene/graphicsManager.js&#45;&gt;scene/graphycLibrariesImports.js -->
<g id="edge10" class="edge">
<title>scene/graphicsManager.js&#45;&gt;scene/graphycLibrariesImports.js</title>
<path fill="none" stroke="#000000" stroke-width="2" stroke-opacity="0.200000" d="M133.29,-278.97C144.37,-264.91 167.76,-237.95 194,-224 196.58,-222.63 199.28,-221.38 202.05,-220.25"/>
<polygon fill="#000000" fill-opacity="0.200000" stroke="#000000" stroke-width="2" stroke-opacity="0.200000" points="202.96,-222.15 207.84,-218.08 201.48,-218.22 202.96,-222.15"/>
</g>
<!-- scene/overlay.js -->
<g id="node12" class="node">
<title>scene/overlay.js</title>
<g id="a_node12"><a xlink:href="scene/overlay.js" xlink:title="overlay.js">
<path fill="#ffffcc" stroke="black" d="M285,-248C285,-248 240,-248 240,-248 237,-248 234,-245 234,-242 234,-242 234,-236 234,-236 234,-233 237,-230 240,-230 240,-230 285,-230 285,-230 288,-230 291,-233 291,-236 291,-236 291,-242 291,-242 291,-245 288,-248 285,-248"/>
<text text-anchor="start" x="242" y="-236.8" font-family="Helvetica,sans-Serif" font-size="9.00">overlay.js</text>
</a>
</g>
</g>
<!-- scene/graphicsManager.js&#45;&gt;scene/overlay.js -->
<g id="edge11" class="edge">
<title>scene/graphicsManager.js&#45;&gt;scene/overlay.js</title>
<path fill="none" stroke="#000000" stroke-width="2" stroke-opacity="0.200000" d="M141.83,-278.89C155.21,-271.29 175.34,-260.66 194,-254 204.78,-250.15 216.89,-247.09 227.85,-244.76"/>
<polygon fill="#000000" fill-opacity="0.200000" stroke="#000000" stroke-width="2" stroke-opacity="0.200000" points="228.35,-246.81 233.8,-243.55 227.51,-242.69 228.35,-246.81"/>
</g>
<!-- scene/plot.js -->
<g id="node13" class="node">
<title>scene/plot.js</title>
<g id="a_node13"><a xlink:href="scene/plot.js" xlink:title="plot.js">
<path fill="#ffffcc" stroke="black" d="M283.5,-278C283.5,-278 241.5,-278 241.5,-278 238.5,-278 235.5,-275 235.5,-272 235.5,-272 235.5,-266 235.5,-266 235.5,-263 238.5,-260 241.5,-260 241.5,-260 283.5,-260 283.5,-260 286.5,-260 289.5,-263 289.5,-266 289.5,-266 289.5,-272 289.5,-272 289.5,-275 286.5,-278 283.5,-278"/>
<text text-anchor="start" x="248.5" y="-266.8" font-family="Helvetica,sans-Serif" font-size="9.00">plot.js</text>
</a>
</g>
</g>
<!-- scene/graphicsManager.js&#45;&gt;scene/plot.js -->
<g id="edge12" class="edge">
<title>scene/graphicsManager.js&#45;&gt;scene/plot.js</title>
<path fill="none" stroke="#000000" stroke-width="2" stroke-opacity="0.200000" d="M177.54,-280.82C194.94,-278.37 213.9,-275.7 229.39,-273.52"/>
<polygon fill="#000000" fill-opacity="0.200000" stroke="#000000" stroke-width="2" stroke-opacity="0.200000" points="229.71,-275.59 235.36,-272.68 229.13,-271.44 229.71,-275.59"/>
</g>
<!-- scene/sceneComponents/capsulePool.js -->
<g id="node14" class="node">
<title>scene/sceneComponents/capsulePool.js</title>
<g id="a_node14"><a xlink:href="scene/sceneComponents/capsulePool.js" xlink:title="capsulePool.js">
<path fill="#ffffcc" stroke="black" d="M296,-389C296,-389 229,-389 229,-389 226,-389 223,-386 223,-383 223,-383 223,-377 223,-377 223,-374 226,-371 229,-371 229,-371 296,-371 296,-371 299,-371 302,-374 302,-377 302,-377 302,-383 302,-383 302,-386 299,-389 296,-389"/>
<text text-anchor="start" x="231" y="-377.8" font-family="Helvetica,sans-Serif" font-size="9.00">capsulePool.js</text>
</a>
</g>
</g>
<!-- scene/graphicsManager.js&#45;&gt;scene/sceneComponents/capsulePool.js -->
<g id="edge13" class="edge">
<title>scene/graphicsManager.js&#45;&gt;scene/sceneComponents/capsulePool.js</title>
<path fill="none" stroke="#000000" stroke-width="2" stroke-opacity="0.200000" d="M134.37,-297.39C146.15,-310.96 169.62,-336.17 194,-352 204.33,-358.71 216.53,-364.36 227.7,-368.78"/>
<polygon fill="#000000" fill-opacity="0.200000" stroke="#000000" stroke-width="2" stroke-opacity="0.200000" points="227.08,-370.79 233.43,-370.98 228.58,-366.87 227.08,-370.79"/>
</g>
<!-- scene/sceneComponents/mesh.js -->
<g id="node15" class="node">
<title>scene/sceneComponents/mesh.js</title>
<g id="a_node15"><a xlink:href="scene/sceneComponents/mesh.js" xlink:title="mesh.js">
<path fill="#ffffcc" stroke="black" d="M283.5,-346C283.5,-346 241.5,-346 241.5,-346 238.5,-346 235.5,-343 235.5,-340 235.5,-340 235.5,-334 235.5,-334 235.5,-331 238.5,-328 241.5,-328 241.5,-328 283.5,-328 283.5,-328 286.5,-328 289.5,-331 289.5,-334 289.5,-334 289.5,-340 289.5,-340 289.5,-343 286.5,-346 283.5,-346"/>
<text text-anchor="start" x="245" y="-334.8" font-family="Helvetica,sans-Serif" font-size="9.00">mesh.js</text>
</a>
</g>
</g>
<!-- scene/graphicsManager.js&#45;&gt;scene/sceneComponents/mesh.js -->
<g id="edge14" class="edge">
<title>scene/graphicsManager.js&#45;&gt;scene/sceneComponents/mesh.js</title>
<path fill="none" stroke="#000000" stroke-width="2" stroke-opacity="0.200000" d="M141.83,-297.11C155.21,-304.71 175.34,-315.34 194,-322 205.26,-326.02 217.97,-329.18 229.3,-331.54"/>
<polygon fill="#000000" fill-opacity="0.200000" stroke="#000000" stroke-width="2" stroke-opacity="0.200000" points="229.14,-333.65 235.43,-332.77 229.96,-329.53 229.14,-333.65"/>
</g>
<!-- scene/sceneComponents/stage.js -->
<g id="node16" class="node">
<title>scene/sceneComponents/stage.js</title>
<g id="a_node16"><a xlink:href="scene/sceneComponents/stage.js" xlink:title="stage.js">
<path fill="#ffffcc" stroke="black" d="M283.5,-316C283.5,-316 241.5,-316 241.5,-316 238.5,-316 235.5,-313 235.5,-310 235.5,-310 235.5,-304 235.5,-304 235.5,-301 238.5,-298 241.5,-298 241.5,-298 283.5,-298 283.5,-298 286.5,-298 289.5,-301 289.5,-304 289.5,-304 289.5,-310 289.5,-310 289.5,-313 286.5,-316 283.5,-316"/>
<text text-anchor="start" x="245" y="-304.8" font-family="Helvetica,sans-Serif" font-size="9.00">stage.js</text>
</a>
</g>
</g>
<!-- scene/graphicsManager.js&#45;&gt;scene/sceneComponents/stage.js -->
<g id="edge15" class="edge">
<title>scene/graphicsManager.js&#45;&gt;scene/sceneComponents/stage.js</title>
<path fill="none" stroke="#000000" stroke-width="2" stroke-opacity="0.200000" d="M177.54,-295.18C194.94,-297.63 213.9,-300.3 229.39,-302.48"/>
<polygon fill="#000000" fill-opacity="0.200000" stroke="#000000" stroke-width="2" stroke-opacity="0.200000" points="229.13,-304.56 235.36,-303.32 229.71,-300.41 229.13,-304.56"/>
</g>
<!-- simulation/signallingNetwork/signallingNetwork.js -->
<g id="node27" class="node">
<title>simulation/signallingNetwork/signallingNetwork.js</title>
<g id="a_node27"><a xlink:href="simulation/signallingNetwork/signallingNetwork.js" xlink:title="signallingNetwork.js">
<path fill="#ffffcc" stroke="black" d="M310,-132C310,-132 215,-132 215,-132 212,-132 209,-129 209,-126 209,-126 209,-120 209,-120 209,-117 212,-114 215,-114 215,-114 310,-114 310,-114 313,-114 316,-117 316,-120 316,-120 316,-126 316,-126 316,-129 313,-132 310,-132"/>
<text text-anchor="start" x="217" y="-120.8" font-family="Helvetica,sans-Serif" font-size="9.00">signallingNetwork.js</text>
</a>
</g>
</g>
<!-- simulation/simulationManager.js&#45;&gt;simulation/signallingNetwork/signallingNetwork.js -->
<g id="edge26" class="edge">
<title>simulation/simulationManager.js&#45;&gt;simulation/signallingNetwork/signallingNetwork.js</title>
<path fill="none" stroke="#000000" stroke-width="2" stroke-opacity="0.200000" d="M181.02,-130.75C188.22,-130.06 195.63,-129.34 202.9,-128.64"/>
<polygon fill="#000000" fill-opacity="0.200000" stroke="#000000" stroke-width="2" stroke-opacity="0.200000" points="203.19,-130.72 208.97,-128.06 202.79,-126.54 203.19,-130.72"/>
</g>
<!-- scene/plotOptions.js -->
<g id="node17" class="node">
<title>scene/plotOptions.js</title>
<g id="a_node17"><a xlink:href="scene/plotOptions.js" xlink:title="plotOptions.js">
<path fill="#ffffcc" stroke="black" d="M447,-278C447,-278 381,-278 381,-278 378,-278 375,-275 375,-272 375,-272 375,-266 375,-266 375,-263 378,-260 381,-260 381,-260 447,-260 447,-260 450,-260 453,-263 453,-266 453,-266 453,-272 453,-272 453,-275 450,-278 447,-278"/>
<text text-anchor="start" x="383" y="-266.8" font-family="Helvetica,sans-Serif" font-size="9.00">plotOptions.js</text>
</a>
</g>
</g>
<!-- scene/plot.js&#45;&gt;scene/plotOptions.js -->
<g id="edge16" class="edge">
<title>scene/plot.js&#45;&gt;scene/plotOptions.js</title>
<path fill="none" stroke="#000000" stroke-width="2" stroke-opacity="0.200000" d="M289.54,-269C311.38,-269 343.05,-269 368.84,-269"/>
<polygon fill="#000000" fill-opacity="0.200000" stroke="#000000" stroke-width="2" stroke-opacity="0.200000" points="368.92,-271.1 374.92,-269 368.92,-266.9 368.92,-271.1"/>
</g>
<!-- scene/sceneComponents/geometries.js -->
<g id="node18" class="node">
<title>scene/sceneComponents/geometries.js</title>
<g id="a_node18"><a xlink:href="scene/sceneComponents/geometries.js" xlink:title="geometries.js">
<path fill="#ffffcc" stroke="black" d="M446.5,-402C446.5,-402 381.5,-402 381.5,-402 378.5,-402 375.5,-399 375.5,-396 375.5,-396 375.5,-390 375.5,-390 375.5,-387 378.5,-384 381.5,-384 381.5,-384 446.5,-384 446.5,-384 449.5,-384 452.5,-387 452.5,-390 452.5,-390 452.5,-396 452.5,-396 452.5,-399 449.5,-402 446.5,-402"/>
<text text-anchor="start" x="383.5" y="-390.8" font-family="Helvetica,sans-Serif" font-size="9.00">geometries.js</text>
</a>
</g>
</g>
<!-- scene/sceneComponents/capsulePool.js&#45;&gt;scene/sceneComponents/geometries.js -->
<g id="edge17" class="edge">
<title>scene/sceneComponents/capsulePool.js&#45;&gt;scene/sceneComponents/geometries.js</title>
<path fill="none" stroke="#000000" stroke-width="2" stroke-opacity="0.200000" d="M302.39,-383.38C322.86,-385.16 348.04,-387.35 369.2,-389.19"/>
<polygon fill="#000000" fill-opacity="0.200000" stroke="#000000" stroke-width="2" stroke-opacity="0.200000" points="369.18,-391.3 375.34,-389.73 369.54,-387.11 369.18,-391.3"/>
</g>
<!-- scene/sceneComponents/stageComponetns/camera.js -->
<g id="node19" class="node">
<title>scene/sceneComponents/stageComponetns/camera.js</title>
<g id="a_node19"><a xlink:href="scene/sceneComponents/stageComponetns/camera.js" xlink:title="camera.js">
<path fill="#ffffcc" stroke="black" d="M438,-350C438,-350 390,-350 390,-350 387,-350 384,-347 384,-344 384,-344 384,-338 384,-338 384,-335 387,-332 390,-332 390,-332 438,-332 438,-332 441,-332 444,-335 444,-338 444,-338 444,-344 444,-344 444,-347 441,-350 438,-350"/>
<text text-anchor="start" x="392" y="-338.8" font-family="Helvetica,sans-Serif" font-size="9.00">camera.js</text>
</a>
</g>
</g>
<!-- scene/sceneComponents/stage.js&#45;&gt;scene/sceneComponents/stageComponetns/camera.js -->
<g id="edge18" class="edge">
<title>scene/sceneComponents/stage.js&#45;&gt;scene/sceneComponents/stageComponetns/camera.js</title>
<path fill="none" stroke="#000000" stroke-width="2" stroke-opacity="0.200000" d="M289.8,-312.79C302.29,-315.55 317.42,-318.92 331,-322 346.34,-325.48 363.27,-329.39 377.75,-332.76"/>
<polygon fill="#000000" fill-opacity="0.200000" stroke="#000000" stroke-width="2" stroke-opacity="0.200000" points="377.47,-334.85 383.79,-334.17 378.42,-330.76 377.47,-334.85"/>
</g>
<!-- scene/sceneComponents/stageComponetns/renderer.js -->
<g id="node20" class="node">
<title>scene/sceneComponents/stageComponetns/renderer.js</title>
<g id="a_node20"><a xlink:href="scene/sceneComponents/stageComponetns/renderer.js" xlink:title="renderer.js">
<path fill="#ffffcc" stroke="black" d="M440.5,-320C440.5,-320 387.5,-320 387.5,-320 384.5,-320 381.5,-317 381.5,-314 381.5,-314 381.5,-308 381.5,-308 381.5,-305 384.5,-302 387.5,-302 387.5,-302 440.5,-302 440.5,-302 443.5,-302 446.5,-305 446.5,-308 446.5,-308 446.5,-314 446.5,-314 446.5,-317 443.5,-320 440.5,-320"/>
<text text-anchor="start" x="389.5" y="-308.8" font-family="Helvetica,sans-Serif" font-size="9.00">renderer.js</text>
</a>
</g>
</g>
<!-- scene/sceneComponents/stage.js&#45;&gt;scene/sceneComponents/stageComponetns/renderer.js -->
<g id="edge19" class="edge">
<title>scene/sceneComponents/stage.js&#45;&gt;scene/sceneComponents/stageComponetns/renderer.js</title>
<path fill="none" stroke="#000000" stroke-width="2" stroke-opacity="0.200000" d="M289.54,-307.7C313.16,-308.33 348.28,-309.27 375.03,-309.98"/>
<polygon fill="#000000" fill-opacity="0.200000" stroke="#000000" stroke-width="2" stroke-opacity="0.200000" points="375.24,-312.09 381.29,-310.15 375.35,-307.89 375.24,-312.09"/>
</g>
<!-- simulation/signallingNetwork/ADI.js -->
<g id="node21" class="node">
<title>simulation/signallingNetwork/ADI.js</title>
<g id="a_node21"><a xlink:href="simulation/signallingNetwork/ADI.js" xlink:title="ADI.js">
<path fill="#ffffcc" stroke="black" d="M541.5,-102C541.5,-102 499.5,-102 499.5,-102 496.5,-102 493.5,-99 493.5,-96 493.5,-96 493.5,-90 493.5,-90 493.5,-87 496.5,-84 499.5,-84 499.5,-84 541.5,-84 541.5,-84 544.5,-84 547.5,-87 547.5,-90 547.5,-90 547.5,-96 547.5,-96 547.5,-99 544.5,-102 541.5,-102"/>
<text text-anchor="start" x="507.5" y="-90.8" font-family="Helvetica,sans-Serif" font-size="9.00">ADI.js</text>
</a>
</g>
</g>
<!-- simulation/signallingNetwork/initArrays.js -->
<g id="node22" class="node">
<title>simulation/signallingNetwork/initArrays.js</title>
<g id="a_node22"><a xlink:href="simulation/signallingNetwork/initArrays.js" xlink:title="initArrays.js">
<path fill="#ffffcc" stroke="black" d="M641,-102C641,-102 584,-102 584,-102 581,-102 578,-99 578,-96 578,-96 578,-90 578,-90 578,-87 581,-84 584,-84 584,-84 641,-84 641,-84 644,-84 647,-87 647,-90 647,-90 647,-96 647,-96 647,-99 644,-102 641,-102"/>
<text text-anchor="start" x="586" y="-90.8" font-family="Helvetica,sans-Serif" font-size="9.00">initArrays.js</text>
</a>
</g>
</g>
<!-- simulation/signallingNetwork/ADI.js&#45;&gt;simulation/signallingNetwork/initArrays.js -->
<g id="edge20" class="edge">
<title>simulation/signallingNetwork/ADI.js&#45;&gt;simulation/signallingNetwork/initArrays.js</title>
<path fill="none" stroke="#000000" stroke-width="2" stroke-opacity="0.200000" d="M547.53,-93C555.06,-93 563.46,-93 571.63,-93"/>
<polygon fill="#000000" fill-opacity="0.200000" stroke="#000000" stroke-width="2" stroke-opacity="0.200000" points="571.81,-95.1 577.81,-93 571.81,-90.9 571.81,-95.1"/>
</g>
<!-- simulation/signallingNetwork/thomasAlgorithm.js -->
<g id="node23" class="node">
<title>simulation/signallingNetwork/thomasAlgorithm.js</title>
<g id="a_node23"><a xlink:href="simulation/signallingNetwork/thomasAlgorithm.js" xlink:title="thomasAlgorithm.js">
<path fill="#ffffcc" stroke="black" d="M658.5,-132C658.5,-132 566.5,-132 566.5,-132 563.5,-132 560.5,-129 560.5,-126 560.5,-126 560.5,-120 560.5,-120 560.5,-117 563.5,-114 566.5,-114 566.5,-114 658.5,-114 658.5,-114 661.5,-114 664.5,-117 664.5,-120 664.5,-120 664.5,-126 664.5,-126 664.5,-129 661.5,-132 658.5,-132"/>
<text text-anchor="start" x="568.5" y="-120.8" font-family="Helvetica,sans-Serif" font-size="9.00">thomasAlgorithm.js</text>
</a>
</g>
</g>
<!-- simulation/signallingNetwork/ADI.js&#45;&gt;simulation/signallingNetwork/thomasAlgorithm.js -->
<g id="edge21" class="edge">
<title>simulation/signallingNetwork/ADI.js&#45;&gt;simulation/signallingNetwork/thomasAlgorithm.js</title>
<path fill="none" stroke="#000000" stroke-width="2" stroke-opacity="0.200000" d="M544.07,-102.04C549.43,-104.08 555.14,-106.18 560.5,-108 564.65,-109.4 569.01,-110.8 573.36,-112.15"/>
<polygon fill="#000000" fill-opacity="0.200000" stroke="#000000" stroke-width="2" stroke-opacity="0.200000" points="572.92,-114.21 579.27,-113.95 574.15,-110.19 572.92,-114.21"/>
</g>
<!-- simulation/signallingNetwork/FTCS.js -->
<g id="node24" class="node">
<title>simulation/signallingNetwork/FTCS.js</title>
<g id="a_node24"><a xlink:href="simulation/signallingNetwork/FTCS.js" xlink:title="FTCS.js">
<path fill="#ffffcc" stroke="black" d="M541.5,-132C541.5,-132 499.5,-132 499.5,-132 496.5,-132 493.5,-129 493.5,-126 493.5,-126 493.5,-120 493.5,-120 493.5,-117 496.5,-114 499.5,-114 499.5,-114 541.5,-114 541.5,-114 544.5,-114 547.5,-117 547.5,-120 547.5,-120 547.5,-126 547.5,-126 547.5,-129 544.5,-132 541.5,-132"/>
<text text-anchor="start" x="504" y="-120.8" font-family="Helvetica,sans-Serif" font-size="9.00">FTCS.js</text>
</a>
</g>
</g>
<!-- simulation/signallingNetwork/diffusionStep.js -->
<g id="node25" class="node">
<title>simulation/signallingNetwork/diffusionStep.js</title>
<g id="a_node25"><a xlink:href="simulation/signallingNetwork/diffusionStep.js" xlink:title="diffusionStep.js">
<path fill="#ffffcc" stroke="black" d="M451,-102C451,-102 377,-102 377,-102 374,-102 371,-99 371,-96 371,-96 371,-90 371,-90 371,-87 374,-84 377,-84 377,-84 451,-84 451,-84 454,-84 457,-87 457,-90 457,-90 457,-96 457,-96 457,-99 454,-102 451,-102"/>
<text text-anchor="start" x="379" y="-90.8" font-family="Helvetica,sans-Serif" font-size="9.00">diffusionStep.js</text>
</a>
</g>
</g>
<!-- simulation/signallingNetwork/diffusionStep.js&#45;&gt;simulation/signallingNetwork/ADI.js -->
<g id="edge22" class="edge">
<title>simulation/signallingNetwork/diffusionStep.js&#45;&gt;simulation/signallingNetwork/ADI.js</title>
<path fill="none" stroke="#000000" stroke-width="2" stroke-opacity="0.200000" d="M457.2,-93C467.24,-93 477.79,-93 487.3,-93"/>
<polygon fill="#000000" fill-opacity="0.200000" stroke="#000000" stroke-width="2" stroke-opacity="0.200000" points="487.38,-95.1 493.38,-93 487.38,-90.9 487.38,-95.1"/>
</g>
<!-- simulation/signallingNetwork/diffusionStep.js&#45;&gt;simulation/signallingNetwork/FTCS.js -->
<g id="edge23" class="edge">
<title>simulation/signallingNetwork/diffusionStep.js&#45;&gt;simulation/signallingNetwork/FTCS.js</title>
<path fill="none" stroke="#000000" stroke-width="2" stroke-opacity="0.200000" d="M457.13,-100.48C466.56,-102.57 476.45,-105.08 485.5,-108 488.65,-109.02 491.9,-110.23 495.08,-111.51"/>
<polygon fill="#000000" fill-opacity="0.200000" stroke="#000000" stroke-width="2" stroke-opacity="0.200000" points="494.36,-113.49 500.71,-113.89 495.99,-109.62 494.36,-113.49"/>
</g>
<!-- simulation/signallingNetwork/grid.js -->
<g id="node26" class="node">
<title>simulation/signallingNetwork/grid.js</title>
<g id="a_node26"><a xlink:href="simulation/signallingNetwork/grid.js" xlink:title="grid.js">
<path fill="#ffffcc" stroke="black" d="M435,-132C435,-132 393,-132 393,-132 390,-132 387,-129 387,-126 387,-126 387,-120 387,-120 387,-117 390,-114 393,-114 393,-114 435,-114 435,-114 438,-114 441,-117 441,-120 441,-120 441,-126 441,-126 441,-129 438,-132 435,-132"/>
<text text-anchor="start" x="400" y="-120.8" font-family="Helvetica,sans-Serif" font-size="9.00">grid.js</text>
</a>
</g>
</g>
<!-- simulation/signallingNetwork/signallingNetwork.js&#45;&gt;simulation/signallingNetwork/diffusionStep.js -->
<g id="edge24" class="edge">
<title>simulation/signallingNetwork/signallingNetwork.js&#45;&gt;simulation/signallingNetwork/diffusionStep.js</title>
<path fill="none" stroke="#000000" stroke-width="2" stroke-opacity="0.200000" d="M308.35,-114C326.2,-110.42 346.78,-106.29 364.93,-102.65"/>
<polygon fill="#000000" fill-opacity="0.200000" stroke="#000000" stroke-width="2" stroke-opacity="0.200000" points="365.52,-104.67 370.99,-101.43 364.69,-100.55 365.52,-104.67"/>
</g>
<!-- simulation/signallingNetwork/signallingNetwork.js&#45;&gt;simulation/signallingNetwork/grid.js -->
<g id="edge25" class="edge">
<title>simulation/signallingNetwork/signallingNetwork.js&#45;&gt;simulation/signallingNetwork/grid.js</title>
<path fill="none" stroke="#000000" stroke-width="2" stroke-opacity="0.200000" d="M316.21,-123C337.66,-123 361.77,-123 380.56,-123"/>
<polygon fill="#000000" fill-opacity="0.200000" stroke="#000000" stroke-width="2" stroke-opacity="0.200000" points="380.72,-125.1 386.72,-123 380.72,-120.9 380.72,-125.1"/>
</g>
</g>
</svg>
