<?xml version="1.0" encoding="UTF-8" standalone="no"?>
<!DOCTYPE svg PUBLIC "-//W3C//DTD SVG 1.1//EN"
 "http://www.w3.org/Graphics/SVG/1.1/DTD/svg11.dtd">
<!-- Generated by graphviz version 2.43.0 (0)
 -->
<!-- Title: dependency&#45;cruiser output Pages: 1 -->
<svg width="713pt" height="646pt"
 viewBox="0.00 0.00 712.50 646.00" xmlns="http://www.w3.org/2000/svg" xmlns:xlink="http://www.w3.org/1999/xlink">
<g id="graph0" class="graph" transform="scale(1 1) rotate(0) translate(4 642)">
<title>dependency&#45;cruiser output</title>
<polygon fill="white" stroke="transparent" points="-4,4 -4,-642 708.5,-642 708.5,4 -4,4"/>
<g id="clust1" class="cluster">
<title>cluster_GUI</title>
<path fill="#ffffff" stroke="black" stroke-width="2" d="M81.5,-548C81.5,-548 458,-548 458,-548 464,-548 470,-554 470,-560 470,-560 470,-618 470,-618 470,-624 464,-630 458,-630 458,-630 81.5,-630 81.5,-630 75.5,-630 69.5,-624 69.5,-618 69.5,-618 69.5,-560 69.5,-560 69.5,-554 75.5,-548 81.5,-548"/>
<text text-anchor="middle" x="269.75" y="-618.8" font-family="Helvetica,sans-Serif" font-weight="bold" font-size="9.00">GUI</text>
</g>
<g id="clust2" class="cluster">
<title>cluster_scene</title>
<path fill="#ffffff" stroke="black" stroke-width="2" d="M77.5,-252C77.5,-252 473.5,-252 473.5,-252 479.5,-252 485.5,-258 485.5,-264 485.5,-264 485.5,-502 485.5,-502 485.5,-508 479.5,-514 473.5,-514 473.5,-514 77.5,-514 77.5,-514 71.5,-514 65.5,-508 65.5,-502 65.5,-502 65.5,-264 65.5,-264 65.5,-258 71.5,-252 77.5,-252"/>
<text text-anchor="middle" x="275.5" y="-502.8" font-family="Helvetica,sans-Serif" font-weight="bold" font-size="9.00">scene</text>
</g>
<g id="clust3" class="cluster">
<title>cluster_scene/sceneComponents</title>
<path fill="#ffffff" stroke="black" stroke-width="2" d="M227,-346C227,-346 465.5,-346 465.5,-346 471.5,-346 477.5,-352 477.5,-358 477.5,-358 477.5,-476 477.5,-476 477.5,-482 471.5,-488 465.5,-488 465.5,-488 227,-488 227,-488 221,-488 215,-482 215,-476 215,-476 215,-358 215,-358 215,-352 221,-346 227,-346"/>
<text text-anchor="middle" x="346.25" y="-476.8" font-family="Helvetica,sans-Serif" font-weight="bold" font-size="9.00">sceneComponents</text>
</g>
<g id="clust4" class="cluster">
<title>cluster_scene/sceneComponents/stageComponetns</title>
<path fill="#ffffff" stroke="black" stroke-width="2" d="M371.5,-354C371.5,-354 457.5,-354 457.5,-354 463.5,-354 469.5,-360 469.5,-366 469.5,-366 469.5,-424 469.5,-424 469.5,-430 463.5,-436 457.5,-436 457.5,-436 371.5,-436 371.5,-436 365.5,-436 359.5,-430 359.5,-424 359.5,-424 359.5,-366 359.5,-366 359.5,-360 365.5,-354 371.5,-354"/>
<text text-anchor="middle" x="414.5" y="-424.8" font-family="Helvetica,sans-Serif" font-weight="bold" font-size="9.00">stageComponetns</text>
</g>
<g id="clust5" class="cluster">
<title>cluster_simulation</title>
<path fill="#ffffff" stroke="black" stroke-width="2" d="M74,-68C74,-68 684.5,-68 684.5,-68 690.5,-68 696.5,-74 696.5,-80 696.5,-80 696.5,-232 696.5,-232 696.5,-238 690.5,-244 684.5,-244 684.5,-244 74,-244 74,-244 68,-244 62,-238 62,-232 62,-232 62,-80 62,-80 62,-74 68,-68 74,-68"/>
<text text-anchor="middle" x="379.25" y="-232.8" font-family="Helvetica,sans-Serif" font-weight="bold" font-size="9.00">simulation</text>
</g>
<g id="clust6" class="cluster">
<title>cluster_simulation/signallingNetwork</title>
<path fill="#ffffff" stroke="black" stroke-width="2" d="M213,-76C213,-76 676.5,-76 676.5,-76 682.5,-76 688.5,-82 688.5,-88 688.5,-88 688.5,-206 688.5,-206 688.5,-212 682.5,-218 676.5,-218 676.5,-218 213,-218 213,-218 207,-218 201,-212 201,-206 201,-206 201,-88 201,-88 201,-82 207,-76 213,-76"/>
<text text-anchor="middle" x="444.75" y="-206.8" font-family="Helvetica,sans-Serif" font-weight="bold" font-size="9.00">signallingNetwork</text>
</g>
<g id="clust7" class="cluster">
<title>cluster_simulation/signallingNetwork/ADI</title>
<path fill="#ffffff" stroke="black" stroke-width="2" d="M505.5,-84C505.5,-84 668.5,-84 668.5,-84 674.5,-84 680.5,-90 680.5,-96 680.5,-96 680.5,-154 680.5,-154 680.5,-160 674.5,-166 668.5,-166 668.5,-166 505.5,-166 505.5,-166 499.5,-166 493.5,-160 493.5,-154 493.5,-154 493.5,-96 493.5,-96 493.5,-90 499.5,-84 505.5,-84"/>
<text text-anchor="middle" x="587" y="-154.8" font-family="Helvetica,sans-Serif" font-weight="bold" font-size="9.00">ADI</text>
</g>
<g id="clust8" class="cluster">
<title>cluster_state</title>
<path fill="#ffffff" stroke="black" stroke-width="2" d="M86,-8C86,-8 165,-8 165,-8 171,-8 177,-14 177,-20 177,-20 177,-48 177,-48 177,-54 171,-60 165,-60 165,-60 86,-60 86,-60 80,-60 74,-54 74,-48 74,-48 74,-20 74,-20 74,-14 80,-8 86,-8"/>
<text text-anchor="middle" x="125.5" y="-48.8" font-family="Helvetica,sans-Serif" font-weight="bold" font-size="9.00">state</text>
</g>
<!-- GUI/controlManager.js -->
<g id="node1" class="node">
<title>GUI/controlManager.js</title>
<g id="a_node1"><a xlink:href="GUI/controlManager.js" xlink:title="controlManager.js">
<path fill="#ffffcc" stroke="black" d="M167.5,-574C167.5,-574 83.5,-574 83.5,-574 80.5,-574 77.5,-571 77.5,-568 77.5,-568 77.5,-562 77.5,-562 77.5,-559 80.5,-556 83.5,-556 83.5,-556 167.5,-556 167.5,-556 170.5,-556 173.5,-559 173.5,-562 173.5,-562 173.5,-568 173.5,-568 173.5,-571 170.5,-574 167.5,-574"/>
<text text-anchor="start" x="85.5" y="-562.8" font-family="Helvetica,sans-Serif" font-size="9.00">controlManager.js</text>
</a>
</g>
</g>
<!-- GUI/sessionTab.js -->
<g id="node2" class="node">
<title>GUI/sessionTab.js</title>
<g id="a_node2"><a xlink:href="GUI/sessionTab.js" xlink:title="sessionTab.js">
<path fill="#ffffcc" stroke="black" d="M293.5,-574C293.5,-574 231.5,-574 231.5,-574 228.5,-574 225.5,-571 225.5,-568 225.5,-568 225.5,-562 225.5,-562 225.5,-559 228.5,-556 231.5,-556 231.5,-556 293.5,-556 293.5,-556 296.5,-556 299.5,-559 299.5,-562 299.5,-562 299.5,-568 299.5,-568 299.5,-571 296.5,-574 293.5,-574"/>
<text text-anchor="start" x="233.5" y="-562.8" font-family="Helvetica,sans-Serif" font-size="9.00">sessionTab.js</text>
</a>
</g>
</g>
<!-- GUI/controlManager.js&#45;&gt;GUI/sessionTab.js -->
<g id="edge1" class="edge">
<title>GUI/controlManager.js&#45;&gt;GUI/sessionTab.js</title>
<path fill="none" stroke="#000000" stroke-width="2" stroke-opacity="0.200000" d="M173.72,-565C188.49,-565 204.68,-565 219.1,-565"/>
<polygon fill="#000000" fill-opacity="0.200000" stroke="#000000" stroke-width="2" stroke-opacity="0.200000" points="219.16,-567.1 225.16,-565 219.16,-562.9 219.16,-567.1"/>
</g>
<!-- GUI/signallingTab.js -->
<g id="node3" class="node">
<title>GUI/signallingTab.js</title>
<g id="a_node3"><a xlink:href="GUI/signallingTab.js" xlink:title="signallingTab.js">
<path fill="#ffffcc" stroke="black" d="M298.5,-604C298.5,-604 226.5,-604 226.5,-604 223.5,-604 220.5,-601 220.5,-598 220.5,-598 220.5,-592 220.5,-592 220.5,-589 223.5,-586 226.5,-586 226.5,-586 298.5,-586 298.5,-586 301.5,-586 304.5,-589 304.5,-592 304.5,-592 304.5,-598 304.5,-598 304.5,-601 301.5,-604 298.5,-604"/>
<text text-anchor="start" x="228.5" y="-592.8" font-family="Helvetica,sans-Serif" font-size="9.00">signallingTab.js</text>
</a>
</g>
</g>
<!-- GUI/controlManager.js&#45;&gt;GUI/signallingTab.js -->
<g id="edge2" class="edge">
<title>GUI/controlManager.js&#45;&gt;GUI/signallingTab.js</title>
<path fill="none" stroke="#000000" stroke-width="2" stroke-opacity="0.200000" d="M167,-574C181.95,-577.32 199.01,-581.11 214.49,-584.55"/>
<polygon fill="#000000" fill-opacity="0.200000" stroke="#000000" stroke-width="2" stroke-opacity="0.200000" points="214.24,-586.65 220.56,-585.9 215.16,-582.55 214.24,-586.65"/>
</g>
<!-- GUI/dataProcessor.js -->
<g id="node4" class="node">
<title>GUI/dataProcessor.js</title>
<g id="a_node4"><a xlink:href="GUI/dataProcessor.js" xlink:title="dataProcessor.js">
<path fill="#ffffcc" stroke="black" d="M452.5,-574C452.5,-574 375.5,-574 375.5,-574 372.5,-574 369.5,-571 369.5,-568 369.5,-568 369.5,-562 369.5,-562 369.5,-559 372.5,-556 375.5,-556 375.5,-556 452.5,-556 452.5,-556 455.5,-556 458.5,-559 458.5,-562 458.5,-562 458.5,-568 458.5,-568 458.5,-571 455.5,-574 452.5,-574"/>
<text text-anchor="start" x="377.5" y="-562.8" font-family="Helvetica,sans-Serif" font-size="9.00">dataProcessor.js</text>
</a>
</g>
</g>
<!-- GUI/sessionTab.js&#45;&gt;GUI/dataProcessor.js -->
<g id="edge3" class="edge">
<title>GUI/sessionTab.js&#45;&gt;GUI/dataProcessor.js</title>
<path fill="none" stroke="#000000" stroke-width="2" stroke-opacity="0.200000" d="M299.69,-565C318.8,-565 342.55,-565 363.35,-565"/>
<polygon fill="#000000" fill-opacity="0.200000" stroke="#000000" stroke-width="2" stroke-opacity="0.200000" points="363.42,-567.1 369.42,-565 363.42,-562.9 363.42,-567.1"/>
</g>
<!-- GUI/visualizationTab.js -->
<g id="node5" class="node">
<title>GUI/visualizationTab.js</title>
<g id="a_node5"><a xlink:href="GUI/visualizationTab.js" xlink:title="visualizationTab.js">
<path fill="#ffffcc" stroke="black" d="M456,-604C456,-604 372,-604 372,-604 369,-604 366,-601 366,-598 366,-598 366,-592 366,-592 366,-589 369,-586 372,-586 372,-586 456,-586 456,-586 459,-586 462,-589 462,-592 462,-592 462,-598 462,-598 462,-601 459,-604 456,-604"/>
<text text-anchor="start" x="374" y="-592.8" font-family="Helvetica,sans-Serif" font-size="9.00">visualizationTab.js</text>
</a>
</g>
</g>
<!-- GUI/signallingTab.js&#45;&gt;GUI/visualizationTab.js -->
<g id="edge4" class="edge">
<title>GUI/signallingTab.js&#45;&gt;GUI/visualizationTab.js</title>
<path fill="none" stroke="#000000" stroke-width="2" stroke-opacity="0.200000" d="M304.75,-595C321.75,-595 341.67,-595 359.76,-595"/>
<polygon fill="#000000" fill-opacity="0.200000" stroke="#000000" stroke-width="2" stroke-opacity="0.200000" points="359.82,-597.1 365.82,-595 359.82,-592.9 359.82,-597.1"/>
</g>
<!-- config.js -->
<g id="node6" class="node">
<title>config.js</title>
<g id="a_node6"><a xlink:href="config.js" xlink:title="config.js">
<path fill="#ffffcc" stroke="black" d="M147,-540C147,-540 104,-540 104,-540 101,-540 98,-537 98,-534 98,-534 98,-528 98,-528 98,-525 101,-522 104,-522 104,-522 147,-522 147,-522 150,-522 153,-525 153,-528 153,-528 153,-534 153,-534 153,-537 150,-540 147,-540"/>
<text text-anchor="middle" x="125.5" y="-528.8" font-family="Helvetica,sans-Serif" font-size="9.00">config.js</text>
</a>
</g>
</g>
<!-- main.js -->
<g id="node7" class="node">
<title>main.js</title>
<g id="a_node7"><a xlink:href="main.js" xlink:title="main.js">
<path fill="#ffffcc" stroke="black" d="M48,-357C48,-357 6,-357 6,-357 3,-357 0,-354 0,-351 0,-351 0,-345 0,-345 0,-342 3,-339 6,-339 6,-339 48,-339 48,-339 51,-339 54,-342 54,-345 54,-345 54,-351 54,-351 54,-354 51,-357 48,-357"/>
<text text-anchor="middle" x="27" y="-345.8" font-family="Helvetica,sans-Serif" font-size="9.00">main.js</text>
</a>
</g>
</g>
<!-- main.js&#45;&gt;GUI/controlManager.js -->
<g id="edge6" class="edge">
<title>main.js&#45;&gt;GUI/controlManager.js</title>
<path fill="none" stroke="#000000" stroke-width="2" stroke-opacity="0.200000" d="M28.34,-357.42C29.81,-392.82 36.73,-517.36 62,-546 64.82,-549.2 68.17,-551.87 71.82,-554.1"/>
<polygon fill="#000000" fill-opacity="0.200000" stroke="#000000" stroke-width="2" stroke-opacity="0.200000" points="71.07,-556.08 77.36,-557.05 73.05,-552.37 71.07,-556.08"/>
</g>
<!-- main.js&#45;&gt;config.js -->
<g id="edge5" class="edge">
<title>main.js&#45;&gt;config.js</title>
<path fill="none" stroke="#000000" stroke-width="2" stroke-opacity="0.200000" d="M28.58,-357.4C30.73,-389.47 39.4,-493.9 62,-517 69.81,-524.98 81.11,-528.85 91.95,-530.62"/>
<polygon fill="#000000" fill-opacity="0.200000" stroke="#000000" stroke-width="2" stroke-opacity="0.200000" points="91.69,-532.7 97.91,-531.39 92.23,-528.53 91.69,-532.7"/>
</g>
<!-- scene/graphicsManager.js -->
<g id="node8" class="node">
<title>scene/graphicsManager.js</title>
<g id="a_node8"><a xlink:href="scene/graphicsManager.js" xlink:title="graphicsManager.js">
<path fill="#ffffcc" stroke="black" d="M171.5,-357C171.5,-357 79.5,-357 79.5,-357 76.5,-357 73.5,-354 73.5,-351 73.5,-351 73.5,-345 73.5,-345 73.5,-342 76.5,-339 79.5,-339 79.5,-339 171.5,-339 171.5,-339 174.5,-339 177.5,-342 177.5,-345 177.5,-345 177.5,-351 177.5,-351 177.5,-354 174.5,-357 171.5,-357"/>
<text text-anchor="start" x="81.5" y="-345.8" font-family="Helvetica,sans-Serif" font-size="9.00">graphicsManager.js</text>
</a>
</g>
</g>
<!-- main.js&#45;&gt;scene/graphicsManager.js -->
<g id="edge7" class="edge">
<title>main.js&#45;&gt;scene/graphicsManager.js</title>
<path fill="none" stroke="#000000" stroke-width="2" stroke-opacity="0.200000" d="M54.11,-348C58.26,-348 62.68,-348 67.21,-348"/>
<polygon fill="#000000" fill-opacity="0.200000" stroke="#000000" stroke-width="2" stroke-opacity="0.200000" points="67.45,-350.1 73.45,-348 67.45,-345.9 67.45,-350.1"/>
</g>
<!-- simulation/simulationManager.js -->
<g id="node9" class="node">
<title>simulation/simulationManager.js</title>
<g id="a_node9"><a xlink:href="simulation/simulationManager.js" xlink:title="simulationManager.js">
<path fill="#ffffcc" stroke="black" d="M175,-205C175,-205 76,-205 76,-205 73,-205 70,-202 70,-199 70,-199 70,-193 70,-193 70,-190 73,-187 76,-187 76,-187 175,-187 175,-187 178,-187 181,-190 181,-193 181,-193 181,-199 181,-199 181,-202 178,-205 175,-205"/>
<text text-anchor="start" x="78" y="-193.8" font-family="Helvetica,sans-Serif" font-size="9.00">simulationManager.js</text>
</a>
</g>
</g>
<!-- main.js&#45;&gt;simulation/simulationManager.js -->
<g id="edge8" class="edge">
<title>main.js&#45;&gt;simulation/simulationManager.js</title>
<path fill="none" stroke="#000000" stroke-width="2" stroke-opacity="0.200000" d="M29.47,-338.8C32.75,-320.39 42.02,-278.26 62,-249 73.26,-232.51 90.96,-218.17 104.66,-208.58"/>
<polygon fill="#000000" fill-opacity="0.200000" stroke="#000000" stroke-width="2" stroke-opacity="0.200000" points="106.1,-210.13 109.87,-205.02 103.74,-206.66 106.1,-210.13"/>
</g>
<!-- state/stateManager.js -->
<g id="node10" class="node">
<title>state/stateManager.js</title>
<g id="a_node10"><a xlink:href="state/stateManager.js" xlink:title="stateManager.js">
<path fill="#ffffcc" stroke="black" d="M163,-34C163,-34 88,-34 88,-34 85,-34 82,-31 82,-28 82,-28 82,-22 82,-22 82,-19 85,-16 88,-16 88,-16 163,-16 163,-16 166,-16 169,-19 169,-22 169,-22 169,-28 169,-28 169,-31 166,-34 163,-34"/>
<text text-anchor="start" x="90" y="-22.8" font-family="Helvetica,sans-Serif" font-size="9.00">stateManager.js</text>
</a>
</g>
</g>
<!-- main.js&#45;&gt;state/stateManager.js -->
<g id="edge9" class="edge">
<title>main.js&#45;&gt;state/stateManager.js</title>
<path fill="none" stroke="#000000" stroke-width="2" stroke-opacity="0.200000" d="M28.07,-338.92C28.55,-295.84 32.34,-112.26 62,-65 69.78,-52.6 82.96,-43.33 95.22,-36.85"/>
<polygon fill="#000000" fill-opacity="0.200000" stroke="#000000" stroke-width="2" stroke-opacity="0.200000" points="96.34,-38.64 100.77,-34.07 94.46,-34.89 96.34,-38.64"/>
</g>
<!-- scene/graphycLibrariesImports.js -->
<g id="node11" class="node">
<title>scene/graphycLibrariesImports.js</title>
<g id="a_node11"><a xlink:href="scene/graphycLibrariesImports.js" xlink:title="graphycLibrariesImports.js">
<path fill="#ffffcc" stroke="black" d="M325,-278C325,-278 200,-278 200,-278 197,-278 194,-275 194,-272 194,-272 194,-266 194,-266 194,-263 197,-260 200,-260 200,-260 325,-260 325,-260 328,-260 331,-263 331,-266 331,-266 331,-272 331,-272 331,-275 328,-278 325,-278"/>
<text text-anchor="start" x="202" y="-266.8" font-family="Helvetica,sans-Serif" font-size="9.00">graphycLibrariesImports.js</text>
</a>
</g>
</g>
<!-- scene/graphicsManager.js&#45;&gt;scene/graphycLibrariesImports.js -->
<g id="edge10" class="edge">
<title>scene/graphicsManager.js&#45;&gt;scene/graphycLibrariesImports.js</title>
<path fill="none" stroke="#000000" stroke-width="2" stroke-opacity="0.200000" d="M133.29,-338.97C144.37,-324.91 167.76,-297.95 194,-284 196.58,-282.63 199.28,-281.38 202.05,-280.25"/>
<polygon fill="#000000" fill-opacity="0.200000" stroke="#000000" stroke-width="2" stroke-opacity="0.200000" points="202.96,-282.15 207.84,-278.08 201.48,-278.22 202.96,-282.15"/>
</g>
<!-- scene/overlay.js -->
<g id="node12" class="node">
<title>scene/overlay.js</title>
<g id="a_node12"><a xlink:href="scene/overlay.js" xlink:title="overlay.js">
<path fill="#ffffcc" stroke="black" d="M285,-308C285,-308 240,-308 240,-308 237,-308 234,-305 234,-302 234,-302 234,-296 234,-296 234,-293 237,-290 240,-290 240,-290 285,-290 285,-290 288,-290 291,-293 291,-296 291,-296 291,-302 291,-302 291,-305 288,-308 285,-308"/>
<text text-anchor="start" x="242" y="-296.8" font-family="Helvetica,sans-Serif" font-size="9.00">overlay.js</text>
</a>
</g>
</g>
<!-- scene/graphicsManager.js&#45;&gt;scene/overlay.js -->
<g id="edge11" class="edge">
<title>scene/graphicsManager.js&#45;&gt;scene/overlay.js</title>
<path fill="none" stroke="#000000" stroke-width="2" stroke-opacity="0.200000" d="M141.83,-338.89C155.21,-331.29 175.34,-320.66 194,-314 204.78,-310.15 216.89,-307.09 227.85,-304.76"/>
<polygon fill="#000000" fill-opacity="0.200000" stroke="#000000" stroke-width="2" stroke-opacity="0.200000" points="228.35,-306.81 233.8,-303.55 227.51,-302.69 228.35,-306.81"/>
</g>
<!-- scene/plot.js -->
<g id="node13" class="node">
<title>scene/plot.js</title>
<g id="a_node13"><a xlink:href="scene/plot.js" xlink:title="plot.js">
<path fill="#ffffcc" stroke="black" d="M283.5,-338C283.5,-338 241.5,-338 241.5,-338 238.5,-338 235.5,-335 235.5,-332 235.5,-332 235.5,-326 235.5,-326 235.5,-323 238.5,-320 241.5,-320 241.5,-320 283.5,-320 283.5,-320 286.5,-320 289.5,-323 289.5,-326 289.5,-326 289.5,-332 289.5,-332 289.5,-335 286.5,-338 283.5,-338"/>
<text text-anchor="start" x="248.5" y="-326.8" font-family="Helvetica,sans-Serif" font-size="9.00">plot.js</text>
</a>
</g>
</g>
<!-- scene/graphicsManager.js&#45;&gt;scene/plot.js -->
<g id="edge12" class="edge">
<title>scene/graphicsManager.js&#45;&gt;scene/plot.js</title>
<path fill="none" stroke="#000000" stroke-width="2" stroke-opacity="0.200000" d="M177.54,-340.82C194.94,-338.37 213.9,-335.7 229.39,-333.52"/>
<polygon fill="#000000" fill-opacity="0.200000" stroke="#000000" stroke-width="2" stroke-opacity="0.200000" points="229.71,-335.59 235.36,-332.68 229.13,-331.44 229.71,-335.59"/>
</g>
<!-- scene/sceneComponents/capsulePool.js -->
<g id="node14" class="node">
<title>scene/sceneComponents/capsulePool.js</title>
<g id="a_node14"><a xlink:href="scene/sceneComponents/capsulePool.js" xlink:title="capsulePool.js">
<path fill="#ffffcc" stroke="black" d="M296,-449C296,-449 229,-449 229,-449 226,-449 223,-446 223,-443 223,-443 223,-437 223,-437 223,-434 226,-431 229,-431 229,-431 296,-431 296,-431 299,-431 302,-434 302,-437 302,-437 302,-443 302,-443 302,-446 299,-449 296,-449"/>
<text text-anchor="start" x="231" y="-437.8" font-family="Helvetica,sans-Serif" font-size="9.00">capsulePool.js</text>
</a>
</g>
</g>
<!-- scene/graphicsManager.js&#45;&gt;scene/sceneComponents/capsulePool.js -->
<g id="edge13" class="edge">
<title>scene/graphicsManager.js&#45;&gt;scene/sceneComponents/capsulePool.js</title>
<path fill="none" stroke="#000000" stroke-width="2" stroke-opacity="0.200000" d="M134.37,-357.39C146.15,-370.96 169.62,-396.17 194,-412 204.33,-418.71 216.53,-424.36 227.7,-428.78"/>
<polygon fill="#000000" fill-opacity="0.200000" stroke="#000000" stroke-width="2" stroke-opacity="0.200000" points="227.08,-430.79 233.43,-430.98 228.58,-426.87 227.08,-430.79"/>
</g>
<!-- scene/sceneComponents/mesh.js -->
<g id="node15" class="node">
<title>scene/sceneComponents/mesh.js</title>
<g id="a_node15"><a xlink:href="scene/sceneComponents/mesh.js" xlink:title="mesh.js">
<path fill="#ffffcc" stroke="black" d="M283.5,-406C283.5,-406 241.5,-406 241.5,-406 238.5,-406 235.5,-403 235.5,-400 235.5,-400 235.5,-394 235.5,-394 235.5,-391 238.5,-388 241.5,-388 241.5,-388 283.5,-388 283.5,-388 286.5,-388 289.5,-391 289.5,-394 289.5,-394 289.5,-400 289.5,-400 289.5,-403 286.5,-406 283.5,-406"/>
<text text-anchor="start" x="245" y="-394.8" font-family="Helvetica,sans-Serif" font-size="9.00">mesh.js</text>
</a>
</g>
</g>
<!-- scene/graphicsManager.js&#45;&gt;scene/sceneComponents/mesh.js -->
<g id="edge14" class="edge">
<title>scene/graphicsManager.js&#45;&gt;scene/sceneComponents/mesh.js</title>
<path fill="none" stroke="#000000" stroke-width="2" stroke-opacity="0.200000" d="M141.83,-357.11C155.21,-364.71 175.34,-375.34 194,-382 205.26,-386.02 217.97,-389.18 229.3,-391.54"/>
<polygon fill="#000000" fill-opacity="0.200000" stroke="#000000" stroke-width="2" stroke-opacity="0.200000" points="229.14,-393.65 235.43,-392.77 229.96,-389.53 229.14,-393.65"/>
</g>
<!-- scene/sceneComponents/stage.js -->
<g id="node16" class="node">
<title>scene/sceneComponents/stage.js</title>
<g id="a_node16"><a xlink:href="scene/sceneComponents/stage.js" xlink:title="stage.js">
<path fill="#ffffcc" stroke="black" d="M283.5,-376C283.5,-376 241.5,-376 241.5,-376 238.5,-376 235.5,-373 235.5,-370 235.5,-370 235.5,-364 235.5,-364 235.5,-361 238.5,-358 241.5,-358 241.5,-358 283.5,-358 283.5,-358 286.5,-358 289.5,-361 289.5,-364 289.5,-364 289.5,-370 289.5,-370 289.5,-373 286.5,-376 283.5,-376"/>
<text text-anchor="start" x="245" y="-364.8" font-family="Helvetica,sans-Serif" font-size="9.00">stage.js</text>
</a>
</g>
</g>
<!-- scene/graphicsManager.js&#45;&gt;scene/sceneComponents/stage.js -->
<g id="edge15" class="edge">
<title>scene/graphicsManager.js&#45;&gt;scene/sceneComponents/stage.js</title>
<path fill="none" stroke="#000000" stroke-width="2" stroke-opacity="0.200000" d="M177.54,-355.18C194.94,-357.63 213.9,-360.3 229.39,-362.48"/>
<polygon fill="#000000" fill-opacity="0.200000" stroke="#000000" stroke-width="2" stroke-opacity="0.200000" points="229.13,-364.56 235.36,-363.32 229.71,-360.41 229.13,-364.56"/>
</g>
<!-- simulation/signallingNetwork/signallingNetwork.js -->
<g id="node27" class="node">
<title>simulation/signallingNetwork/signallingNetwork.js</title>
<g id="a_node27"><a xlink:href="simulation/signallingNetwork/signallingNetwork.js" xlink:title="signallingNetwork.js">
<path fill="#ffffcc" stroke="black" d="M310,-192C310,-192 215,-192 215,-192 212,-192 209,-189 209,-186 209,-186 209,-180 209,-180 209,-177 212,-174 215,-174 215,-174 310,-174 310,-174 313,-174 316,-177 316,-180 316,-180 316,-186 316,-186 316,-189 313,-192 310,-192"/>
<text text-anchor="start" x="217" y="-180.8" font-family="Helvetica,sans-Serif" font-size="9.00">signallingNetwork.js</text>
</a>
</g>
</g>
<!-- simulation/simulationManager.js&#45;&gt;simulation/signallingNetwork/signallingNetwork.js -->
<g id="edge26" class="edge">
<title>simulation/simulationManager.js&#45;&gt;simulation/signallingNetwork/signallingNetwork.js</title>
<path fill="none" stroke="#000000" stroke-width="2" stroke-opacity="0.200000" d="M181.02,-190.75C188.22,-190.06 195.63,-189.34 202.9,-188.64"/>
<polygon fill="#000000" fill-opacity="0.200000" stroke="#000000" stroke-width="2" stroke-opacity="0.200000" points="203.19,-190.72 208.97,-188.06 202.79,-186.54 203.19,-190.72"/>
</g>
<!-- scene/plotOptions.js -->
<g id="node17" class="node">
<title>scene/plotOptions.js</title>
<g id="a_node17"><a xlink:href="scene/plotOptions.js" xlink:title="plotOptions.js">
<path fill="#ffffcc" stroke="black" d="M447,-338C447,-338 381,-338 381,-338 378,-338 375,-335 375,-332 375,-332 375,-326 375,-326 375,-323 378,-320 381,-320 381,-320 447,-320 447,-320 450,-320 453,-323 453,-326 453,-326 453,-332 453,-332 453,-335 450,-338 447,-338"/>
<text text-anchor="start" x="383" y="-326.8" font-family="Helvetica,sans-Serif" font-size="9.00">plotOptions.js</text>
</a>
</g>
</g>
<!-- scene/plot.js&#45;&gt;scene/plotOptions.js -->
<g id="edge16" class="edge">
<title>scene/plot.js&#45;&gt;scene/plotOptions.js</title>
<path fill="none" stroke="#000000" stroke-width="2" stroke-opacity="0.200000" d="M289.54,-329C311.38,-329 343.05,-329 368.84,-329"/>
<polygon fill="#000000" fill-opacity="0.200000" stroke="#000000" stroke-width="2" stroke-opacity="0.200000" points="368.92,-331.1 374.92,-329 368.92,-326.9 368.92,-331.1"/>
</g>
<!-- scene/sceneComponents/geometries.js -->
<g id="node18" class="node">
<title>scene/sceneComponents/geometries.js</title>
<g id="a_node18"><a xlink:href="scene/sceneComponents/geometries.js" xlink:title="geometries.js">
<path fill="#ffffcc" stroke="black" d="M446.5,-462C446.5,-462 381.5,-462 381.5,-462 378.5,-462 375.5,-459 375.5,-456 375.5,-456 375.5,-450 375.5,-450 375.5,-447 378.5,-444 381.5,-444 381.5,-444 446.5,-444 446.5,-444 449.5,-444 452.5,-447 452.5,-450 452.5,-450 452.5,-456 452.5,-456 452.5,-459 449.5,-462 446.5,-462"/>
<text text-anchor="start" x="383.5" y="-450.8" font-family="Helvetica,sans-Serif" font-size="9.00">geometries.js</text>
</a>
</g>
</g>
<!-- scene/sceneComponents/capsulePool.js&#45;&gt;scene/sceneComponents/geometries.js -->
<g id="edge17" class="edge">
<title>scene/sceneComponents/capsulePool.js&#45;&gt;scene/sceneComponents/geometries.js</title>
<path fill="none" stroke="#000000" stroke-width="2" stroke-opacity="0.200000" d="M302.39,-443.38C322.86,-445.16 348.04,-447.35 369.2,-449.19"/>
<polygon fill="#000000" fill-opacity="0.200000" stroke="#000000" stroke-width="2" stroke-opacity="0.200000" points="369.18,-451.3 375.34,-449.73 369.54,-447.11 369.18,-451.3"/>
</g>
<!-- scene/sceneComponents/stageComponetns/camera.js -->
<g id="node19" class="node">
<title>scene/sceneComponents/stageComponetns/camera.js</title>
<g id="a_node19"><a xlink:href="scene/sceneComponents/stageComponetns/camera.js" xlink:title="camera.js">
<path fill="#ffffcc" stroke="black" d="M438,-410C438,-410 390,-410 390,-410 387,-410 384,-407 384,-404 384,-404 384,-398 384,-398 384,-395 387,-392 390,-392 390,-392 438,-392 438,-392 441,-392 444,-395 444,-398 444,-398 444,-404 444,-404 444,-407 441,-410 438,-410"/>
<text text-anchor="start" x="392" y="-398.8" font-family="Helvetica,sans-Serif" font-size="9.00">camera.js</text>
</a>
</g>
</g>
<!-- scene/sceneComponents/stage.js&#45;&gt;scene/sceneComponents/stageComponetns/camera.js -->
<g id="edge18" class="edge">
<title>scene/sceneComponents/stage.js&#45;&gt;scene/sceneComponents/stageComponetns/camera.js</title>
<path fill="none" stroke="#000000" stroke-width="2" stroke-opacity="0.200000" d="M289.8,-372.79C302.29,-375.55 317.42,-378.92 331,-382 346.34,-385.48 363.27,-389.39 377.75,-392.76"/>
<polygon fill="#000000" fill-opacity="0.200000" stroke="#000000" stroke-width="2" stroke-opacity="0.200000" points="377.47,-394.85 383.79,-394.17 378.42,-390.76 377.47,-394.85"/>
</g>
<!-- scene/sceneComponents/stageComponetns/renderer.js -->
<g id="node20" class="node">
<title>scene/sceneComponents/stageComponetns/renderer.js</title>
<g id="a_node20"><a xlink:href="scene/sceneComponents/stageComponetns/renderer.js" xlink:title="renderer.js">
<path fill="#ffffcc" stroke="black" d="M440.5,-380C440.5,-380 387.5,-380 387.5,-380 384.5,-380 381.5,-377 381.5,-374 381.5,-374 381.5,-368 381.5,-368 381.5,-365 384.5,-362 387.5,-362 387.5,-362 440.5,-362 440.5,-362 443.5,-362 446.5,-365 446.5,-368 446.5,-368 446.5,-374 446.5,-374 446.5,-377 443.5,-380 440.5,-380"/>
<text text-anchor="start" x="389.5" y="-368.8" font-family="Helvetica,sans-Serif" font-size="9.00">renderer.js</text>
</a>
</g>
</g>
<!-- scene/sceneComponents/stage.js&#45;&gt;scene/sceneComponents/stageComponetns/renderer.js -->
<g id="edge19" class="edge">
<title>scene/sceneComponents/stage.js&#45;&gt;scene/sceneComponents/stageComponetns/renderer.js</title>
<path fill="none" stroke="#000000" stroke-width="2" stroke-opacity="0.200000" d="M289.54,-367.7C313.16,-368.33 348.28,-369.27 375.03,-369.98"/>
<polygon fill="#000000" fill-opacity="0.200000" stroke="#000000" stroke-width="2" stroke-opacity="0.200000" points="375.24,-372.09 381.29,-370.15 375.35,-367.89 375.24,-372.09"/>
</g>
<!-- simulation/signallingNetwork/ADI/ADI.js -->
<g id="node21" class="node">
<title>simulation/signallingNetwork/ADI/ADI.js</title>
<g id="a_node21"><a xlink:href="simulation/signallingNetwork/ADI/ADI.js" xlink:title="ADI.js">
<path fill="#ffffcc" stroke="black" d="M549.5,-140C549.5,-140 507.5,-140 507.5,-140 504.5,-140 501.5,-137 501.5,-134 501.5,-134 501.5,-128 501.5,-128 501.5,-125 504.5,-122 507.5,-122 507.5,-122 549.5,-122 549.5,-122 552.5,-122 555.5,-125 555.5,-128 555.5,-128 555.5,-134 555.5,-134 555.5,-137 552.5,-140 549.5,-140"/>
<text text-anchor="start" x="515.5" y="-128.8" font-family="Helvetica,sans-Serif" font-size="9.00">ADI.js</text>
</a>
</g>
</g>
<!-- simulation/signallingNetwork/ADI/initArrays.js -->
<g id="node22" class="node">
<title>simulation/signallingNetwork/ADI/initArrays.js</title>
<g id="a_node22"><a xlink:href="simulation/signallingNetwork/ADI/initArrays.js" xlink:title="initArrays.js">
<path fill="#ffffcc" stroke="black" d="M649,-110C649,-110 592,-110 592,-110 589,-110 586,-107 586,-104 586,-104 586,-98 586,-98 586,-95 589,-92 592,-92 592,-92 649,-92 649,-92 652,-92 655,-95 655,-98 655,-98 655,-104 655,-104 655,-107 652,-110 649,-110"/>
<text text-anchor="start" x="594" y="-98.8" font-family="Helvetica,sans-Serif" font-size="9.00">initArrays.js</text>
</a>
</g>
</g>
<!-- simulation/signallingNetwork/ADI/ADI.js&#45;&gt;simulation/signallingNetwork/ADI/initArrays.js -->
<g id="edge20" class="edge">
<title>simulation/signallingNetwork/ADI/ADI.js&#45;&gt;simulation/signallingNetwork/ADI/initArrays.js</title>
<path fill="none" stroke="#000000" stroke-width="2" stroke-opacity="0.200000" d="M552.07,-121.96C557.43,-119.92 563.14,-117.82 568.5,-116 572.65,-114.6 577.01,-113.2 581.36,-111.85"/>
<polygon fill="#000000" fill-opacity="0.200000" stroke="#000000" stroke-width="2" stroke-opacity="0.200000" points="582.15,-113.81 587.27,-110.05 580.92,-109.79 582.15,-113.81"/>
</g>
<!-- simulation/signallingNetwork/ADI/thomasAlgorithm.js -->
<g id="node23" class="node">
<title>simulation/signallingNetwork/ADI/thomasAlgorithm.js</title>
<g id="a_node23"><a xlink:href="simulation/signallingNetwork/ADI/thomasAlgorithm.js" xlink:title="thomasAlgorithm.js">
<path fill="#ffffcc" stroke="black" d="M666.5,-140C666.5,-140 574.5,-140 574.5,-140 571.5,-140 568.5,-137 568.5,-134 568.5,-134 568.5,-128 568.5,-128 568.5,-125 571.5,-122 574.5,-122 574.5,-122 666.5,-122 666.5,-122 669.5,-122 672.5,-125 672.5,-128 672.5,-128 672.5,-134 672.5,-134 672.5,-137 669.5,-140 666.5,-140"/>
<text text-anchor="start" x="576.5" y="-128.8" font-family="Helvetica,sans-Serif" font-size="9.00">thomasAlgorithm.js</text>
</a>
</g>
</g>
<!-- simulation/signallingNetwork/ADI/ADI.js&#45;&gt;simulation/signallingNetwork/ADI/thomasAlgorithm.js -->
<g id="edge21" class="edge">
<title>simulation/signallingNetwork/ADI/ADI.js&#45;&gt;simulation/signallingNetwork/ADI/thomasAlgorithm.js</title>
<path fill="none" stroke="#000000" stroke-width="2" stroke-opacity="0.200000" d="M555.53,-131C557.68,-131 559.9,-131 562.17,-131"/>
<polygon fill="#000000" fill-opacity="0.200000" stroke="#000000" stroke-width="2" stroke-opacity="0.200000" points="562.26,-133.1 568.26,-131 562.26,-128.9 562.26,-133.1"/>
</g>
<!-- simulation/signallingNetwork/FTCS.js -->
<g id="node24" class="node">
<title>simulation/signallingNetwork/FTCS.js</title>
<g id="a_node24"><a xlink:href="simulation/signallingNetwork/FTCS.js" xlink:title="FTCS.js">
<path fill="#ffffcc" stroke="black" d="M549.5,-192C549.5,-192 507.5,-192 507.5,-192 504.5,-192 501.5,-189 501.5,-186 501.5,-186 501.5,-180 501.5,-180 501.5,-177 504.5,-174 507.5,-174 507.5,-174 549.5,-174 549.5,-174 552.5,-174 555.5,-177 555.5,-180 555.5,-180 555.5,-186 555.5,-186 555.5,-189 552.5,-192 549.5,-192"/>
<text text-anchor="start" x="512" y="-180.8" font-family="Helvetica,sans-Serif" font-size="9.00">FTCS.js</text>
</a>
</g>
</g>
<!-- simulation/signallingNetwork/diffusionStep.js -->
<g id="node25" class="node">
<title>simulation/signallingNetwork/diffusionStep.js</title>
<g id="a_node25"><a xlink:href="simulation/signallingNetwork/diffusionStep.js" xlink:title="diffusionStep.js">
<path fill="#ffffcc" stroke="black" d="M451,-162C451,-162 377,-162 377,-162 374,-162 371,-159 371,-156 371,-156 371,-150 371,-150 371,-147 374,-144 377,-144 377,-144 451,-144 451,-144 454,-144 457,-147 457,-150 457,-150 457,-156 457,-156 457,-159 454,-162 451,-162"/>
<text text-anchor="start" x="379" y="-150.8" font-family="Helvetica,sans-Serif" font-size="9.00">diffusionStep.js</text>
</a>
</g>
</g>
<!-- simulation/signallingNetwork/diffusionStep.js&#45;&gt;simulation/signallingNetwork/ADI/ADI.js -->
<g id="edge22" class="edge">
<title>simulation/signallingNetwork/diffusionStep.js&#45;&gt;simulation/signallingNetwork/ADI/ADI.js</title>
<path fill="none" stroke="#000000" stroke-width="2" stroke-opacity="0.200000" d="M457.21,-144.75C469.85,-142.27 483.49,-139.61 495.37,-137.28"/>
<polygon fill="#000000" fill-opacity="0.200000" stroke="#000000" stroke-width="2" stroke-opacity="0.200000" points="495.92,-139.32 501.4,-136.1 495.11,-135.19 495.92,-139.32"/>
</g>
<!-- simulation/signallingNetwork/diffusionStep.js&#45;&gt;simulation/signallingNetwork/FTCS.js -->
<g id="edge23" class="edge">
<title>simulation/signallingNetwork/diffusionStep.js&#45;&gt;simulation/signallingNetwork/FTCS.js</title>
<path fill="none" stroke="#000000" stroke-width="2" stroke-opacity="0.200000" d="M457.35,-161.05C466.68,-163.09 476.47,-165.44 485.5,-168 489.5,-169.14 493.68,-170.46 497.77,-171.83"/>
<polygon fill="#000000" fill-opacity="0.200000" stroke="#000000" stroke-width="2" stroke-opacity="0.200000" points="497.33,-173.9 503.69,-173.88 498.71,-169.93 497.33,-173.9"/>
</g>
<!-- simulation/signallingNetwork/grid.js -->
<g id="node26" class="node">
<title>simulation/signallingNetwork/grid.js</title>
<g id="a_node26"><a xlink:href="simulation/signallingNetwork/grid.js" xlink:title="grid.js">
<path fill="#ffffcc" stroke="black" d="M435,-192C435,-192 393,-192 393,-192 390,-192 387,-189 387,-186 387,-186 387,-180 387,-180 387,-177 390,-174 393,-174 393,-174 435,-174 435,-174 438,-174 441,-177 441,-180 441,-180 441,-186 441,-186 441,-189 438,-192 435,-192"/>
<text text-anchor="start" x="400" y="-180.8" font-family="Helvetica,sans-Serif" font-size="9.00">grid.js</text>
</a>
</g>
</g>
<!-- simulation/signallingNetwork/signallingNetwork.js&#45;&gt;simulation/signallingNetwork/diffusionStep.js -->
<g id="edge24" class="edge">
<title>simulation/signallingNetwork/signallingNetwork.js&#45;&gt;simulation/signallingNetwork/diffusionStep.js</title>
<path fill="none" stroke="#000000" stroke-width="2" stroke-opacity="0.200000" d="M308.35,-174C326.2,-170.42 346.78,-166.29 364.93,-162.65"/>
<polygon fill="#000000" fill-opacity="0.200000" stroke="#000000" stroke-width="2" stroke-opacity="0.200000" points="365.52,-164.67 370.99,-161.43 364.69,-160.55 365.52,-164.67"/>
</g>
<!-- simulation/signallingNetwork/signallingNetwork.js&#45;&gt;simulation/signallingNetwork/grid.js -->
<g id="edge25" class="edge">
<title>simulation/signallingNetwork/signallingNetwork.js&#45;&gt;simulation/signallingNetwork/grid.js</title>
<path fill="none" stroke="#000000" stroke-width="2" stroke-opacity="0.200000" d="M316.21,-183C337.66,-183 361.77,-183 380.56,-183"/>
<polygon fill="#000000" fill-opacity="0.200000" stroke="#000000" stroke-width="2" stroke-opacity="0.200000" points="380.72,-185.1 386.72,-183 380.72,-180.9 380.72,-185.1"/>
</g>
</g>
</svg>
