<?xml version="1.0" encoding="UTF-8" standalone="no"?>
<!DOCTYPE svg PUBLIC "-//W3C//DTD SVG 1.1//EN"
 "http://www.w3.org/Graphics/SVG/1.1/DTD/svg11.dtd">
<!-- Generated by graphviz version 2.43.0 (0)
 -->
<!-- Title: dependency&#45;cruiser output Pages: 1 -->
<svg width="753pt" height="720pt"
 viewBox="0.00 0.00 752.50 720.00" xmlns="http://www.w3.org/2000/svg" xmlns:xlink="http://www.w3.org/1999/xlink">
<g id="graph0" class="graph" transform="scale(1 1) rotate(0) translate(4 716)">
<title>dependency&#45;cruiser output</title>
<polygon fill="white" stroke="transparent" points="-4,4 -4,-716 748.5,-716 748.5,4 -4,4"/>
<g id="clust1" class="cluster">
<title>cluster_GUI</title>
<path fill="#ffffff" stroke="black" stroke-width="2" d="M81.5,-622C81.5,-622 453.5,-622 453.5,-622 459.5,-622 465.5,-628 465.5,-634 465.5,-634 465.5,-692 465.5,-692 465.5,-698 459.5,-704 453.5,-704 453.5,-704 81.5,-704 81.5,-704 75.5,-704 69.5,-698 69.5,-692 69.5,-692 69.5,-634 69.5,-634 69.5,-628 75.5,-622 81.5,-622"/>
<text text-anchor="middle" x="267.5" y="-692.8" font-family="Helvetica,sans-Serif" font-weight="bold" font-size="9.00">GUI</text>
</g>
<g id="clust2" class="cluster">
<title>cluster_scene</title>
<path fill="#ffffff" stroke="black" stroke-width="2" d="M77.5,-326C77.5,-326 469,-326 469,-326 475,-326 481,-332 481,-338 481,-338 481,-576 481,-576 481,-582 475,-588 469,-588 469,-588 77.5,-588 77.5,-588 71.5,-588 65.5,-582 65.5,-576 65.5,-576 65.5,-338 65.5,-338 65.5,-332 71.5,-326 77.5,-326"/>
<text text-anchor="middle" x="273.25" y="-576.8" font-family="Helvetica,sans-Serif" font-weight="bold" font-size="9.00">scene</text>
</g>
<g id="clust3" class="cluster">
<title>cluster_scene/sceneComponents</title>
<path fill="#ffffff" stroke="black" stroke-width="2" d="M227,-420C227,-420 461,-420 461,-420 467,-420 473,-426 473,-432 473,-432 473,-550 473,-550 473,-556 467,-562 461,-562 461,-562 227,-562 227,-562 221,-562 215,-556 215,-550 215,-550 215,-432 215,-432 215,-426 221,-420 227,-420"/>
<text text-anchor="middle" x="344" y="-550.8" font-family="Helvetica,sans-Serif" font-weight="bold" font-size="9.00">sceneComponents</text>
</g>
<g id="clust4" class="cluster">
<title>cluster_scene/sceneComponents/stageComponetns</title>
<path fill="#ffffff" stroke="black" stroke-width="2" d="M367,-428C367,-428 453,-428 453,-428 459,-428 465,-434 465,-440 465,-440 465,-498 465,-498 465,-504 459,-510 453,-510 453,-510 367,-510 367,-510 361,-510 355,-504 355,-498 355,-498 355,-440 355,-440 355,-434 361,-428 367,-428"/>
<text text-anchor="middle" x="410" y="-498.8" font-family="Helvetica,sans-Serif" font-weight="bold" font-size="9.00">stageComponetns</text>
</g>
<g id="clust5" class="cluster">
<title>cluster_simulation</title>
<path fill="#ffffff" stroke="black" stroke-width="2" d="M74,-68C74,-68 724.5,-68 724.5,-68 730.5,-68 736.5,-74 736.5,-80 736.5,-80 736.5,-306 736.5,-306 736.5,-312 730.5,-318 724.5,-318 724.5,-318 74,-318 74,-318 68,-318 62,-312 62,-306 62,-306 62,-80 62,-80 62,-74 68,-68 74,-68"/>
<text text-anchor="middle" x="399.25" y="-306.8" font-family="Helvetica,sans-Serif" font-weight="bold" font-size="9.00">simulation</text>
</g>
<g id="clust6" class="cluster">
<title>cluster_simulation/signallingNetwork</title>
<path fill="#ffffff" stroke="black" stroke-width="2" d="M213,-76C213,-76 716.5,-76 716.5,-76 722.5,-76 728.5,-82 728.5,-88 728.5,-88 728.5,-280 728.5,-280 728.5,-286 722.5,-292 716.5,-292 716.5,-292 213,-292 213,-292 207,-292 201,-286 201,-280 201,-280 201,-88 201,-88 201,-82 207,-76 213,-76"/>
<text text-anchor="middle" x="464.75" y="-280.8" font-family="Helvetica,sans-Serif" font-weight="bold" font-size="9.00">signallingNetwork</text>
</g>
<g id="clust7" class="cluster">
<title>cluster_simulation/signallingNetwork/extracellular</title>
<path fill="#ffffff" stroke="black" stroke-width="2" d="M386.5,-84C386.5,-84 595.5,-84 595.5,-84 601.5,-84 607.5,-90 607.5,-96 607.5,-96 607.5,-154 607.5,-154 607.5,-160 601.5,-166 595.5,-166 595.5,-166 386.5,-166 386.5,-166 380.5,-166 374.5,-160 374.5,-154 374.5,-154 374.5,-96 374.5,-96 374.5,-90 380.5,-84 386.5,-84"/>
<text text-anchor="middle" x="491" y="-154.8" font-family="Helvetica,sans-Serif" font-weight="bold" font-size="9.00">extracellular</text>
</g>
<g id="clust8" class="cluster">
<title>cluster_simulation/signallingNetwork/intracellular</title>
<path fill="#ffffff" stroke="black" stroke-width="2" d="M358,-200C358,-200 708.5,-200 708.5,-200 714.5,-200 720.5,-206 720.5,-212 720.5,-212 720.5,-254 720.5,-254 720.5,-260 714.5,-266 708.5,-266 708.5,-266 358,-266 358,-266 352,-266 346,-260 346,-254 346,-254 346,-212 346,-212 346,-206 352,-200 358,-200"/>
<text text-anchor="middle" x="533.25" y="-254.8" font-family="Helvetica,sans-Serif" font-weight="bold" font-size="9.00">intracellular</text>
</g>
<g id="clust9" class="cluster">
<title>cluster_state</title>
<path fill="#ffffff" stroke="black" stroke-width="2" d="M86,-8C86,-8 165,-8 165,-8 171,-8 177,-14 177,-20 177,-20 177,-48 177,-48 177,-54 171,-60 165,-60 165,-60 86,-60 86,-60 80,-60 74,-54 74,-48 74,-48 74,-20 74,-20 74,-14 80,-8 86,-8"/>
<text text-anchor="middle" x="125.5" y="-48.8" font-family="Helvetica,sans-Serif" font-weight="bold" font-size="9.00">state</text>
</g>
<!-- GUI/controlManager.js -->
<g id="node1" class="node">
<title>GUI/controlManager.js</title>
<g id="a_node1"><a xlink:href="GUI/controlManager.js" xlink:title="controlManager.js">
<path fill="#ffffcc" stroke="black" d="M167.5,-648C167.5,-648 83.5,-648 83.5,-648 80.5,-648 77.5,-645 77.5,-642 77.5,-642 77.5,-636 77.5,-636 77.5,-633 80.5,-630 83.5,-630 83.5,-630 167.5,-630 167.5,-630 170.5,-630 173.5,-633 173.5,-636 173.5,-636 173.5,-642 173.5,-642 173.5,-645 170.5,-648 167.5,-648"/>
<text text-anchor="start" x="85.5" y="-636.8" font-family="Helvetica,sans-Serif" font-size="9.00">controlManager.js</text>
</a>
</g>
</g>
<!-- GUI/sessionTab.js -->
<g id="node2" class="node">
<title>GUI/sessionTab.js</title>
<g id="a_node2"><a xlink:href="GUI/sessionTab.js" xlink:title="sessionTab.js">
<path fill="#ffffcc" stroke="black" d="M293.5,-648C293.5,-648 231.5,-648 231.5,-648 228.5,-648 225.5,-645 225.5,-642 225.5,-642 225.5,-636 225.5,-636 225.5,-633 228.5,-630 231.5,-630 231.5,-630 293.5,-630 293.5,-630 296.5,-630 299.5,-633 299.5,-636 299.5,-636 299.5,-642 299.5,-642 299.5,-645 296.5,-648 293.5,-648"/>
<text text-anchor="start" x="233.5" y="-636.8" font-family="Helvetica,sans-Serif" font-size="9.00">sessionTab.js</text>
</a>
</g>
</g>
<!-- GUI/controlManager.js&#45;&gt;GUI/sessionTab.js -->
<g id="edge1" class="edge">
<title>GUI/controlManager.js&#45;&gt;GUI/sessionTab.js</title>
<path fill="none" stroke="#000000" stroke-width="2" stroke-opacity="0.200000" d="M173.72,-639C188.49,-639 204.68,-639 219.1,-639"/>
<polygon fill="#000000" fill-opacity="0.200000" stroke="#000000" stroke-width="2" stroke-opacity="0.200000" points="219.16,-641.1 225.16,-639 219.16,-636.9 219.16,-641.1"/>
</g>
<!-- GUI/signallingTab.js -->
<g id="node3" class="node">
<title>GUI/signallingTab.js</title>
<g id="a_node3"><a xlink:href="GUI/signallingTab.js" xlink:title="signallingTab.js">
<path fill="#ffffcc" stroke="black" d="M298.5,-678C298.5,-678 226.5,-678 226.5,-678 223.5,-678 220.5,-675 220.5,-672 220.5,-672 220.5,-666 220.5,-666 220.5,-663 223.5,-660 226.5,-660 226.5,-660 298.5,-660 298.5,-660 301.5,-660 304.5,-663 304.5,-666 304.5,-666 304.5,-672 304.5,-672 304.5,-675 301.5,-678 298.5,-678"/>
<text text-anchor="start" x="228.5" y="-666.8" font-family="Helvetica,sans-Serif" font-size="9.00">signallingTab.js</text>
</a>
</g>
</g>
<!-- GUI/controlManager.js&#45;&gt;GUI/signallingTab.js -->
<g id="edge2" class="edge">
<title>GUI/controlManager.js&#45;&gt;GUI/signallingTab.js</title>
<path fill="none" stroke="#000000" stroke-width="2" stroke-opacity="0.200000" d="M167,-648C181.95,-651.32 199.01,-655.11 214.49,-658.55"/>
<polygon fill="#000000" fill-opacity="0.200000" stroke="#000000" stroke-width="2" stroke-opacity="0.200000" points="214.24,-660.65 220.56,-659.9 215.16,-656.55 214.24,-660.65"/>
</g>
<!-- GUI/dataProcessor.js -->
<g id="node4" class="node">
<title>GUI/dataProcessor.js</title>
<g id="a_node4"><a xlink:href="GUI/dataProcessor.js" xlink:title="dataProcessor.js">
<path fill="#ffffcc" stroke="black" d="M448,-648C448,-648 371,-648 371,-648 368,-648 365,-645 365,-642 365,-642 365,-636 365,-636 365,-633 368,-630 371,-630 371,-630 448,-630 448,-630 451,-630 454,-633 454,-636 454,-636 454,-642 454,-642 454,-645 451,-648 448,-648"/>
<text text-anchor="start" x="373" y="-636.8" font-family="Helvetica,sans-Serif" font-size="9.00">dataProcessor.js</text>
</a>
</g>
</g>
<!-- GUI/sessionTab.js&#45;&gt;GUI/dataProcessor.js -->
<g id="edge3" class="edge">
<title>GUI/sessionTab.js&#45;&gt;GUI/dataProcessor.js</title>
<path fill="none" stroke="#000000" stroke-width="2" stroke-opacity="0.200000" d="M299.72,-639C317.5,-639 339.22,-639 358.55,-639"/>
<polygon fill="#000000" fill-opacity="0.200000" stroke="#000000" stroke-width="2" stroke-opacity="0.200000" points="358.74,-641.1 364.74,-639 358.74,-636.9 358.74,-641.1"/>
</g>
<!-- GUI/visualizationTab.js -->
<g id="node5" class="node">
<title>GUI/visualizationTab.js</title>
<g id="a_node5"><a xlink:href="GUI/visualizationTab.js" xlink:title="visualizationTab.js">
<path fill="#ffffcc" stroke="black" d="M451.5,-678C451.5,-678 367.5,-678 367.5,-678 364.5,-678 361.5,-675 361.5,-672 361.5,-672 361.5,-666 361.5,-666 361.5,-663 364.5,-660 367.5,-660 367.5,-660 451.5,-660 451.5,-660 454.5,-660 457.5,-663 457.5,-666 457.5,-666 457.5,-672 457.5,-672 457.5,-675 454.5,-678 451.5,-678"/>
<text text-anchor="start" x="369.5" y="-666.8" font-family="Helvetica,sans-Serif" font-size="9.00">visualizationTab.js</text>
</a>
</g>
</g>
<!-- GUI/signallingTab.js&#45;&gt;GUI/visualizationTab.js -->
<g id="edge4" class="edge">
<title>GUI/signallingTab.js&#45;&gt;GUI/visualizationTab.js</title>
<path fill="none" stroke="#000000" stroke-width="2" stroke-opacity="0.200000" d="M304.66,-669C320.4,-669 338.57,-669 355.27,-669"/>
<polygon fill="#000000" fill-opacity="0.200000" stroke="#000000" stroke-width="2" stroke-opacity="0.200000" points="355.35,-671.1 361.35,-669 355.35,-666.9 355.35,-671.1"/>
</g>
<!-- config.js -->
<g id="node6" class="node">
<title>config.js</title>
<g id="a_node6"><a xlink:href="config.js" xlink:title="config.js">
<path fill="#ffffcc" stroke="black" d="M147,-614C147,-614 104,-614 104,-614 101,-614 98,-611 98,-608 98,-608 98,-602 98,-602 98,-599 101,-596 104,-596 104,-596 147,-596 147,-596 150,-596 153,-599 153,-602 153,-602 153,-608 153,-608 153,-611 150,-614 147,-614"/>
<text text-anchor="middle" x="125.5" y="-602.8" font-family="Helvetica,sans-Serif" font-size="9.00">config.js</text>
</a>
</g>
</g>
<!-- main.js -->
<g id="node7" class="node">
<title>main.js</title>
<g id="a_node7"><a xlink:href="main.js" xlink:title="main.js">
<path fill="#ffffcc" stroke="black" d="M48,-431C48,-431 6,-431 6,-431 3,-431 0,-428 0,-425 0,-425 0,-419 0,-419 0,-416 3,-413 6,-413 6,-413 48,-413 48,-413 51,-413 54,-416 54,-419 54,-419 54,-425 54,-425 54,-428 51,-431 48,-431"/>
<text text-anchor="middle" x="27" y="-419.8" font-family="Helvetica,sans-Serif" font-size="9.00">main.js</text>
</a>
</g>
</g>
<!-- main.js&#45;&gt;GUI/controlManager.js -->
<g id="edge6" class="edge">
<title>main.js&#45;&gt;GUI/controlManager.js</title>
<path fill="none" stroke="#000000" stroke-width="2" stroke-opacity="0.200000" d="M28.34,-431.42C29.81,-466.82 36.73,-591.36 62,-620 64.82,-623.2 68.17,-625.87 71.82,-628.1"/>
<polygon fill="#000000" fill-opacity="0.200000" stroke="#000000" stroke-width="2" stroke-opacity="0.200000" points="71.07,-630.08 77.36,-631.05 73.05,-626.37 71.07,-630.08"/>
</g>
<!-- main.js&#45;&gt;config.js -->
<g id="edge5" class="edge">
<title>main.js&#45;&gt;config.js</title>
<path fill="none" stroke="#000000" stroke-width="2" stroke-opacity="0.200000" d="M28.58,-431.4C30.73,-463.47 39.4,-567.9 62,-591 69.81,-598.98 81.11,-602.85 91.95,-604.62"/>
<polygon fill="#000000" fill-opacity="0.200000" stroke="#000000" stroke-width="2" stroke-opacity="0.200000" points="91.69,-606.7 97.91,-605.39 92.23,-602.53 91.69,-606.7"/>
</g>
<!-- scene/graphicsManager.js -->
<g id="node8" class="node">
<title>scene/graphicsManager.js</title>
<g id="a_node8"><a xlink:href="scene/graphicsManager.js" xlink:title="graphicsManager.js">
<path fill="#ffffcc" stroke="black" d="M171.5,-431C171.5,-431 79.5,-431 79.5,-431 76.5,-431 73.5,-428 73.5,-425 73.5,-425 73.5,-419 73.5,-419 73.5,-416 76.5,-413 79.5,-413 79.5,-413 171.5,-413 171.5,-413 174.5,-413 177.5,-416 177.5,-419 177.5,-419 177.5,-425 177.5,-425 177.5,-428 174.5,-431 171.5,-431"/>
<text text-anchor="start" x="81.5" y="-419.8" font-family="Helvetica,sans-Serif" font-size="9.00">graphicsManager.js</text>
</a>
</g>
</g>
<!-- main.js&#45;&gt;scene/graphicsManager.js -->
<g id="edge7" class="edge">
<title>main.js&#45;&gt;scene/graphicsManager.js</title>
<path fill="none" stroke="#000000" stroke-width="2" stroke-opacity="0.200000" d="M54.11,-422C58.26,-422 62.68,-422 67.21,-422"/>
<polygon fill="#000000" fill-opacity="0.200000" stroke="#000000" stroke-width="2" stroke-opacity="0.200000" points="67.45,-424.1 73.45,-422 67.45,-419.9 67.45,-424.1"/>
</g>
<!-- simulation/simulationManager.js -->
<g id="node9" class="node">
<title>simulation/simulationManager.js</title>
<g id="a_node9"><a xlink:href="simulation/simulationManager.js" xlink:title="simulationManager.js">
<path fill="#ffffcc" stroke="black" d="M175,-247C175,-247 76,-247 76,-247 73,-247 70,-244 70,-241 70,-241 70,-235 70,-235 70,-232 73,-229 76,-229 76,-229 175,-229 175,-229 178,-229 181,-232 181,-235 181,-235 181,-241 181,-241 181,-244 178,-247 175,-247"/>
<text text-anchor="start" x="78" y="-235.8" font-family="Helvetica,sans-Serif" font-size="9.00">simulationManager.js</text>
</a>
</g>
</g>
<!-- main.js&#45;&gt;simulation/simulationManager.js -->
<g id="edge8" class="edge">
<title>main.js&#45;&gt;simulation/simulationManager.js</title>
<path fill="none" stroke="#000000" stroke-width="2" stroke-opacity="0.200000" d="M30.14,-412.89C34.55,-394.98 45.64,-354.23 62,-323 76.17,-295.94 98.4,-268.07 112.17,-251.92"/>
<polygon fill="#000000" fill-opacity="0.200000" stroke="#000000" stroke-width="2" stroke-opacity="0.200000" points="113.83,-253.22 116.16,-247.3 110.65,-250.48 113.83,-253.22"/>
</g>
<!-- state/stateManager.js -->
<g id="node10" class="node">
<title>state/stateManager.js</title>
<g id="a_node10"><a xlink:href="state/stateManager.js" xlink:title="stateManager.js">
<path fill="#ffffcc" stroke="black" d="M163,-34C163,-34 88,-34 88,-34 85,-34 82,-31 82,-28 82,-28 82,-22 82,-22 82,-19 85,-16 88,-16 88,-16 163,-16 163,-16 166,-16 169,-19 169,-22 169,-22 169,-28 169,-28 169,-31 166,-34 163,-34"/>
<text text-anchor="start" x="90" y="-22.8" font-family="Helvetica,sans-Serif" font-size="9.00">stateManager.js</text>
</a>
</g>
</g>
<!-- main.js&#45;&gt;state/stateManager.js -->
<g id="edge9" class="edge">
<title>main.js&#45;&gt;state/stateManager.js</title>
<path fill="none" stroke="#000000" stroke-width="2" stroke-opacity="0.200000" d="M27.82,-412.95C26.96,-363.5 24.85,-125.84 62,-65 69.57,-52.61 82.59,-43.37 94.8,-36.92"/>
<polygon fill="#000000" fill-opacity="0.200000" stroke="#000000" stroke-width="2" stroke-opacity="0.200000" points="95.9,-38.71 100.33,-34.14 94.02,-34.96 95.9,-38.71"/>
</g>
<!-- scene/graphycLibrariesImports.js -->
<g id="node11" class="node">
<title>scene/graphycLibrariesImports.js</title>
<g id="a_node11"><a xlink:href="scene/graphycLibrariesImports.js" xlink:title="graphycLibrariesImports.js">
<path fill="#ffffcc" stroke="black" d="M325,-352C325,-352 200,-352 200,-352 197,-352 194,-349 194,-346 194,-346 194,-340 194,-340 194,-337 197,-334 200,-334 200,-334 325,-334 325,-334 328,-334 331,-337 331,-340 331,-340 331,-346 331,-346 331,-349 328,-352 325,-352"/>
<text text-anchor="start" x="202" y="-340.8" font-family="Helvetica,sans-Serif" font-size="9.00">graphycLibrariesImports.js</text>
</a>
</g>
</g>
<!-- scene/graphicsManager.js&#45;&gt;scene/graphycLibrariesImports.js -->
<g id="edge10" class="edge">
<title>scene/graphicsManager.js&#45;&gt;scene/graphycLibrariesImports.js</title>
<path fill="none" stroke="#000000" stroke-width="2" stroke-opacity="0.200000" d="M133.29,-412.97C144.37,-398.91 167.76,-371.95 194,-358 196.58,-356.63 199.28,-355.38 202.05,-354.25"/>
<polygon fill="#000000" fill-opacity="0.200000" stroke="#000000" stroke-width="2" stroke-opacity="0.200000" points="202.96,-356.15 207.84,-352.08 201.48,-352.22 202.96,-356.15"/>
</g>
<!-- scene/overlay.js -->
<g id="node12" class="node">
<title>scene/overlay.js</title>
<g id="a_node12"><a xlink:href="scene/overlay.js" xlink:title="overlay.js">
<path fill="#ffffcc" stroke="black" d="M285,-382C285,-382 240,-382 240,-382 237,-382 234,-379 234,-376 234,-376 234,-370 234,-370 234,-367 237,-364 240,-364 240,-364 285,-364 285,-364 288,-364 291,-367 291,-370 291,-370 291,-376 291,-376 291,-379 288,-382 285,-382"/>
<text text-anchor="start" x="242" y="-370.8" font-family="Helvetica,sans-Serif" font-size="9.00">overlay.js</text>
</a>
</g>
</g>
<!-- scene/graphicsManager.js&#45;&gt;scene/overlay.js -->
<g id="edge11" class="edge">
<title>scene/graphicsManager.js&#45;&gt;scene/overlay.js</title>
<path fill="none" stroke="#000000" stroke-width="2" stroke-opacity="0.200000" d="M141.83,-412.89C155.21,-405.29 175.34,-394.66 194,-388 204.78,-384.15 216.89,-381.09 227.85,-378.76"/>
<polygon fill="#000000" fill-opacity="0.200000" stroke="#000000" stroke-width="2" stroke-opacity="0.200000" points="228.35,-380.81 233.8,-377.55 227.51,-376.69 228.35,-380.81"/>
</g>
<!-- scene/plot.js -->
<g id="node13" class="node">
<title>scene/plot.js</title>
<g id="a_node13"><a xlink:href="scene/plot.js" xlink:title="plot.js">
<path fill="#ffffcc" stroke="black" d="M283.5,-412C283.5,-412 241.5,-412 241.5,-412 238.5,-412 235.5,-409 235.5,-406 235.5,-406 235.5,-400 235.5,-400 235.5,-397 238.5,-394 241.5,-394 241.5,-394 283.5,-394 283.5,-394 286.5,-394 289.5,-397 289.5,-400 289.5,-400 289.5,-406 289.5,-406 289.5,-409 286.5,-412 283.5,-412"/>
<text text-anchor="start" x="248.5" y="-400.8" font-family="Helvetica,sans-Serif" font-size="9.00">plot.js</text>
</a>
</g>
</g>
<!-- scene/graphicsManager.js&#45;&gt;scene/plot.js -->
<g id="edge12" class="edge">
<title>scene/graphicsManager.js&#45;&gt;scene/plot.js</title>
<path fill="none" stroke="#000000" stroke-width="2" stroke-opacity="0.200000" d="M177.54,-414.82C194.94,-412.37 213.9,-409.7 229.39,-407.52"/>
<polygon fill="#000000" fill-opacity="0.200000" stroke="#000000" stroke-width="2" stroke-opacity="0.200000" points="229.71,-409.59 235.36,-406.68 229.13,-405.44 229.71,-409.59"/>
</g>
<!-- scene/sceneComponents/capsulePool.js -->
<g id="node14" class="node">
<title>scene/sceneComponents/capsulePool.js</title>
<g id="a_node14"><a xlink:href="scene/sceneComponents/capsulePool.js" xlink:title="capsulePool.js">
<path fill="#ffffcc" stroke="black" d="M296,-523C296,-523 229,-523 229,-523 226,-523 223,-520 223,-517 223,-517 223,-511 223,-511 223,-508 226,-505 229,-505 229,-505 296,-505 296,-505 299,-505 302,-508 302,-511 302,-511 302,-517 302,-517 302,-520 299,-523 296,-523"/>
<text text-anchor="start" x="231" y="-511.8" font-family="Helvetica,sans-Serif" font-size="9.00">capsulePool.js</text>
</a>
</g>
</g>
<!-- scene/graphicsManager.js&#45;&gt;scene/sceneComponents/capsulePool.js -->
<g id="edge13" class="edge">
<title>scene/graphicsManager.js&#45;&gt;scene/sceneComponents/capsulePool.js</title>
<path fill="none" stroke="#000000" stroke-width="2" stroke-opacity="0.200000" d="M134.37,-431.39C146.15,-444.96 169.62,-470.17 194,-486 204.33,-492.71 216.53,-498.36 227.7,-502.78"/>
<polygon fill="#000000" fill-opacity="0.200000" stroke="#000000" stroke-width="2" stroke-opacity="0.200000" points="227.08,-504.79 233.43,-504.98 228.58,-500.87 227.08,-504.79"/>
</g>
<!-- scene/sceneComponents/mesh.js -->
<g id="node15" class="node">
<title>scene/sceneComponents/mesh.js</title>
<g id="a_node15"><a xlink:href="scene/sceneComponents/mesh.js" xlink:title="mesh.js">
<path fill="#ffffcc" stroke="black" d="M283.5,-480C283.5,-480 241.5,-480 241.5,-480 238.5,-480 235.5,-477 235.5,-474 235.5,-474 235.5,-468 235.5,-468 235.5,-465 238.5,-462 241.5,-462 241.5,-462 283.5,-462 283.5,-462 286.5,-462 289.5,-465 289.5,-468 289.5,-468 289.5,-474 289.5,-474 289.5,-477 286.5,-480 283.5,-480"/>
<text text-anchor="start" x="245" y="-468.8" font-family="Helvetica,sans-Serif" font-size="9.00">mesh.js</text>
</a>
</g>
</g>
<!-- scene/graphicsManager.js&#45;&gt;scene/sceneComponents/mesh.js -->
<g id="edge14" class="edge">
<title>scene/graphicsManager.js&#45;&gt;scene/sceneComponents/mesh.js</title>
<path fill="none" stroke="#000000" stroke-width="2" stroke-opacity="0.200000" d="M141.83,-431.11C155.21,-438.71 175.34,-449.34 194,-456 205.26,-460.02 217.97,-463.18 229.3,-465.54"/>
<polygon fill="#000000" fill-opacity="0.200000" stroke="#000000" stroke-width="2" stroke-opacity="0.200000" points="229.14,-467.65 235.43,-466.77 229.96,-463.53 229.14,-467.65"/>
</g>
<!-- scene/sceneComponents/stage.js -->
<g id="node16" class="node">
<title>scene/sceneComponents/stage.js</title>
<g id="a_node16"><a xlink:href="scene/sceneComponents/stage.js" xlink:title="stage.js">
<path fill="#ffffcc" stroke="black" d="M283.5,-450C283.5,-450 241.5,-450 241.5,-450 238.5,-450 235.5,-447 235.5,-444 235.5,-444 235.5,-438 235.5,-438 235.5,-435 238.5,-432 241.5,-432 241.5,-432 283.5,-432 283.5,-432 286.5,-432 289.5,-435 289.5,-438 289.5,-438 289.5,-444 289.5,-444 289.5,-447 286.5,-450 283.5,-450"/>
<text text-anchor="start" x="245" y="-438.8" font-family="Helvetica,sans-Serif" font-size="9.00">stage.js</text>
</a>
</g>
</g>
<!-- scene/graphicsManager.js&#45;&gt;scene/sceneComponents/stage.js -->
<g id="edge15" class="edge">
<title>scene/graphicsManager.js&#45;&gt;scene/sceneComponents/stage.js</title>
<path fill="none" stroke="#000000" stroke-width="2" stroke-opacity="0.200000" d="M177.54,-429.18C194.94,-431.63 213.9,-434.3 229.39,-436.48"/>
<polygon fill="#000000" fill-opacity="0.200000" stroke="#000000" stroke-width="2" stroke-opacity="0.200000" points="229.13,-438.56 235.36,-437.32 229.71,-434.41 229.13,-438.56"/>
</g>
<!-- simulation/signallingNetwork/signallingNetwork.js -->
<g id="node29" class="node">
<title>simulation/signallingNetwork/signallingNetwork.js</title>
<g id="a_node29"><a xlink:href="simulation/signallingNetwork/signallingNetwork.js" xlink:title="signallingNetwork.js">
<path fill="#ffffcc" stroke="black" d="M310,-203C310,-203 215,-203 215,-203 212,-203 209,-200 209,-197 209,-197 209,-191 209,-191 209,-188 212,-185 215,-185 215,-185 310,-185 310,-185 313,-185 316,-188 316,-191 316,-191 316,-197 316,-197 316,-200 313,-203 310,-203"/>
<text text-anchor="start" x="217" y="-191.8" font-family="Helvetica,sans-Serif" font-size="9.00">signallingNetwork.js</text>
</a>
</g>
</g>
<!-- simulation/simulationManager.js&#45;&gt;simulation/signallingNetwork/signallingNetwork.js -->
<g id="edge28" class="edge">
<title>simulation/simulationManager.js&#45;&gt;simulation/signallingNetwork/signallingNetwork.js</title>
<path fill="none" stroke="#000000" stroke-width="2" stroke-opacity="0.200000" d="M154.15,-228.99C175.39,-222.07 204.84,-212.47 227.52,-205.07"/>
<polygon fill="#000000" fill-opacity="0.200000" stroke="#000000" stroke-width="2" stroke-opacity="0.200000" points="228.37,-207.01 233.43,-203.15 227.07,-203.01 228.37,-207.01"/>
</g>
<!-- scene/plotOptions.js -->
<g id="node17" class="node">
<title>scene/plotOptions.js</title>
<g id="a_node17"><a xlink:href="scene/plotOptions.js" xlink:title="plotOptions.js">
<path fill="#ffffcc" stroke="black" d="M442.5,-412C442.5,-412 376.5,-412 376.5,-412 373.5,-412 370.5,-409 370.5,-406 370.5,-406 370.5,-400 370.5,-400 370.5,-397 373.5,-394 376.5,-394 376.5,-394 442.5,-394 442.5,-394 445.5,-394 448.5,-397 448.5,-400 448.5,-400 448.5,-406 448.5,-406 448.5,-409 445.5,-412 442.5,-412"/>
<text text-anchor="start" x="378.5" y="-400.8" font-family="Helvetica,sans-Serif" font-size="9.00">plotOptions.js</text>
</a>
</g>
</g>
<!-- scene/plot.js&#45;&gt;scene/plotOptions.js -->
<g id="edge16" class="edge">
<title>scene/plot.js&#45;&gt;scene/plotOptions.js</title>
<path fill="none" stroke="#000000" stroke-width="2" stroke-opacity="0.200000" d="M289.76,-403C310.52,-403 339.97,-403 364.35,-403"/>
<polygon fill="#000000" fill-opacity="0.200000" stroke="#000000" stroke-width="2" stroke-opacity="0.200000" points="364.43,-405.1 370.43,-403 364.43,-400.9 364.43,-405.1"/>
</g>
<!-- scene/sceneComponents/geometries.js -->
<g id="node18" class="node">
<title>scene/sceneComponents/geometries.js</title>
<g id="a_node18"><a xlink:href="scene/sceneComponents/geometries.js" xlink:title="geometries.js">
<path fill="#ffffcc" stroke="black" d="M442,-536C442,-536 377,-536 377,-536 374,-536 371,-533 371,-530 371,-530 371,-524 371,-524 371,-521 374,-518 377,-518 377,-518 442,-518 442,-518 445,-518 448,-521 448,-524 448,-524 448,-530 448,-530 448,-533 445,-536 442,-536"/>
<text text-anchor="start" x="379" y="-524.8" font-family="Helvetica,sans-Serif" font-size="9.00">geometries.js</text>
</a>
</g>
</g>
<!-- scene/sceneComponents/capsulePool.js&#45;&gt;scene/sceneComponents/geometries.js -->
<g id="edge17" class="edge">
<title>scene/sceneComponents/capsulePool.js&#45;&gt;scene/sceneComponents/geometries.js</title>
<path fill="none" stroke="#000000" stroke-width="2" stroke-opacity="0.200000" d="M302.36,-517.48C321.52,-519.2 344.7,-521.28 364.51,-523.06"/>
<polygon fill="#000000" fill-opacity="0.200000" stroke="#000000" stroke-width="2" stroke-opacity="0.200000" points="364.38,-525.15 370.54,-523.6 364.75,-520.97 364.38,-525.15"/>
</g>
<!-- scene/sceneComponents/stageComponetns/camera.js -->
<g id="node19" class="node">
<title>scene/sceneComponents/stageComponetns/camera.js</title>
<g id="a_node19"><a xlink:href="scene/sceneComponents/stageComponetns/camera.js" xlink:title="camera.js">
<path fill="#ffffcc" stroke="black" d="M433.5,-484C433.5,-484 385.5,-484 385.5,-484 382.5,-484 379.5,-481 379.5,-478 379.5,-478 379.5,-472 379.5,-472 379.5,-469 382.5,-466 385.5,-466 385.5,-466 433.5,-466 433.5,-466 436.5,-466 439.5,-469 439.5,-472 439.5,-472 439.5,-478 439.5,-478 439.5,-481 436.5,-484 433.5,-484"/>
<text text-anchor="start" x="387.5" y="-472.8" font-family="Helvetica,sans-Serif" font-size="9.00">camera.js</text>
</a>
</g>
</g>
<!-- scene/sceneComponents/stage.js&#45;&gt;scene/sceneComponents/stageComponetns/camera.js -->
<g id="edge18" class="edge">
<title>scene/sceneComponents/stage.js&#45;&gt;scene/sceneComponents/stageComponetns/camera.js</title>
<path fill="none" stroke="#000000" stroke-width="2" stroke-opacity="0.200000" d="M289.52,-446.52C302.08,-449.25 317.36,-452.67 331,-456 337.7,-457.64 339.31,-458.31 346,-460 354.79,-462.23 364.29,-464.55 373.18,-466.69"/>
<polygon fill="#000000" fill-opacity="0.200000" stroke="#000000" stroke-width="2" stroke-opacity="0.200000" points="372.89,-468.78 379.21,-468.13 373.86,-464.69 372.89,-468.78"/>
</g>
<!-- scene/sceneComponents/stageComponetns/renderer.js -->
<g id="node20" class="node">
<title>scene/sceneComponents/stageComponetns/renderer.js</title>
<g id="a_node20"><a xlink:href="scene/sceneComponents/stageComponetns/renderer.js" xlink:title="renderer.js">
<path fill="#ffffcc" stroke="black" d="M436,-454C436,-454 383,-454 383,-454 380,-454 377,-451 377,-448 377,-448 377,-442 377,-442 377,-439 380,-436 383,-436 383,-436 436,-436 436,-436 439,-436 442,-439 442,-442 442,-442 442,-448 442,-448 442,-451 439,-454 436,-454"/>
<text text-anchor="start" x="385" y="-442.8" font-family="Helvetica,sans-Serif" font-size="9.00">renderer.js</text>
</a>
</g>
</g>
<!-- scene/sceneComponents/stage.js&#45;&gt;scene/sceneComponents/stageComponetns/renderer.js -->
<g id="edge19" class="edge">
<title>scene/sceneComponents/stage.js&#45;&gt;scene/sceneComponents/stageComponetns/renderer.js</title>
<path fill="none" stroke="#000000" stroke-width="2" stroke-opacity="0.200000" d="M289.76,-441.72C312.33,-442.35 345.16,-443.25 370.58,-443.95"/>
<polygon fill="#000000" fill-opacity="0.200000" stroke="#000000" stroke-width="2" stroke-opacity="0.200000" points="370.82,-446.06 376.88,-444.13 370.94,-441.86 370.82,-446.06"/>
</g>
<!-- simulation/signallingNetwork/FTCS.js -->
<g id="node21" class="node">
<title>simulation/signallingNetwork/FTCS.js</title>
<g id="a_node21"><a xlink:href="simulation/signallingNetwork/FTCS.js" xlink:title="no&#45;orphans">
<path fill="#ccffcc" stroke="orange" d="M283.5,-255C283.5,-255 241.5,-255 241.5,-255 238.5,-255 235.5,-252 235.5,-249 235.5,-249 235.5,-243 235.5,-243 235.5,-240 238.5,-237 241.5,-237 241.5,-237 283.5,-237 283.5,-237 286.5,-237 289.5,-240 289.5,-243 289.5,-243 289.5,-249 289.5,-249 289.5,-252 286.5,-255 283.5,-255"/>
<text text-anchor="start" x="246" y="-243.8" font-family="Helvetica,sans-Serif" font-size="9.00" fill="orange">FTCS.js</text>
</a>
</g>
</g>
<!-- simulation/signallingNetwork/extracellular/ADI.js -->
<g id="node22" class="node">
<title>simulation/signallingNetwork/extracellular/ADI.js</title>
<g id="a_node22"><a xlink:href="simulation/signallingNetwork/extracellular/ADI.js" xlink:title="ADI.js">
<path fill="#ffffcc" stroke="black" d="M430.5,-140C430.5,-140 388.5,-140 388.5,-140 385.5,-140 382.5,-137 382.5,-134 382.5,-134 382.5,-128 382.5,-128 382.5,-125 385.5,-122 388.5,-122 388.5,-122 430.5,-122 430.5,-122 433.5,-122 436.5,-125 436.5,-128 436.5,-128 436.5,-134 436.5,-134 436.5,-137 433.5,-140 430.5,-140"/>
<text text-anchor="start" x="396.5" y="-128.8" font-family="Helvetica,sans-Serif" font-size="9.00">ADI.js</text>
</a>
</g>
</g>
<!-- simulation/signallingNetwork/extracellular/initArrays.js -->
<g id="node23" class="node">
<title>simulation/signallingNetwork/extracellular/initArrays.js</title>
<g id="a_node23"><a xlink:href="simulation/signallingNetwork/extracellular/initArrays.js" xlink:title="initArrays.js">
<path fill="#ffffcc" stroke="black" d="M576,-110C576,-110 519,-110 519,-110 516,-110 513,-107 513,-104 513,-104 513,-98 513,-98 513,-95 516,-92 519,-92 519,-92 576,-92 576,-92 579,-92 582,-95 582,-98 582,-98 582,-104 582,-104 582,-107 579,-110 576,-110"/>
<text text-anchor="start" x="521" y="-98.8" font-family="Helvetica,sans-Serif" font-size="9.00">initArrays.js</text>
</a>
</g>
</g>
<!-- simulation/signallingNetwork/extracellular/ADI.js&#45;&gt;simulation/signallingNetwork/extracellular/initArrays.js -->
<g id="edge20" class="edge">
<title>simulation/signallingNetwork/extracellular/ADI.js&#45;&gt;simulation/signallingNetwork/extracellular/initArrays.js</title>
<path fill="none" stroke="#000000" stroke-width="2" stroke-opacity="0.200000" d="M436.72,-125.22C456.56,-120.84 484.15,-114.75 506.7,-109.78"/>
<polygon fill="#000000" fill-opacity="0.200000" stroke="#000000" stroke-width="2" stroke-opacity="0.200000" points="507.21,-111.82 512.62,-108.47 506.31,-107.72 507.21,-111.82"/>
</g>
<!-- simulation/signallingNetwork/extracellular/thomasAlgorithm.js -->
<g id="node24" class="node">
<title>simulation/signallingNetwork/extracellular/thomasAlgorithm.js</title>
<g id="a_node24"><a xlink:href="simulation/signallingNetwork/extracellular/thomasAlgorithm.js" xlink:title="thomasAlgorithm.js">
<path fill="#ffffcc" stroke="black" d="M593.5,-140C593.5,-140 501.5,-140 501.5,-140 498.5,-140 495.5,-137 495.5,-134 495.5,-134 495.5,-128 495.5,-128 495.5,-125 498.5,-122 501.5,-122 501.5,-122 593.5,-122 593.5,-122 596.5,-122 599.5,-125 599.5,-128 599.5,-128 599.5,-134 599.5,-134 599.5,-137 596.5,-140 593.5,-140"/>
<text text-anchor="start" x="503.5" y="-128.8" font-family="Helvetica,sans-Serif" font-size="9.00">thomasAlgorithm.js</text>
</a>
</g>
</g>
<!-- simulation/signallingNetwork/extracellular/ADI.js&#45;&gt;simulation/signallingNetwork/extracellular/thomasAlgorithm.js -->
<g id="edge21" class="edge">
<title>simulation/signallingNetwork/extracellular/ADI.js&#45;&gt;simulation/signallingNetwork/extracellular/thomasAlgorithm.js</title>
<path fill="none" stroke="#000000" stroke-width="2" stroke-opacity="0.200000" d="M436.72,-131C451.63,-131 470.92,-131 489.15,-131"/>
<polygon fill="#000000" fill-opacity="0.200000" stroke="#000000" stroke-width="2" stroke-opacity="0.200000" points="489.29,-133.1 495.29,-131 489.29,-128.9 489.29,-133.1"/>
</g>
<!-- simulation/signallingNetwork/grid.js -->
<g id="node25" class="node">
<title>simulation/signallingNetwork/grid.js</title>
<g id="a_node25"><a xlink:href="simulation/signallingNetwork/grid.js" xlink:title="grid.js">
<path fill="#ffffcc" stroke="black" d="M430.5,-192C430.5,-192 388.5,-192 388.5,-192 385.5,-192 382.5,-189 382.5,-186 382.5,-186 382.5,-180 382.5,-180 382.5,-177 385.5,-174 388.5,-174 388.5,-174 430.5,-174 430.5,-174 433.5,-174 436.5,-177 436.5,-180 436.5,-180 436.5,-186 436.5,-186 436.5,-189 433.5,-192 430.5,-192"/>
<text text-anchor="start" x="395.5" y="-180.8" font-family="Helvetica,sans-Serif" font-size="9.00">grid.js</text>
</a>
</g>
</g>
<!-- simulation/signallingNetwork/intracellular/cytoplasmManager.js -->
<g id="node26" class="node">
<title>simulation/signallingNetwork/intracellular/cytoplasmManager.js</title>
<g id="a_node26"><a xlink:href="simulation/signallingNetwork/intracellular/cytoplasmManager.js" xlink:title="cytoplasmManager.js">
<path fill="#ffffcc" stroke="black" d="M459,-226C459,-226 360,-226 360,-226 357,-226 354,-223 354,-220 354,-220 354,-214 354,-214 354,-211 357,-208 360,-208 360,-208 459,-208 459,-208 462,-208 465,-211 465,-214 465,-214 465,-220 465,-220 465,-223 462,-226 459,-226"/>
<text text-anchor="start" x="362" y="-214.8" font-family="Helvetica,sans-Serif" font-size="9.00">cytoplasmManager.js</text>
</a>
</g>
</g>
<!-- simulation/signallingNetwork/intracellular/cytoplasmState.js -->
<g id="node27" class="node">
<title>simulation/signallingNetwork/intracellular/cytoplasmState.js</title>
<g id="a_node27"><a xlink:href="simulation/signallingNetwork/intracellular/cytoplasmState.js" xlink:title="cytoplasmState.js">
<path fill="#ffffcc" stroke="black" d="M706.5,-233C706.5,-233 621.5,-233 621.5,-233 618.5,-233 615.5,-230 615.5,-227 615.5,-227 615.5,-221 615.5,-221 615.5,-218 618.5,-215 621.5,-215 621.5,-215 706.5,-215 706.5,-215 709.5,-215 712.5,-218 712.5,-221 712.5,-221 712.5,-227 712.5,-227 712.5,-230 709.5,-233 706.5,-233"/>
<text text-anchor="start" x="623.5" y="-221.8" font-family="Helvetica,sans-Serif" font-size="9.00">cytoplasmState.js</text>
</a>
</g>
</g>
<!-- simulation/signallingNetwork/intracellular/cytoplasmManager.js&#45;&gt;simulation/signallingNetwork/intracellular/cytoplasmState.js -->
<g id="edge22" class="edge">
<title>simulation/signallingNetwork/intracellular/cytoplasmManager.js&#45;&gt;simulation/signallingNetwork/intracellular/cytoplasmState.js</title>
<path fill="none" stroke="#000000" stroke-width="2" stroke-opacity="0.200000" d="M465.35,-214.47C504.91,-213.2 559.57,-212.56 607.5,-216 607.97,-216.03 608.45,-216.07 608.93,-216.11"/>
<polygon fill="#000000" fill-opacity="0.200000" stroke="#000000" stroke-width="2" stroke-opacity="0.200000" points="609.05,-218.23 615.21,-216.67 609.43,-214.04 609.05,-218.23"/>
</g>
<!-- simulation/signallingNetwork/intracellular/cytoplasmUpdater.js -->
<g id="node28" class="node">
<title>simulation/signallingNetwork/intracellular/cytoplasmUpdater.js</title>
<g id="a_node28"><a xlink:href="simulation/signallingNetwork/intracellular/cytoplasmUpdater.js" xlink:title="cytoplasmUpdater.js">
<path fill="#ffffcc" stroke="black" d="M596,-240C596,-240 499,-240 499,-240 496,-240 493,-237 493,-234 493,-234 493,-228 493,-228 493,-225 496,-222 499,-222 499,-222 596,-222 596,-222 599,-222 602,-225 602,-228 602,-228 602,-234 602,-234 602,-237 599,-240 596,-240"/>
<text text-anchor="start" x="501" y="-228.8" font-family="Helvetica,sans-Serif" font-size="9.00">cytoplasmUpdater.js</text>
</a>
</g>
</g>
<!-- simulation/signallingNetwork/intracellular/cytoplasmManager.js&#45;&gt;simulation/signallingNetwork/intracellular/cytoplasmUpdater.js -->
<g id="edge23" class="edge">
<title>simulation/signallingNetwork/intracellular/cytoplasmManager.js&#45;&gt;simulation/signallingNetwork/intracellular/cytoplasmUpdater.js</title>
<path fill="none" stroke="#000000" stroke-width="2" stroke-opacity="0.200000" d="M465.03,-222.61C472.19,-223.35 479.56,-224.11 486.8,-224.85"/>
<polygon fill="#000000" fill-opacity="0.200000" stroke="#000000" stroke-width="2" stroke-opacity="0.200000" points="486.66,-226.95 492.84,-225.48 487.09,-222.77 486.66,-226.95"/>
</g>
<!-- simulation/signallingNetwork/intracellular/cytoplasmUpdater.js&#45;&gt;simulation/signallingNetwork/intracellular/cytoplasmState.js -->
<g id="edge24" class="edge">
<title>simulation/signallingNetwork/intracellular/cytoplasmUpdater.js&#45;&gt;simulation/signallingNetwork/intracellular/cytoplasmState.js</title>
<path fill="none" stroke="#000000" stroke-width="2" stroke-opacity="0.200000" d="M602.06,-227.73C604.41,-227.58 606.77,-227.44 609.12,-227.29"/>
<polygon fill="#000000" fill-opacity="0.200000" stroke="#000000" stroke-width="2" stroke-opacity="0.200000" points="609.45,-229.38 615.31,-226.92 609.2,-225.19 609.45,-229.38"/>
</g>
<!-- simulation/signallingNetwork/signallingNetwork.js&#45;&gt;simulation/signallingNetwork/extracellular/ADI.js -->
<g id="edge25" class="edge">
<title>simulation/signallingNetwork/signallingNetwork.js&#45;&gt;simulation/signallingNetwork/extracellular/ADI.js</title>
<path fill="none" stroke="#000000" stroke-width="2" stroke-opacity="0.200000" d="M275.39,-184.99C290.84,-173.71 319.04,-154.61 346,-144 355.57,-140.24 366.4,-137.49 376.34,-135.52"/>
<polygon fill="#000000" fill-opacity="0.200000" stroke="#000000" stroke-width="2" stroke-opacity="0.200000" points="376.87,-137.56 382.39,-134.4 376.1,-133.43 376.87,-137.56"/>
</g>
<!-- simulation/signallingNetwork/signallingNetwork.js&#45;&gt;simulation/signallingNetwork/grid.js -->
<g id="edge26" class="edge">
<title>simulation/signallingNetwork/signallingNetwork.js&#45;&gt;simulation/signallingNetwork/grid.js</title>
<path fill="none" stroke="#000000" stroke-width="2" stroke-opacity="0.200000" d="M316.26,-190C336.31,-188.48 358.54,-186.79 376.15,-185.45"/>
<polygon fill="#000000" fill-opacity="0.200000" stroke="#000000" stroke-width="2" stroke-opacity="0.200000" points="376.59,-187.53 382.42,-184.98 376.27,-183.34 376.59,-187.53"/>
</g>
<!-- simulation/signallingNetwork/signallingNetwork.js&#45;&gt;simulation/signallingNetwork/intracellular/cytoplasmManager.js -->
<g id="edge27" class="edge">
<title>simulation/signallingNetwork/signallingNetwork.js&#45;&gt;simulation/signallingNetwork/intracellular/cytoplasmManager.js</title>
<path fill="none" stroke="#000000" stroke-width="2" stroke-opacity="0.200000" d="M316.26,-202.37C326.41,-203.98 337.12,-205.68 347.51,-207.33"/>
<polygon fill="#000000" fill-opacity="0.200000" stroke="#000000" stroke-width="2" stroke-opacity="0.200000" points="347.33,-209.42 353.59,-208.29 347.99,-205.28 347.33,-209.42"/>
</g>
</g>
</svg>
