<?xml version="1.0" encoding="UTF-8" standalone="no"?>
<!DOCTYPE svg PUBLIC "-//W3C//DTD SVG 1.1//EN"
 "http://www.w3.org/Graphics/SVG/1.1/DTD/svg11.dtd">
<!-- Generated by graphviz version 2.43.0 (0)
 -->
<!-- Title: dependency&#45;cruiser output Pages: 1 -->
<svg width="756pt" height="750pt"
 viewBox="0.00 0.00 756.00 750.00" xmlns="http://www.w3.org/2000/svg" xmlns:xlink="http://www.w3.org/1999/xlink">
<g id="graph0" class="graph" transform="scale(1 1) rotate(0) translate(4 746)">
<title>dependency&#45;cruiser output</title>
<polygon fill="white" stroke="transparent" points="-4,4 -4,-746 752,-746 752,4 -4,4"/>
<g id="clust1" class="cluster">
<title>cluster_GUI</title>
<path fill="#ffffff" stroke="black" stroke-width="2" d="M81.5,-652C81.5,-652 453.5,-652 453.5,-652 459.5,-652 465.5,-658 465.5,-664 465.5,-664 465.5,-722 465.5,-722 465.5,-728 459.5,-734 453.5,-734 453.5,-734 81.5,-734 81.5,-734 75.5,-734 69.5,-728 69.5,-722 69.5,-722 69.5,-664 69.5,-664 69.5,-658 75.5,-652 81.5,-652"/>
<text text-anchor="middle" x="267.5" y="-722.8" font-family="Helvetica,sans-Serif" font-weight="bold" font-size="9.00">GUI</text>
</g>
<g id="clust2" class="cluster">
<title>cluster_scene</title>
<path fill="#ffffff" stroke="black" stroke-width="2" d="M77.5,-356C77.5,-356 469,-356 469,-356 475,-356 481,-362 481,-368 481,-368 481,-606 481,-606 481,-612 475,-618 469,-618 469,-618 77.5,-618 77.5,-618 71.5,-618 65.5,-612 65.5,-606 65.5,-606 65.5,-368 65.5,-368 65.5,-362 71.5,-356 77.5,-356"/>
<text text-anchor="middle" x="273.25" y="-606.8" font-family="Helvetica,sans-Serif" font-weight="bold" font-size="9.00">scene</text>
</g>
<g id="clust3" class="cluster">
<title>cluster_scene/sceneComponents</title>
<path fill="#ffffff" stroke="black" stroke-width="2" d="M227,-450C227,-450 461,-450 461,-450 467,-450 473,-456 473,-462 473,-462 473,-580 473,-580 473,-586 467,-592 461,-592 461,-592 227,-592 227,-592 221,-592 215,-586 215,-580 215,-580 215,-462 215,-462 215,-456 221,-450 227,-450"/>
<text text-anchor="middle" x="344" y="-580.8" font-family="Helvetica,sans-Serif" font-weight="bold" font-size="9.00">sceneComponents</text>
</g>
<g id="clust4" class="cluster">
<title>cluster_scene/sceneComponents/stageComponetns</title>
<path fill="#ffffff" stroke="black" stroke-width="2" d="M367,-458C367,-458 453,-458 453,-458 459,-458 465,-464 465,-470 465,-470 465,-528 465,-528 465,-534 459,-540 453,-540 453,-540 367,-540 367,-540 361,-540 355,-534 355,-528 355,-528 355,-470 355,-470 355,-464 361,-458 367,-458"/>
<text text-anchor="middle" x="410" y="-528.8" font-family="Helvetica,sans-Serif" font-weight="bold" font-size="9.00">stageComponetns</text>
</g>
<g id="clust5" class="cluster">
<title>cluster_simulation</title>
<path fill="#ffffff" stroke="black" stroke-width="2" d="M74,-68C74,-68 728,-68 728,-68 734,-68 740,-74 740,-80 740,-80 740,-336 740,-336 740,-342 734,-348 728,-348 728,-348 74,-348 74,-348 68,-348 62,-342 62,-336 62,-336 62,-80 62,-80 62,-74 68,-68 74,-68"/>
<text text-anchor="middle" x="401" y="-336.8" font-family="Helvetica,sans-Serif" font-weight="bold" font-size="9.00">simulation</text>
</g>
<g id="clust6" class="cluster">
<title>cluster_simulation/signallingNetwork</title>
<path fill="#ffffff" stroke="black" stroke-width="2" d="M213,-76C213,-76 720,-76 720,-76 726,-76 732,-82 732,-88 732,-88 732,-310 732,-310 732,-316 726,-322 720,-322 720,-322 213,-322 213,-322 207,-322 201,-316 201,-310 201,-310 201,-88 201,-88 201,-82 207,-76 213,-76"/>
<text text-anchor="middle" x="466.5" y="-310.8" font-family="Helvetica,sans-Serif" font-weight="bold" font-size="9.00">signallingNetwork</text>
</g>
<g id="clust7" class="cluster">
<title>cluster_simulation/signallingNetwork/extracellular</title>
<path fill="#ffffff" stroke="black" stroke-width="2" d="M386.5,-84C386.5,-84 597.5,-84 597.5,-84 603.5,-84 609.5,-90 609.5,-96 609.5,-96 609.5,-154 609.5,-154 609.5,-160 603.5,-166 597.5,-166 597.5,-166 386.5,-166 386.5,-166 380.5,-166 374.5,-160 374.5,-154 374.5,-154 374.5,-96 374.5,-96 374.5,-90 380.5,-84 386.5,-84"/>
<text text-anchor="middle" x="492" y="-154.8" font-family="Helvetica,sans-Serif" font-weight="bold" font-size="9.00">extracellular</text>
</g>
<g id="clust8" class="cluster">
<title>cluster_simulation/signallingNetwork/intracellular</title>
<path fill="#ffffff" stroke="black" stroke-width="2" d="M358,-200C358,-200 712,-200 712,-200 718,-200 724,-206 724,-212 724,-212 724,-284 724,-284 724,-290 718,-296 712,-296 712,-296 358,-296 358,-296 352,-296 346,-290 346,-284 346,-284 346,-212 346,-212 346,-206 352,-200 358,-200"/>
<text text-anchor="middle" x="535" y="-284.8" font-family="Helvetica,sans-Serif" font-weight="bold" font-size="9.00">intracellular</text>
</g>
<g id="clust9" class="cluster">
<title>cluster_state</title>
<path fill="#ffffff" stroke="black" stroke-width="2" d="M86,-8C86,-8 165,-8 165,-8 171,-8 177,-14 177,-20 177,-20 177,-48 177,-48 177,-54 171,-60 165,-60 165,-60 86,-60 86,-60 80,-60 74,-54 74,-48 74,-48 74,-20 74,-20 74,-14 80,-8 86,-8"/>
<text text-anchor="middle" x="125.5" y="-48.8" font-family="Helvetica,sans-Serif" font-weight="bold" font-size="9.00">state</text>
</g>
<!-- GUI/controlManager.js -->
<g id="node1" class="node">
<title>GUI/controlManager.js</title>
<g id="a_node1"><a xlink:href="GUI/controlManager.js" xlink:title="controlManager.js">
<path fill="#ffffcc" stroke="black" d="M167.5,-678C167.5,-678 83.5,-678 83.5,-678 80.5,-678 77.5,-675 77.5,-672 77.5,-672 77.5,-666 77.5,-666 77.5,-663 80.5,-660 83.5,-660 83.5,-660 167.5,-660 167.5,-660 170.5,-660 173.5,-663 173.5,-666 173.5,-666 173.5,-672 173.5,-672 173.5,-675 170.5,-678 167.5,-678"/>
<text text-anchor="start" x="85.5" y="-666.8" font-family="Helvetica,sans-Serif" font-size="9.00">controlManager.js</text>
</a>
</g>
</g>
<!-- GUI/sessionTab.js -->
<g id="node2" class="node">
<title>GUI/sessionTab.js</title>
<g id="a_node2"><a xlink:href="GUI/sessionTab.js" xlink:title="sessionTab.js">
<path fill="#ffffcc" stroke="black" d="M293.5,-678C293.5,-678 231.5,-678 231.5,-678 228.5,-678 225.5,-675 225.5,-672 225.5,-672 225.5,-666 225.5,-666 225.5,-663 228.5,-660 231.5,-660 231.5,-660 293.5,-660 293.5,-660 296.5,-660 299.5,-663 299.5,-666 299.5,-666 299.5,-672 299.5,-672 299.5,-675 296.5,-678 293.5,-678"/>
<text text-anchor="start" x="233.5" y="-666.8" font-family="Helvetica,sans-Serif" font-size="9.00">sessionTab.js</text>
</a>
</g>
</g>
<!-- GUI/controlManager.js&#45;&gt;GUI/sessionTab.js -->
<g id="edge1" class="edge">
<title>GUI/controlManager.js&#45;&gt;GUI/sessionTab.js</title>
<path fill="none" stroke="#000000" stroke-width="2" stroke-opacity="0.200000" d="M173.72,-669C188.49,-669 204.68,-669 219.1,-669"/>
<polygon fill="#000000" fill-opacity="0.200000" stroke="#000000" stroke-width="2" stroke-opacity="0.200000" points="219.16,-671.1 225.16,-669 219.16,-666.9 219.16,-671.1"/>
</g>
<!-- GUI/signallingTab.js -->
<g id="node3" class="node">
<title>GUI/signallingTab.js</title>
<g id="a_node3"><a xlink:href="GUI/signallingTab.js" xlink:title="signallingTab.js">
<path fill="#ffffcc" stroke="black" d="M298.5,-708C298.5,-708 226.5,-708 226.5,-708 223.5,-708 220.5,-705 220.5,-702 220.5,-702 220.5,-696 220.5,-696 220.5,-693 223.5,-690 226.5,-690 226.5,-690 298.5,-690 298.5,-690 301.5,-690 304.5,-693 304.5,-696 304.5,-696 304.5,-702 304.5,-702 304.5,-705 301.5,-708 298.5,-708"/>
<text text-anchor="start" x="228.5" y="-696.8" font-family="Helvetica,sans-Serif" font-size="9.00">signallingTab.js</text>
</a>
</g>
</g>
<!-- GUI/controlManager.js&#45;&gt;GUI/signallingTab.js -->
<g id="edge2" class="edge">
<title>GUI/controlManager.js&#45;&gt;GUI/signallingTab.js</title>
<path fill="none" stroke="#000000" stroke-width="2" stroke-opacity="0.200000" d="M167,-678C181.95,-681.32 199.01,-685.11 214.49,-688.55"/>
<polygon fill="#000000" fill-opacity="0.200000" stroke="#000000" stroke-width="2" stroke-opacity="0.200000" points="214.24,-690.65 220.56,-689.9 215.16,-686.55 214.24,-690.65"/>
</g>
<!-- GUI/dataProcessor.js -->
<g id="node4" class="node">
<title>GUI/dataProcessor.js</title>
<g id="a_node4"><a xlink:href="GUI/dataProcessor.js" xlink:title="dataProcessor.js">
<path fill="#ffffcc" stroke="black" d="M448,-678C448,-678 371,-678 371,-678 368,-678 365,-675 365,-672 365,-672 365,-666 365,-666 365,-663 368,-660 371,-660 371,-660 448,-660 448,-660 451,-660 454,-663 454,-666 454,-666 454,-672 454,-672 454,-675 451,-678 448,-678"/>
<text text-anchor="start" x="373" y="-666.8" font-family="Helvetica,sans-Serif" font-size="9.00">dataProcessor.js</text>
</a>
</g>
</g>
<!-- GUI/sessionTab.js&#45;&gt;GUI/dataProcessor.js -->
<g id="edge3" class="edge">
<title>GUI/sessionTab.js&#45;&gt;GUI/dataProcessor.js</title>
<path fill="none" stroke="#000000" stroke-width="2" stroke-opacity="0.200000" d="M299.72,-669C317.5,-669 339.22,-669 358.55,-669"/>
<polygon fill="#000000" fill-opacity="0.200000" stroke="#000000" stroke-width="2" stroke-opacity="0.200000" points="358.74,-671.1 364.74,-669 358.74,-666.9 358.74,-671.1"/>
</g>
<!-- GUI/visualizationTab.js -->
<g id="node5" class="node">
<title>GUI/visualizationTab.js</title>
<g id="a_node5"><a xlink:href="GUI/visualizationTab.js" xlink:title="visualizationTab.js">
<path fill="#ffffcc" stroke="black" d="M451.5,-708C451.5,-708 367.5,-708 367.5,-708 364.5,-708 361.5,-705 361.5,-702 361.5,-702 361.5,-696 361.5,-696 361.5,-693 364.5,-690 367.5,-690 367.5,-690 451.5,-690 451.5,-690 454.5,-690 457.5,-693 457.5,-696 457.5,-696 457.5,-702 457.5,-702 457.5,-705 454.5,-708 451.5,-708"/>
<text text-anchor="start" x="369.5" y="-696.8" font-family="Helvetica,sans-Serif" font-size="9.00">visualizationTab.js</text>
</a>
</g>
</g>
<!-- GUI/signallingTab.js&#45;&gt;GUI/visualizationTab.js -->
<g id="edge4" class="edge">
<title>GUI/signallingTab.js&#45;&gt;GUI/visualizationTab.js</title>
<path fill="none" stroke="#000000" stroke-width="2" stroke-opacity="0.200000" d="M304.66,-699C320.4,-699 338.57,-699 355.27,-699"/>
<polygon fill="#000000" fill-opacity="0.200000" stroke="#000000" stroke-width="2" stroke-opacity="0.200000" points="355.35,-701.1 361.35,-699 355.35,-696.9 355.35,-701.1"/>
</g>
<!-- config.js -->
<g id="node6" class="node">
<title>config.js</title>
<g id="a_node6"><a xlink:href="config.js" xlink:title="config.js">
<path fill="#ffffcc" stroke="black" d="M147,-644C147,-644 104,-644 104,-644 101,-644 98,-641 98,-638 98,-638 98,-632 98,-632 98,-629 101,-626 104,-626 104,-626 147,-626 147,-626 150,-626 153,-629 153,-632 153,-632 153,-638 153,-638 153,-641 150,-644 147,-644"/>
<text text-anchor="middle" x="125.5" y="-632.8" font-family="Helvetica,sans-Serif" font-size="9.00">config.js</text>
</a>
</g>
</g>
<!-- main.js -->
<g id="node7" class="node">
<title>main.js</title>
<g id="a_node7"><a xlink:href="main.js" xlink:title="main.js">
<path fill="#ffffcc" stroke="black" d="M48,-461C48,-461 6,-461 6,-461 3,-461 0,-458 0,-455 0,-455 0,-449 0,-449 0,-446 3,-443 6,-443 6,-443 48,-443 48,-443 51,-443 54,-446 54,-449 54,-449 54,-455 54,-455 54,-458 51,-461 48,-461"/>
<text text-anchor="middle" x="27" y="-449.8" font-family="Helvetica,sans-Serif" font-size="9.00">main.js</text>
</a>
</g>
</g>
<!-- main.js&#45;&gt;GUI/controlManager.js -->
<g id="edge6" class="edge">
<title>main.js&#45;&gt;GUI/controlManager.js</title>
<path fill="none" stroke="#000000" stroke-width="2" stroke-opacity="0.200000" d="M28.34,-461.42C29.81,-496.82 36.73,-621.36 62,-650 64.82,-653.2 68.17,-655.87 71.82,-658.1"/>
<polygon fill="#000000" fill-opacity="0.200000" stroke="#000000" stroke-width="2" stroke-opacity="0.200000" points="71.07,-660.08 77.36,-661.05 73.05,-656.37 71.07,-660.08"/>
</g>
<!-- main.js&#45;&gt;config.js -->
<g id="edge5" class="edge">
<title>main.js&#45;&gt;config.js</title>
<path fill="none" stroke="#000000" stroke-width="2" stroke-opacity="0.200000" d="M28.58,-461.4C30.73,-493.47 39.4,-597.9 62,-621 69.81,-628.98 81.11,-632.85 91.95,-634.62"/>
<polygon fill="#000000" fill-opacity="0.200000" stroke="#000000" stroke-width="2" stroke-opacity="0.200000" points="91.69,-636.7 97.91,-635.39 92.23,-632.53 91.69,-636.7"/>
</g>
<!-- scene/graphicsManager.js -->
<g id="node8" class="node">
<title>scene/graphicsManager.js</title>
<g id="a_node8"><a xlink:href="scene/graphicsManager.js" xlink:title="graphicsManager.js">
<path fill="#ffffcc" stroke="black" d="M171.5,-461C171.5,-461 79.5,-461 79.5,-461 76.5,-461 73.5,-458 73.5,-455 73.5,-455 73.5,-449 73.5,-449 73.5,-446 76.5,-443 79.5,-443 79.5,-443 171.5,-443 171.5,-443 174.5,-443 177.5,-446 177.5,-449 177.5,-449 177.5,-455 177.5,-455 177.5,-458 174.5,-461 171.5,-461"/>
<text text-anchor="start" x="81.5" y="-449.8" font-family="Helvetica,sans-Serif" font-size="9.00">graphicsManager.js</text>
</a>
</g>
</g>
<!-- main.js&#45;&gt;scene/graphicsManager.js -->
<g id="edge7" class="edge">
<title>main.js&#45;&gt;scene/graphicsManager.js</title>
<path fill="none" stroke="#000000" stroke-width="2" stroke-opacity="0.200000" d="M54.11,-452C58.26,-452 62.68,-452 67.21,-452"/>
<polygon fill="#000000" fill-opacity="0.200000" stroke="#000000" stroke-width="2" stroke-opacity="0.200000" points="67.45,-454.1 73.45,-452 67.45,-449.9 67.45,-454.1"/>
</g>
<!-- simulation/simulationManager.js -->
<g id="node9" class="node">
<title>simulation/simulationManager.js</title>
<g id="a_node9"><a xlink:href="simulation/simulationManager.js" xlink:title="simulationManager.js">
<path fill="#ffffcc" stroke="black" d="M175,-266C175,-266 76,-266 76,-266 73,-266 70,-263 70,-260 70,-260 70,-254 70,-254 70,-251 73,-248 76,-248 76,-248 175,-248 175,-248 178,-248 181,-251 181,-254 181,-254 181,-260 181,-260 181,-263 178,-266 175,-266"/>
<text text-anchor="start" x="78" y="-254.8" font-family="Helvetica,sans-Serif" font-size="9.00">simulationManager.js</text>
</a>
</g>
</g>
<!-- main.js&#45;&gt;simulation/simulationManager.js -->
<g id="edge8" class="edge">
<title>main.js&#45;&gt;simulation/simulationManager.js</title>
<path fill="none" stroke="#000000" stroke-width="2" stroke-opacity="0.200000" d="M30.3,-442.97C34.99,-425.2 46.54,-384.68 62,-353 77.02,-322.22 100.11,-289.42 113.62,-271.24"/>
<polygon fill="#000000" fill-opacity="0.200000" stroke="#000000" stroke-width="2" stroke-opacity="0.200000" points="115.56,-272.14 117.48,-266.08 112.2,-269.62 115.56,-272.14"/>
</g>
<!-- state/stateManager.js -->
<g id="node10" class="node">
<title>state/stateManager.js</title>
<g id="a_node10"><a xlink:href="state/stateManager.js" xlink:title="stateManager.js">
<path fill="#ffffcc" stroke="black" d="M163,-34C163,-34 88,-34 88,-34 85,-34 82,-31 82,-28 82,-28 82,-22 82,-22 82,-19 85,-16 88,-16 88,-16 163,-16 163,-16 166,-16 169,-19 169,-22 169,-22 169,-28 169,-28 169,-31 166,-34 163,-34"/>
<text text-anchor="start" x="90" y="-22.8" font-family="Helvetica,sans-Serif" font-size="9.00">stateManager.js</text>
</a>
</g>
</g>
<!-- main.js&#45;&gt;state/stateManager.js -->
<g id="edge9" class="edge">
<title>main.js&#45;&gt;state/stateManager.js</title>
<path fill="none" stroke="#000000" stroke-width="2" stroke-opacity="0.200000" d="M28.32,-442.96C30.33,-387.86 41.78,-98.39 62,-65 69.52,-52.58 82.54,-43.34 94.75,-36.89"/>
<polygon fill="#000000" fill-opacity="0.200000" stroke="#000000" stroke-width="2" stroke-opacity="0.200000" points="95.86,-38.68 100.29,-34.12 93.98,-34.93 95.86,-38.68"/>
</g>
<!-- scene/graphycLibrariesImports.js -->
<g id="node11" class="node">
<title>scene/graphycLibrariesImports.js</title>
<g id="a_node11"><a xlink:href="scene/graphycLibrariesImports.js" xlink:title="graphycLibrariesImports.js">
<path fill="#ffffcc" stroke="black" d="M325,-382C325,-382 200,-382 200,-382 197,-382 194,-379 194,-376 194,-376 194,-370 194,-370 194,-367 197,-364 200,-364 200,-364 325,-364 325,-364 328,-364 331,-367 331,-370 331,-370 331,-376 331,-376 331,-379 328,-382 325,-382"/>
<text text-anchor="start" x="202" y="-370.8" font-family="Helvetica,sans-Serif" font-size="9.00">graphycLibrariesImports.js</text>
</a>
</g>
</g>
<!-- scene/graphicsManager.js&#45;&gt;scene/graphycLibrariesImports.js -->
<g id="edge10" class="edge">
<title>scene/graphicsManager.js&#45;&gt;scene/graphycLibrariesImports.js</title>
<path fill="none" stroke="#000000" stroke-width="2" stroke-opacity="0.200000" d="M133.29,-442.97C144.37,-428.91 167.76,-401.95 194,-388 196.58,-386.63 199.28,-385.38 202.05,-384.25"/>
<polygon fill="#000000" fill-opacity="0.200000" stroke="#000000" stroke-width="2" stroke-opacity="0.200000" points="202.96,-386.15 207.84,-382.08 201.48,-382.22 202.96,-386.15"/>
</g>
<!-- scene/overlay.js -->
<g id="node12" class="node">
<title>scene/overlay.js</title>
<g id="a_node12"><a xlink:href="scene/overlay.js" xlink:title="overlay.js">
<path fill="#ffffcc" stroke="black" d="M285,-412C285,-412 240,-412 240,-412 237,-412 234,-409 234,-406 234,-406 234,-400 234,-400 234,-397 237,-394 240,-394 240,-394 285,-394 285,-394 288,-394 291,-397 291,-400 291,-400 291,-406 291,-406 291,-409 288,-412 285,-412"/>
<text text-anchor="start" x="242" y="-400.8" font-family="Helvetica,sans-Serif" font-size="9.00">overlay.js</text>
</a>
</g>
</g>
<!-- scene/graphicsManager.js&#45;&gt;scene/overlay.js -->
<g id="edge11" class="edge">
<title>scene/graphicsManager.js&#45;&gt;scene/overlay.js</title>
<path fill="none" stroke="#000000" stroke-width="2" stroke-opacity="0.200000" d="M141.83,-442.89C155.21,-435.29 175.34,-424.66 194,-418 204.78,-414.15 216.89,-411.09 227.85,-408.76"/>
<polygon fill="#000000" fill-opacity="0.200000" stroke="#000000" stroke-width="2" stroke-opacity="0.200000" points="228.35,-410.81 233.8,-407.55 227.51,-406.69 228.35,-410.81"/>
</g>
<!-- scene/plot.js -->
<g id="node13" class="node">
<title>scene/plot.js</title>
<g id="a_node13"><a xlink:href="scene/plot.js" xlink:title="plot.js">
<path fill="#ffffcc" stroke="black" d="M283.5,-442C283.5,-442 241.5,-442 241.5,-442 238.5,-442 235.5,-439 235.5,-436 235.5,-436 235.5,-430 235.5,-430 235.5,-427 238.5,-424 241.5,-424 241.5,-424 283.5,-424 283.5,-424 286.5,-424 289.5,-427 289.5,-430 289.5,-430 289.5,-436 289.5,-436 289.5,-439 286.5,-442 283.5,-442"/>
<text text-anchor="start" x="248.5" y="-430.8" font-family="Helvetica,sans-Serif" font-size="9.00">plot.js</text>
</a>
</g>
</g>
<!-- scene/graphicsManager.js&#45;&gt;scene/plot.js -->
<g id="edge12" class="edge">
<title>scene/graphicsManager.js&#45;&gt;scene/plot.js</title>
<path fill="none" stroke="#000000" stroke-width="2" stroke-opacity="0.200000" d="M177.54,-444.82C194.94,-442.37 213.9,-439.7 229.39,-437.52"/>
<polygon fill="#000000" fill-opacity="0.200000" stroke="#000000" stroke-width="2" stroke-opacity="0.200000" points="229.71,-439.59 235.36,-436.68 229.13,-435.44 229.71,-439.59"/>
</g>
<!-- scene/sceneComponents/capsulePool.js -->
<g id="node14" class="node">
<title>scene/sceneComponents/capsulePool.js</title>
<g id="a_node14"><a xlink:href="scene/sceneComponents/capsulePool.js" xlink:title="capsulePool.js">
<path fill="#ffffcc" stroke="black" d="M296,-553C296,-553 229,-553 229,-553 226,-553 223,-550 223,-547 223,-547 223,-541 223,-541 223,-538 226,-535 229,-535 229,-535 296,-535 296,-535 299,-535 302,-538 302,-541 302,-541 302,-547 302,-547 302,-550 299,-553 296,-553"/>
<text text-anchor="start" x="231" y="-541.8" font-family="Helvetica,sans-Serif" font-size="9.00">capsulePool.js</text>
</a>
</g>
</g>
<!-- scene/graphicsManager.js&#45;&gt;scene/sceneComponents/capsulePool.js -->
<g id="edge13" class="edge">
<title>scene/graphicsManager.js&#45;&gt;scene/sceneComponents/capsulePool.js</title>
<path fill="none" stroke="#000000" stroke-width="2" stroke-opacity="0.200000" d="M134.37,-461.39C146.15,-474.96 169.62,-500.17 194,-516 204.33,-522.71 216.53,-528.36 227.7,-532.78"/>
<polygon fill="#000000" fill-opacity="0.200000" stroke="#000000" stroke-width="2" stroke-opacity="0.200000" points="227.08,-534.79 233.43,-534.98 228.58,-530.87 227.08,-534.79"/>
</g>
<!-- scene/sceneComponents/mesh.js -->
<g id="node15" class="node">
<title>scene/sceneComponents/mesh.js</title>
<g id="a_node15"><a xlink:href="scene/sceneComponents/mesh.js" xlink:title="mesh.js">
<path fill="#ffffcc" stroke="black" d="M283.5,-510C283.5,-510 241.5,-510 241.5,-510 238.5,-510 235.5,-507 235.5,-504 235.5,-504 235.5,-498 235.5,-498 235.5,-495 238.5,-492 241.5,-492 241.5,-492 283.5,-492 283.5,-492 286.5,-492 289.5,-495 289.5,-498 289.5,-498 289.5,-504 289.5,-504 289.5,-507 286.5,-510 283.5,-510"/>
<text text-anchor="start" x="245" y="-498.8" font-family="Helvetica,sans-Serif" font-size="9.00">mesh.js</text>
</a>
</g>
</g>
<!-- scene/graphicsManager.js&#45;&gt;scene/sceneComponents/mesh.js -->
<g id="edge14" class="edge">
<title>scene/graphicsManager.js&#45;&gt;scene/sceneComponents/mesh.js</title>
<path fill="none" stroke="#000000" stroke-width="2" stroke-opacity="0.200000" d="M141.83,-461.11C155.21,-468.71 175.34,-479.34 194,-486 205.26,-490.02 217.97,-493.18 229.3,-495.54"/>
<polygon fill="#000000" fill-opacity="0.200000" stroke="#000000" stroke-width="2" stroke-opacity="0.200000" points="229.14,-497.65 235.43,-496.77 229.96,-493.53 229.14,-497.65"/>
</g>
<!-- scene/sceneComponents/stage.js -->
<g id="node16" class="node">
<title>scene/sceneComponents/stage.js</title>
<g id="a_node16"><a xlink:href="scene/sceneComponents/stage.js" xlink:title="stage.js">
<path fill="#ffffcc" stroke="black" d="M283.5,-480C283.5,-480 241.5,-480 241.5,-480 238.5,-480 235.5,-477 235.5,-474 235.5,-474 235.5,-468 235.5,-468 235.5,-465 238.5,-462 241.5,-462 241.5,-462 283.5,-462 283.5,-462 286.5,-462 289.5,-465 289.5,-468 289.5,-468 289.5,-474 289.5,-474 289.5,-477 286.5,-480 283.5,-480"/>
<text text-anchor="start" x="245" y="-468.8" font-family="Helvetica,sans-Serif" font-size="9.00">stage.js</text>
</a>
</g>
</g>
<!-- scene/graphicsManager.js&#45;&gt;scene/sceneComponents/stage.js -->
<g id="edge15" class="edge">
<title>scene/graphicsManager.js&#45;&gt;scene/sceneComponents/stage.js</title>
<path fill="none" stroke="#000000" stroke-width="2" stroke-opacity="0.200000" d="M177.54,-459.18C194.94,-461.63 213.9,-464.3 229.39,-466.48"/>
<polygon fill="#000000" fill-opacity="0.200000" stroke="#000000" stroke-width="2" stroke-opacity="0.200000" points="229.13,-468.56 235.36,-467.32 229.71,-464.41 229.13,-468.56"/>
</g>
<!-- simulation/signallingNetwork/signallingNetwork.js -->
<g id="node30" class="node">
<title>simulation/signallingNetwork/signallingNetwork.js</title>
<g id="a_node30"><a xlink:href="simulation/signallingNetwork/signallingNetwork.js" xlink:title="signallingNetwork.js">
<path fill="#ffffcc" stroke="black" d="M310,-210C310,-210 215,-210 215,-210 212,-210 209,-207 209,-204 209,-204 209,-198 209,-198 209,-195 212,-192 215,-192 215,-192 310,-192 310,-192 313,-192 316,-195 316,-198 316,-198 316,-204 316,-204 316,-207 313,-210 310,-210"/>
<text text-anchor="start" x="217" y="-198.8" font-family="Helvetica,sans-Serif" font-size="9.00">signallingNetwork.js</text>
</a>
</g>
</g>
<!-- simulation/simulationManager.js&#45;&gt;simulation/signallingNetwork/signallingNetwork.js -->
<g id="edge30" class="edge">
<title>simulation/simulationManager.js&#45;&gt;simulation/signallingNetwork/signallingNetwork.js</title>
<path fill="none" stroke="#000000" stroke-width="2" stroke-opacity="0.200000" d="M148.49,-247.88C171.73,-238.24 208.45,-223.01 233.68,-212.54"/>
<polygon fill="#000000" fill-opacity="0.200000" stroke="#000000" stroke-width="2" stroke-opacity="0.200000" points="234.78,-214.36 239.52,-210.12 233.17,-210.48 234.78,-214.36"/>
</g>
<!-- scene/plotOptions.js -->
<g id="node17" class="node">
<title>scene/plotOptions.js</title>
<g id="a_node17"><a xlink:href="scene/plotOptions.js" xlink:title="plotOptions.js">
<path fill="#ffffcc" stroke="black" d="M442.5,-442C442.5,-442 376.5,-442 376.5,-442 373.5,-442 370.5,-439 370.5,-436 370.5,-436 370.5,-430 370.5,-430 370.5,-427 373.5,-424 376.5,-424 376.5,-424 442.5,-424 442.5,-424 445.5,-424 448.5,-427 448.5,-430 448.5,-430 448.5,-436 448.5,-436 448.5,-439 445.5,-442 442.5,-442"/>
<text text-anchor="start" x="378.5" y="-430.8" font-family="Helvetica,sans-Serif" font-size="9.00">plotOptions.js</text>
</a>
</g>
</g>
<!-- scene/plot.js&#45;&gt;scene/plotOptions.js -->
<g id="edge16" class="edge">
<title>scene/plot.js&#45;&gt;scene/plotOptions.js</title>
<path fill="none" stroke="#000000" stroke-width="2" stroke-opacity="0.200000" d="M289.76,-433C310.52,-433 339.97,-433 364.35,-433"/>
<polygon fill="#000000" fill-opacity="0.200000" stroke="#000000" stroke-width="2" stroke-opacity="0.200000" points="364.43,-435.1 370.43,-433 364.43,-430.9 364.43,-435.1"/>
</g>
<!-- scene/sceneComponents/geometries.js -->
<g id="node18" class="node">
<title>scene/sceneComponents/geometries.js</title>
<g id="a_node18"><a xlink:href="scene/sceneComponents/geometries.js" xlink:title="geometries.js">
<path fill="#ffffcc" stroke="black" d="M442,-566C442,-566 377,-566 377,-566 374,-566 371,-563 371,-560 371,-560 371,-554 371,-554 371,-551 374,-548 377,-548 377,-548 442,-548 442,-548 445,-548 448,-551 448,-554 448,-554 448,-560 448,-560 448,-563 445,-566 442,-566"/>
<text text-anchor="start" x="379" y="-554.8" font-family="Helvetica,sans-Serif" font-size="9.00">geometries.js</text>
</a>
</g>
</g>
<!-- scene/sceneComponents/capsulePool.js&#45;&gt;scene/sceneComponents/geometries.js -->
<g id="edge17" class="edge">
<title>scene/sceneComponents/capsulePool.js&#45;&gt;scene/sceneComponents/geometries.js</title>
<path fill="none" stroke="#000000" stroke-width="2" stroke-opacity="0.200000" d="M302.36,-547.48C321.52,-549.2 344.7,-551.28 364.51,-553.06"/>
<polygon fill="#000000" fill-opacity="0.200000" stroke="#000000" stroke-width="2" stroke-opacity="0.200000" points="364.38,-555.15 370.54,-553.6 364.75,-550.97 364.38,-555.15"/>
</g>
<!-- scene/sceneComponents/stageComponetns/camera.js -->
<g id="node19" class="node">
<title>scene/sceneComponents/stageComponetns/camera.js</title>
<g id="a_node19"><a xlink:href="scene/sceneComponents/stageComponetns/camera.js" xlink:title="camera.js">
<path fill="#ffffcc" stroke="black" d="M433.5,-514C433.5,-514 385.5,-514 385.5,-514 382.5,-514 379.5,-511 379.5,-508 379.5,-508 379.5,-502 379.5,-502 379.5,-499 382.5,-496 385.5,-496 385.5,-496 433.5,-496 433.5,-496 436.5,-496 439.5,-499 439.5,-502 439.5,-502 439.5,-508 439.5,-508 439.5,-511 436.5,-514 433.5,-514"/>
<text text-anchor="start" x="387.5" y="-502.8" font-family="Helvetica,sans-Serif" font-size="9.00">camera.js</text>
</a>
</g>
</g>
<!-- scene/sceneComponents/stage.js&#45;&gt;scene/sceneComponents/stageComponetns/camera.js -->
<g id="edge18" class="edge">
<title>scene/sceneComponents/stage.js&#45;&gt;scene/sceneComponents/stageComponetns/camera.js</title>
<path fill="none" stroke="#000000" stroke-width="2" stroke-opacity="0.200000" d="M289.52,-476.52C302.08,-479.25 317.36,-482.67 331,-486 337.7,-487.64 339.31,-488.31 346,-490 354.79,-492.23 364.29,-494.55 373.18,-496.69"/>
<polygon fill="#000000" fill-opacity="0.200000" stroke="#000000" stroke-width="2" stroke-opacity="0.200000" points="372.89,-498.78 379.21,-498.13 373.86,-494.69 372.89,-498.78"/>
</g>
<!-- scene/sceneComponents/stageComponetns/renderer.js -->
<g id="node20" class="node">
<title>scene/sceneComponents/stageComponetns/renderer.js</title>
<g id="a_node20"><a xlink:href="scene/sceneComponents/stageComponetns/renderer.js" xlink:title="renderer.js">
<path fill="#ffffcc" stroke="black" d="M436,-484C436,-484 383,-484 383,-484 380,-484 377,-481 377,-478 377,-478 377,-472 377,-472 377,-469 380,-466 383,-466 383,-466 436,-466 436,-466 439,-466 442,-469 442,-472 442,-472 442,-478 442,-478 442,-481 439,-484 436,-484"/>
<text text-anchor="start" x="385" y="-472.8" font-family="Helvetica,sans-Serif" font-size="9.00">renderer.js</text>
</a>
</g>
</g>
<!-- scene/sceneComponents/stage.js&#45;&gt;scene/sceneComponents/stageComponetns/renderer.js -->
<g id="edge19" class="edge">
<title>scene/sceneComponents/stage.js&#45;&gt;scene/sceneComponents/stageComponetns/renderer.js</title>
<path fill="none" stroke="#000000" stroke-width="2" stroke-opacity="0.200000" d="M289.76,-471.72C312.33,-472.35 345.16,-473.25 370.58,-473.95"/>
<polygon fill="#000000" fill-opacity="0.200000" stroke="#000000" stroke-width="2" stroke-opacity="0.200000" points="370.82,-476.06 376.88,-474.13 370.94,-471.86 370.82,-476.06"/>
</g>
<!-- simulation/signallingNetwork/FTCS.js -->
<g id="node21" class="node">
<title>simulation/signallingNetwork/FTCS.js</title>
<g id="a_node21"><a xlink:href="simulation/signallingNetwork/FTCS.js" xlink:title="no&#45;orphans">
<path fill="#ccffcc" stroke="orange" d="M283.5,-277C283.5,-277 241.5,-277 241.5,-277 238.5,-277 235.5,-274 235.5,-271 235.5,-271 235.5,-265 235.5,-265 235.5,-262 238.5,-259 241.5,-259 241.5,-259 283.5,-259 283.5,-259 286.5,-259 289.5,-262 289.5,-265 289.5,-265 289.5,-271 289.5,-271 289.5,-274 286.5,-277 283.5,-277"/>
<text text-anchor="start" x="246" y="-265.8" font-family="Helvetica,sans-Serif" font-size="9.00" fill="orange">FTCS.js</text>
</a>
</g>
</g>
<!-- simulation/signallingNetwork/extracellular/ADI.js -->
<g id="node22" class="node">
<title>simulation/signallingNetwork/extracellular/ADI.js</title>
<g id="a_node22"><a xlink:href="simulation/signallingNetwork/extracellular/ADI.js" xlink:title="ADI.js">
<path fill="#ffffcc" stroke="black" d="M430.5,-140C430.5,-140 388.5,-140 388.5,-140 385.5,-140 382.5,-137 382.5,-134 382.5,-134 382.5,-128 382.5,-128 382.5,-125 385.5,-122 388.5,-122 388.5,-122 430.5,-122 430.5,-122 433.5,-122 436.5,-125 436.5,-128 436.5,-128 436.5,-134 436.5,-134 436.5,-137 433.5,-140 430.5,-140"/>
<text text-anchor="start" x="396.5" y="-128.8" font-family="Helvetica,sans-Serif" font-size="9.00">ADI.js</text>
</a>
</g>
</g>
<!-- simulation/signallingNetwork/extracellular/initArrays.js -->
<g id="node23" class="node">
<title>simulation/signallingNetwork/extracellular/initArrays.js</title>
<g id="a_node23"><a xlink:href="simulation/signallingNetwork/extracellular/initArrays.js" xlink:title="initArrays.js">
<path fill="#ffffcc" stroke="black" d="M578,-110C578,-110 521,-110 521,-110 518,-110 515,-107 515,-104 515,-104 515,-98 515,-98 515,-95 518,-92 521,-92 521,-92 578,-92 578,-92 581,-92 584,-95 584,-98 584,-98 584,-104 584,-104 584,-107 581,-110 578,-110"/>
<text text-anchor="start" x="523" y="-98.8" font-family="Helvetica,sans-Serif" font-size="9.00">initArrays.js</text>
</a>
</g>
</g>
<!-- simulation/signallingNetwork/extracellular/ADI.js&#45;&gt;simulation/signallingNetwork/extracellular/initArrays.js -->
<g id="edge20" class="edge">
<title>simulation/signallingNetwork/extracellular/ADI.js&#45;&gt;simulation/signallingNetwork/extracellular/initArrays.js</title>
<path fill="none" stroke="#000000" stroke-width="2" stroke-opacity="0.200000" d="M436.78,-125.29C457.17,-120.85 485.76,-114.64 508.91,-109.61"/>
<polygon fill="#000000" fill-opacity="0.200000" stroke="#000000" stroke-width="2" stroke-opacity="0.200000" points="509.56,-111.61 514.98,-108.29 508.67,-107.51 509.56,-111.61"/>
</g>
<!-- simulation/signallingNetwork/extracellular/thomasAlgorithm.js -->
<g id="node24" class="node">
<title>simulation/signallingNetwork/extracellular/thomasAlgorithm.js</title>
<g id="a_node24"><a xlink:href="simulation/signallingNetwork/extracellular/thomasAlgorithm.js" xlink:title="thomasAlgorithm.js">
<path fill="#ffffcc" stroke="black" d="M595.5,-140C595.5,-140 503.5,-140 503.5,-140 500.5,-140 497.5,-137 497.5,-134 497.5,-134 497.5,-128 497.5,-128 497.5,-125 500.5,-122 503.5,-122 503.5,-122 595.5,-122 595.5,-122 598.5,-122 601.5,-125 601.5,-128 601.5,-128 601.5,-134 601.5,-134 601.5,-137 598.5,-140 595.5,-140"/>
<text text-anchor="start" x="505.5" y="-128.8" font-family="Helvetica,sans-Serif" font-size="9.00">thomasAlgorithm.js</text>
</a>
</g>
</g>
<!-- simulation/signallingNetwork/extracellular/ADI.js&#45;&gt;simulation/signallingNetwork/extracellular/thomasAlgorithm.js -->
<g id="edge21" class="edge">
<title>simulation/signallingNetwork/extracellular/ADI.js&#45;&gt;simulation/signallingNetwork/extracellular/thomasAlgorithm.js</title>
<path fill="none" stroke="#000000" stroke-width="2" stroke-opacity="0.200000" d="M436.78,-131C452.17,-131 472.23,-131 491.1,-131"/>
<polygon fill="#000000" fill-opacity="0.200000" stroke="#000000" stroke-width="2" stroke-opacity="0.200000" points="491.44,-133.1 497.44,-131 491.44,-128.9 491.44,-133.1"/>
</g>
<!-- simulation/signallingNetwork/grid.js -->
<g id="node25" class="node">
<title>simulation/signallingNetwork/grid.js</title>
<g id="a_node25"><a xlink:href="simulation/signallingNetwork/grid.js" xlink:title="grid.js">
<path fill="#ffffcc" stroke="black" d="M430.5,-192C430.5,-192 388.5,-192 388.5,-192 385.5,-192 382.5,-189 382.5,-186 382.5,-186 382.5,-180 382.5,-180 382.5,-177 385.5,-174 388.5,-174 388.5,-174 430.5,-174 430.5,-174 433.5,-174 436.5,-177 436.5,-180 436.5,-180 436.5,-186 436.5,-186 436.5,-189 433.5,-192 430.5,-192"/>
<text text-anchor="start" x="395.5" y="-180.8" font-family="Helvetica,sans-Serif" font-size="9.00">grid.js</text>
</a>
</g>
</g>
<!-- simulation/signallingNetwork/intracellular/cytoplasmInitializer.js -->
<g id="node26" class="node">
<title>simulation/signallingNetwork/intracellular/cytoplasmInitializer.js</title>
<g id="a_node26"><a xlink:href="simulation/signallingNetwork/intracellular/cytoplasmInitializer.js" xlink:title="cytoplasmInitializer.js">
<path fill="#ffffcc" stroke="black" d="M600,-226C600,-226 499,-226 499,-226 496,-226 493,-223 493,-220 493,-220 493,-214 493,-214 493,-211 496,-208 499,-208 499,-208 600,-208 600,-208 603,-208 606,-211 606,-214 606,-214 606,-220 606,-220 606,-223 603,-226 600,-226"/>
<text text-anchor="start" x="501" y="-214.8" font-family="Helvetica,sans-Serif" font-size="9.00">cytoplasmInitializer.js</text>
</a>
</g>
</g>
<!-- simulation/signallingNetwork/intracellular/cytoplasmState.js -->
<g id="node27" class="node">
<title>simulation/signallingNetwork/intracellular/cytoplasmState.js</title>
<g id="a_node27"><a xlink:href="simulation/signallingNetwork/intracellular/cytoplasmState.js" xlink:title="cytoplasmState.js">
<path fill="#ffffcc" stroke="black" d="M710,-248C710,-248 625,-248 625,-248 622,-248 619,-245 619,-242 619,-242 619,-236 619,-236 619,-233 622,-230 625,-230 625,-230 710,-230 710,-230 713,-230 716,-233 716,-236 716,-236 716,-242 716,-242 716,-245 713,-248 710,-248"/>
<text text-anchor="start" x="627" y="-236.8" font-family="Helvetica,sans-Serif" font-size="9.00">cytoplasmState.js</text>
</a>
</g>
</g>
<!-- simulation/signallingNetwork/intracellular/cytoplasmInitializer.js&#45;&gt;simulation/signallingNetwork/intracellular/cytoplasmState.js -->
<g id="edge22" class="edge">
<title>simulation/signallingNetwork/intracellular/cytoplasmInitializer.js&#45;&gt;simulation/signallingNetwork/intracellular/cytoplasmState.js</title>
<path fill="none" stroke="#000000" stroke-width="2" stroke-opacity="0.200000" d="M598.02,-226.01C602.86,-226.93 607.8,-227.87 612.7,-228.8"/>
<polygon fill="#000000" fill-opacity="0.200000" stroke="#000000" stroke-width="2" stroke-opacity="0.200000" points="612.58,-230.91 618.87,-229.97 613.37,-226.79 612.58,-230.91"/>
</g>
<!-- simulation/signallingNetwork/intracellular/cytoplasmManager.js -->
<g id="node28" class="node">
<title>simulation/signallingNetwork/intracellular/cytoplasmManager.js</title>
<g id="a_node28"><a xlink:href="simulation/signallingNetwork/intracellular/cytoplasmManager.js" xlink:title="cytoplasmManager.js">
<path fill="#ffffcc" stroke="black" d="M459,-237C459,-237 360,-237 360,-237 357,-237 354,-234 354,-231 354,-231 354,-225 354,-225 354,-222 357,-219 360,-219 360,-219 459,-219 459,-219 462,-219 465,-222 465,-225 465,-225 465,-231 465,-231 465,-234 462,-237 459,-237"/>
<text text-anchor="start" x="362" y="-225.8" font-family="Helvetica,sans-Serif" font-size="9.00">cytoplasmManager.js</text>
</a>
</g>
</g>
<!-- simulation/signallingNetwork/intracellular/cytoplasmManager.js&#45;&gt;simulation/signallingNetwork/intracellular/cytoplasmInitializer.js -->
<g id="edge23" class="edge">
<title>simulation/signallingNetwork/intracellular/cytoplasmManager.js&#45;&gt;simulation/signallingNetwork/intracellular/cytoplasmInitializer.js</title>
<path fill="none" stroke="#000000" stroke-width="2" stroke-opacity="0.200000" d="M465.04,-223.65C472.22,-223.08 479.62,-222.49 486.91,-221.91"/>
<polygon fill="#000000" fill-opacity="0.200000" stroke="#000000" stroke-width="2" stroke-opacity="0.200000" points="487.18,-223.99 493,-221.42 486.85,-219.81 487.18,-223.99"/>
</g>
<!-- simulation/signallingNetwork/intracellular/cytoplasmManager.js&#45;&gt;simulation/signallingNetwork/intracellular/cytoplasmState.js -->
<g id="edge24" class="edge">
<title>simulation/signallingNetwork/intracellular/cytoplasmManager.js&#45;&gt;simulation/signallingNetwork/intracellular/cytoplasmState.js</title>
<path fill="none" stroke="#000000" stroke-width="2" stroke-opacity="0.200000" d="M465.08,-230.71C474.4,-231.15 483.97,-231.6 493,-232 533.12,-233.78 578.46,-235.6 612.73,-236.94"/>
<polygon fill="#000000" fill-opacity="0.200000" stroke="#000000" stroke-width="2" stroke-opacity="0.200000" points="612.92,-239.05 619,-237.19 613.08,-234.86 612.92,-239.05"/>
</g>
<!-- simulation/signallingNetwork/intracellular/cytoplasmUpdater.js -->
<g id="node29" class="node">
<title>simulation/signallingNetwork/intracellular/cytoplasmUpdater.js</title>
<g id="a_node29"><a xlink:href="simulation/signallingNetwork/intracellular/cytoplasmUpdater.js" xlink:title="cytoplasmUpdater.js">
<path fill="#ffffcc" stroke="black" d="M598,-270C598,-270 501,-270 501,-270 498,-270 495,-267 495,-264 495,-264 495,-258 495,-258 495,-255 498,-252 501,-252 501,-252 598,-252 598,-252 601,-252 604,-255 604,-258 604,-258 604,-264 604,-264 604,-267 601,-270 598,-270"/>
<text text-anchor="start" x="503" y="-258.8" font-family="Helvetica,sans-Serif" font-size="9.00">cytoplasmUpdater.js</text>
</a>
</g>
</g>
<!-- simulation/signallingNetwork/intracellular/cytoplasmManager.js&#45;&gt;simulation/signallingNetwork/intracellular/cytoplasmUpdater.js -->
<g id="edge25" class="edge">
<title>simulation/signallingNetwork/intracellular/cytoplasmManager.js&#45;&gt;simulation/signallingNetwork/intracellular/cytoplasmUpdater.js</title>
<path fill="none" stroke="#000000" stroke-width="2" stroke-opacity="0.200000" d="M448.21,-237.02C465.7,-241.2 486.6,-246.2 504.78,-250.55"/>
<polygon fill="#000000" fill-opacity="0.200000" stroke="#000000" stroke-width="2" stroke-opacity="0.200000" points="504.51,-252.64 510.84,-251.99 505.49,-248.56 504.51,-252.64"/>
</g>
<!-- simulation/signallingNetwork/intracellular/cytoplasmUpdater.js&#45;&gt;simulation/signallingNetwork/intracellular/cytoplasmState.js -->
<g id="edge26" class="edge">
<title>simulation/signallingNetwork/intracellular/cytoplasmUpdater.js&#45;&gt;simulation/signallingNetwork/intracellular/cytoplasmState.js</title>
<path fill="none" stroke="#000000" stroke-width="2" stroke-opacity="0.200000" d="M598.02,-251.99C602.86,-251.07 607.8,-250.13 612.7,-249.2"/>
<polygon fill="#000000" fill-opacity="0.200000" stroke="#000000" stroke-width="2" stroke-opacity="0.200000" points="613.37,-251.21 618.87,-248.03 612.58,-247.09 613.37,-251.21"/>
</g>
<!-- simulation/signallingNetwork/signallingNetwork.js&#45;&gt;simulation/signallingNetwork/extracellular/ADI.js -->
<g id="edge27" class="edge">
<title>simulation/signallingNetwork/signallingNetwork.js&#45;&gt;simulation/signallingNetwork/extracellular/ADI.js</title>
<path fill="none" stroke="#000000" stroke-width="2" stroke-opacity="0.200000" d="M273.88,-191.75C288.76,-178.99 317.52,-156.21 346,-144 355.45,-139.95 366.25,-137.13 376.19,-135.18"/>
<polygon fill="#000000" fill-opacity="0.200000" stroke="#000000" stroke-width="2" stroke-opacity="0.200000" points="376.73,-137.22 382.25,-134.07 375.97,-133.08 376.73,-137.22"/>
</g>
<!-- simulation/signallingNetwork/signallingNetwork.js&#45;&gt;simulation/signallingNetwork/grid.js -->
<g id="edge28" class="edge">
<title>simulation/signallingNetwork/signallingNetwork.js&#45;&gt;simulation/signallingNetwork/grid.js</title>
<path fill="none" stroke="#000000" stroke-width="2" stroke-opacity="0.200000" d="M316.26,-194.45C336.31,-191.96 358.54,-189.2 376.15,-187.02"/>
<polygon fill="#000000" fill-opacity="0.200000" stroke="#000000" stroke-width="2" stroke-opacity="0.200000" points="376.72,-189.06 382.42,-186.24 376.2,-184.89 376.72,-189.06"/>
</g>
<!-- simulation/signallingNetwork/signallingNetwork.js&#45;&gt;simulation/signallingNetwork/intracellular/cytoplasmManager.js -->
<g id="edge29" class="edge">
<title>simulation/signallingNetwork/signallingNetwork.js&#45;&gt;simulation/signallingNetwork/intracellular/cytoplasmManager.js</title>
<path fill="none" stroke="#000000" stroke-width="2" stroke-opacity="0.200000" d="M312.19,-210.07C325.46,-212.54 339.92,-215.23 353.52,-217.76"/>
<polygon fill="#000000" fill-opacity="0.200000" stroke="#000000" stroke-width="2" stroke-opacity="0.200000" points="353.41,-219.88 359.7,-218.91 354.18,-215.75 353.41,-219.88"/>
</g>
</g>
</svg>
