<?xml version="1.0" encoding="UTF-8" standalone="no"?>
<!DOCTYPE svg PUBLIC "-//W3C//DTD SVG 1.1//EN"
 "http://www.w3.org/Graphics/SVG/1.1/DTD/svg11.dtd">
<!-- Generated by graphviz version 2.43.0 (0)
 -->
<!-- Title: dependency&#45;cruiser output Pages: 1 -->
<svg width="638pt" height="706pt"
 viewBox="0.00 0.00 637.50 706.00" xmlns="http://www.w3.org/2000/svg" xmlns:xlink="http://www.w3.org/1999/xlink">
<g id="graph0" class="graph" transform="scale(1 1) rotate(0) translate(4 702)">
<title>dependency&#45;cruiser output</title>
<polygon fill="white" stroke="transparent" points="-4,4 -4,-702 633.5,-702 633.5,4 -4,4"/>
<g id="clust1" class="cluster">
<title>cluster_GUI</title>
<path fill="#ffffff" stroke="black" stroke-width="2" d="M81.5,-608C81.5,-608 458,-608 458,-608 464,-608 470,-614 470,-620 470,-620 470,-678 470,-678 470,-684 464,-690 458,-690 458,-690 81.5,-690 81.5,-690 75.5,-690 69.5,-684 69.5,-678 69.5,-678 69.5,-620 69.5,-620 69.5,-614 75.5,-608 81.5,-608"/>
<text text-anchor="middle" x="269.75" y="-678.8" font-family="Helvetica,sans-Serif" font-weight="bold" font-size="9.00">GUI</text>
</g>
<g id="clust2" class="cluster">
<title>cluster_scene</title>
<path fill="#ffffff" stroke="black" stroke-width="2" d="M77.5,-312C77.5,-312 473.5,-312 473.5,-312 479.5,-312 485.5,-318 485.5,-324 485.5,-324 485.5,-562 485.5,-562 485.5,-568 479.5,-574 473.5,-574 473.5,-574 77.5,-574 77.5,-574 71.5,-574 65.5,-568 65.5,-562 65.5,-562 65.5,-324 65.5,-324 65.5,-318 71.5,-312 77.5,-312"/>
<text text-anchor="middle" x="275.5" y="-562.8" font-family="Helvetica,sans-Serif" font-weight="bold" font-size="9.00">scene</text>
</g>
<g id="clust3" class="cluster">
<title>cluster_scene/sceneComponents</title>
<path fill="#ffffff" stroke="black" stroke-width="2" d="M227,-406C227,-406 465.5,-406 465.5,-406 471.5,-406 477.5,-412 477.5,-418 477.5,-418 477.5,-536 477.5,-536 477.5,-542 471.5,-548 465.5,-548 465.5,-548 227,-548 227,-548 221,-548 215,-542 215,-536 215,-536 215,-418 215,-418 215,-412 221,-406 227,-406"/>
<text text-anchor="middle" x="346.25" y="-536.8" font-family="Helvetica,sans-Serif" font-weight="bold" font-size="9.00">sceneComponents</text>
</g>
<g id="clust4" class="cluster">
<title>cluster_scene/sceneComponents/stageComponetns</title>
<path fill="#ffffff" stroke="black" stroke-width="2" d="M371.5,-414C371.5,-414 457.5,-414 457.5,-414 463.5,-414 469.5,-420 469.5,-426 469.5,-426 469.5,-484 469.5,-484 469.5,-490 463.5,-496 457.5,-496 457.5,-496 371.5,-496 371.5,-496 365.5,-496 359.5,-490 359.5,-484 359.5,-484 359.5,-426 359.5,-426 359.5,-420 365.5,-414 371.5,-414"/>
<text text-anchor="middle" x="414.5" y="-484.8" font-family="Helvetica,sans-Serif" font-weight="bold" font-size="9.00">stageComponetns</text>
</g>
<g id="clust5" class="cluster">
<title>cluster_simulation</title>
<path fill="#ffffff" stroke="black" stroke-width="2" d="M74,-68C74,-68 609.5,-68 609.5,-68 615.5,-68 621.5,-74 621.5,-80 621.5,-80 621.5,-292 621.5,-292 621.5,-298 615.5,-304 609.5,-304 609.5,-304 74,-304 74,-304 68,-304 62,-298 62,-292 62,-292 62,-80 62,-80 62,-74 68,-68 74,-68"/>
<text text-anchor="middle" x="341.75" y="-292.8" font-family="Helvetica,sans-Serif" font-weight="bold" font-size="9.00">simulation</text>
</g>
<g id="clust6" class="cluster">
<title>cluster_simulation/signallingNetwork</title>
<path fill="#ffffff" stroke="black" stroke-width="2" d="M213,-76C213,-76 601.5,-76 601.5,-76 607.5,-76 613.5,-82 613.5,-88 613.5,-88 613.5,-266 613.5,-266 613.5,-272 607.5,-278 601.5,-278 601.5,-278 213,-278 213,-278 207,-278 201,-272 201,-266 201,-266 201,-88 201,-88 201,-82 207,-76 213,-76"/>
<text text-anchor="middle" x="407.25" y="-266.8" font-family="Helvetica,sans-Serif" font-weight="bold" font-size="9.00">signallingNetwork</text>
</g>
<g id="clust7" class="cluster">
<title>cluster_simulation/signallingNetwork/extracellular</title>
<path fill="#ffffff" stroke="black" stroke-width="2" d="M391,-84C391,-84 593.5,-84 593.5,-84 599.5,-84 605.5,-90 605.5,-96 605.5,-96 605.5,-154 605.5,-154 605.5,-160 599.5,-166 593.5,-166 593.5,-166 391,-166 391,-166 385,-166 379,-160 379,-154 379,-154 379,-96 379,-96 379,-90 385,-84 391,-84"/>
<text text-anchor="middle" x="492.25" y="-154.8" font-family="Helvetica,sans-Serif" font-weight="bold" font-size="9.00">extracellular</text>
</g>
<g id="clust8" class="cluster">
<title>cluster_simulation/signallingNetwork/intracellular</title>
<path fill="#ffffff" stroke="black" stroke-width="2" d="M381.5,-200C381.5,-200 446.5,-200 446.5,-200 452.5,-200 458.5,-206 458.5,-212 458.5,-212 458.5,-240 458.5,-240 458.5,-246 452.5,-252 446.5,-252 446.5,-252 381.5,-252 381.5,-252 375.5,-252 369.5,-246 369.5,-240 369.5,-240 369.5,-212 369.5,-212 369.5,-206 375.5,-200 381.5,-200"/>
<text text-anchor="middle" x="414" y="-240.8" font-family="Helvetica,sans-Serif" font-weight="bold" font-size="9.00">intracellular</text>
</g>
<g id="clust9" class="cluster">
<title>cluster_state</title>
<path fill="#ffffff" stroke="black" stroke-width="2" d="M86,-8C86,-8 165,-8 165,-8 171,-8 177,-14 177,-20 177,-20 177,-48 177,-48 177,-54 171,-60 165,-60 165,-60 86,-60 86,-60 80,-60 74,-54 74,-48 74,-48 74,-20 74,-20 74,-14 80,-8 86,-8"/>
<text text-anchor="middle" x="125.5" y="-48.8" font-family="Helvetica,sans-Serif" font-weight="bold" font-size="9.00">state</text>
</g>
<!-- GUI/controlManager.js -->
<g id="node1" class="node">
<title>GUI/controlManager.js</title>
<g id="a_node1"><a xlink:href="GUI/controlManager.js" xlink:title="controlManager.js">
<path fill="#ffffcc" stroke="black" d="M167.5,-634C167.5,-634 83.5,-634 83.5,-634 80.5,-634 77.5,-631 77.5,-628 77.5,-628 77.5,-622 77.5,-622 77.5,-619 80.5,-616 83.5,-616 83.5,-616 167.5,-616 167.5,-616 170.5,-616 173.5,-619 173.5,-622 173.5,-622 173.5,-628 173.5,-628 173.5,-631 170.5,-634 167.5,-634"/>
<text text-anchor="start" x="85.5" y="-622.8" font-family="Helvetica,sans-Serif" font-size="9.00">controlManager.js</text>
</a>
</g>
</g>
<!-- GUI/sessionTab.js -->
<g id="node2" class="node">
<title>GUI/sessionTab.js</title>
<g id="a_node2"><a xlink:href="GUI/sessionTab.js" xlink:title="sessionTab.js">
<path fill="#ffffcc" stroke="black" d="M293.5,-634C293.5,-634 231.5,-634 231.5,-634 228.5,-634 225.5,-631 225.5,-628 225.5,-628 225.5,-622 225.5,-622 225.5,-619 228.5,-616 231.5,-616 231.5,-616 293.5,-616 293.5,-616 296.5,-616 299.5,-619 299.5,-622 299.5,-622 299.5,-628 299.5,-628 299.5,-631 296.5,-634 293.5,-634"/>
<text text-anchor="start" x="233.5" y="-622.8" font-family="Helvetica,sans-Serif" font-size="9.00">sessionTab.js</text>
</a>
</g>
</g>
<!-- GUI/controlManager.js&#45;&gt;GUI/sessionTab.js -->
<g id="edge1" class="edge">
<title>GUI/controlManager.js&#45;&gt;GUI/sessionTab.js</title>
<path fill="none" stroke="#000000" stroke-width="2" stroke-opacity="0.200000" d="M173.72,-625C188.49,-625 204.68,-625 219.1,-625"/>
<polygon fill="#000000" fill-opacity="0.200000" stroke="#000000" stroke-width="2" stroke-opacity="0.200000" points="219.16,-627.1 225.16,-625 219.16,-622.9 219.16,-627.1"/>
</g>
<!-- GUI/signallingTab.js -->
<g id="node3" class="node">
<title>GUI/signallingTab.js</title>
<g id="a_node3"><a xlink:href="GUI/signallingTab.js" xlink:title="signallingTab.js">
<path fill="#ffffcc" stroke="black" d="M298.5,-664C298.5,-664 226.5,-664 226.5,-664 223.5,-664 220.5,-661 220.5,-658 220.5,-658 220.5,-652 220.5,-652 220.5,-649 223.5,-646 226.5,-646 226.5,-646 298.5,-646 298.5,-646 301.5,-646 304.5,-649 304.5,-652 304.5,-652 304.5,-658 304.5,-658 304.5,-661 301.5,-664 298.5,-664"/>
<text text-anchor="start" x="228.5" y="-652.8" font-family="Helvetica,sans-Serif" font-size="9.00">signallingTab.js</text>
</a>
</g>
</g>
<!-- GUI/controlManager.js&#45;&gt;GUI/signallingTab.js -->
<g id="edge2" class="edge">
<title>GUI/controlManager.js&#45;&gt;GUI/signallingTab.js</title>
<path fill="none" stroke="#000000" stroke-width="2" stroke-opacity="0.200000" d="M167,-634C181.95,-637.32 199.01,-641.11 214.49,-644.55"/>
<polygon fill="#000000" fill-opacity="0.200000" stroke="#000000" stroke-width="2" stroke-opacity="0.200000" points="214.24,-646.65 220.56,-645.9 215.16,-642.55 214.24,-646.65"/>
</g>
<!-- GUI/dataProcessor.js -->
<g id="node4" class="node">
<title>GUI/dataProcessor.js</title>
<g id="a_node4"><a xlink:href="GUI/dataProcessor.js" xlink:title="dataProcessor.js">
<path fill="#ffffcc" stroke="black" d="M452.5,-634C452.5,-634 375.5,-634 375.5,-634 372.5,-634 369.5,-631 369.5,-628 369.5,-628 369.5,-622 369.5,-622 369.5,-619 372.5,-616 375.5,-616 375.5,-616 452.5,-616 452.5,-616 455.5,-616 458.5,-619 458.5,-622 458.5,-622 458.5,-628 458.5,-628 458.5,-631 455.5,-634 452.5,-634"/>
<text text-anchor="start" x="377.5" y="-622.8" font-family="Helvetica,sans-Serif" font-size="9.00">dataProcessor.js</text>
</a>
</g>
</g>
<!-- GUI/sessionTab.js&#45;&gt;GUI/dataProcessor.js -->
<g id="edge3" class="edge">
<title>GUI/sessionTab.js&#45;&gt;GUI/dataProcessor.js</title>
<path fill="none" stroke="#000000" stroke-width="2" stroke-opacity="0.200000" d="M299.69,-625C318.8,-625 342.55,-625 363.35,-625"/>
<polygon fill="#000000" fill-opacity="0.200000" stroke="#000000" stroke-width="2" stroke-opacity="0.200000" points="363.42,-627.1 369.42,-625 363.42,-622.9 363.42,-627.1"/>
</g>
<!-- GUI/visualizationTab.js -->
<g id="node5" class="node">
<title>GUI/visualizationTab.js</title>
<g id="a_node5"><a xlink:href="GUI/visualizationTab.js" xlink:title="visualizationTab.js">
<path fill="#ffffcc" stroke="black" d="M456,-664C456,-664 372,-664 372,-664 369,-664 366,-661 366,-658 366,-658 366,-652 366,-652 366,-649 369,-646 372,-646 372,-646 456,-646 456,-646 459,-646 462,-649 462,-652 462,-652 462,-658 462,-658 462,-661 459,-664 456,-664"/>
<text text-anchor="start" x="374" y="-652.8" font-family="Helvetica,sans-Serif" font-size="9.00">visualizationTab.js</text>
</a>
</g>
</g>
<!-- GUI/signallingTab.js&#45;&gt;GUI/visualizationTab.js -->
<g id="edge4" class="edge">
<title>GUI/signallingTab.js&#45;&gt;GUI/visualizationTab.js</title>
<path fill="none" stroke="#000000" stroke-width="2" stroke-opacity="0.200000" d="M304.75,-655C321.75,-655 341.67,-655 359.76,-655"/>
<polygon fill="#000000" fill-opacity="0.200000" stroke="#000000" stroke-width="2" stroke-opacity="0.200000" points="359.82,-657.1 365.82,-655 359.82,-652.9 359.82,-657.1"/>
</g>
<!-- config.js -->
<g id="node6" class="node">
<title>config.js</title>
<g id="a_node6"><a xlink:href="config.js" xlink:title="config.js">
<path fill="#ffffcc" stroke="black" d="M147,-600C147,-600 104,-600 104,-600 101,-600 98,-597 98,-594 98,-594 98,-588 98,-588 98,-585 101,-582 104,-582 104,-582 147,-582 147,-582 150,-582 153,-585 153,-588 153,-588 153,-594 153,-594 153,-597 150,-600 147,-600"/>
<text text-anchor="middle" x="125.5" y="-588.8" font-family="Helvetica,sans-Serif" font-size="9.00">config.js</text>
</a>
</g>
</g>
<!-- main.js -->
<g id="node7" class="node">
<title>main.js</title>
<g id="a_node7"><a xlink:href="main.js" xlink:title="main.js">
<path fill="#ffffcc" stroke="black" d="M48,-417C48,-417 6,-417 6,-417 3,-417 0,-414 0,-411 0,-411 0,-405 0,-405 0,-402 3,-399 6,-399 6,-399 48,-399 48,-399 51,-399 54,-402 54,-405 54,-405 54,-411 54,-411 54,-414 51,-417 48,-417"/>
<text text-anchor="middle" x="27" y="-405.8" font-family="Helvetica,sans-Serif" font-size="9.00">main.js</text>
</a>
</g>
</g>
<!-- main.js&#45;&gt;GUI/controlManager.js -->
<g id="edge6" class="edge">
<title>main.js&#45;&gt;GUI/controlManager.js</title>
<path fill="none" stroke="#000000" stroke-width="2" stroke-opacity="0.200000" d="M28.34,-417.42C29.81,-452.82 36.73,-577.36 62,-606 64.82,-609.2 68.17,-611.87 71.82,-614.1"/>
<polygon fill="#000000" fill-opacity="0.200000" stroke="#000000" stroke-width="2" stroke-opacity="0.200000" points="71.07,-616.08 77.36,-617.05 73.05,-612.37 71.07,-616.08"/>
</g>
<!-- main.js&#45;&gt;config.js -->
<g id="edge5" class="edge">
<title>main.js&#45;&gt;config.js</title>
<path fill="none" stroke="#000000" stroke-width="2" stroke-opacity="0.200000" d="M28.58,-417.4C30.73,-449.47 39.4,-553.9 62,-577 69.81,-584.98 81.11,-588.85 91.95,-590.62"/>
<polygon fill="#000000" fill-opacity="0.200000" stroke="#000000" stroke-width="2" stroke-opacity="0.200000" points="91.69,-592.7 97.91,-591.39 92.23,-588.53 91.69,-592.7"/>
</g>
<!-- scene/graphicsManager.js -->
<g id="node8" class="node">
<title>scene/graphicsManager.js</title>
<g id="a_node8"><a xlink:href="scene/graphicsManager.js" xlink:title="graphicsManager.js">
<path fill="#ffffcc" stroke="black" d="M171.5,-417C171.5,-417 79.5,-417 79.5,-417 76.5,-417 73.5,-414 73.5,-411 73.5,-411 73.5,-405 73.5,-405 73.5,-402 76.5,-399 79.5,-399 79.5,-399 171.5,-399 171.5,-399 174.5,-399 177.5,-402 177.5,-405 177.5,-405 177.5,-411 177.5,-411 177.5,-414 174.5,-417 171.5,-417"/>
<text text-anchor="start" x="81.5" y="-405.8" font-family="Helvetica,sans-Serif" font-size="9.00">graphicsManager.js</text>
</a>
</g>
</g>
<!-- main.js&#45;&gt;scene/graphicsManager.js -->
<g id="edge7" class="edge">
<title>main.js&#45;&gt;scene/graphicsManager.js</title>
<path fill="none" stroke="#000000" stroke-width="2" stroke-opacity="0.200000" d="M54.11,-408C58.26,-408 62.68,-408 67.21,-408"/>
<polygon fill="#000000" fill-opacity="0.200000" stroke="#000000" stroke-width="2" stroke-opacity="0.200000" points="67.45,-410.1 73.45,-408 67.45,-405.9 67.45,-410.1"/>
</g>
<!-- simulation/simulationManager.js -->
<g id="node9" class="node">
<title>simulation/simulationManager.js</title>
<g id="a_node9"><a xlink:href="simulation/simulationManager.js" xlink:title="simulationManager.js">
<path fill="#ffffcc" stroke="black" d="M175,-238C175,-238 76,-238 76,-238 73,-238 70,-235 70,-232 70,-232 70,-226 70,-226 70,-223 73,-220 76,-220 76,-220 175,-220 175,-220 178,-220 181,-223 181,-226 181,-226 181,-232 181,-232 181,-235 178,-238 175,-238"/>
<text text-anchor="start" x="78" y="-226.8" font-family="Helvetica,sans-Serif" font-size="9.00">simulationManager.js</text>
</a>
</g>
</g>
<!-- main.js&#45;&gt;simulation/simulationManager.js -->
<g id="edge8" class="edge">
<title>main.js&#45;&gt;simulation/simulationManager.js</title>
<path fill="none" stroke="#000000" stroke-width="2" stroke-opacity="0.200000" d="M30.06,-398.85C34.33,-380.86 45.19,-339.99 62,-309 75.74,-283.67 97.43,-258.06 111.3,-242.86"/>
<polygon fill="#000000" fill-opacity="0.200000" stroke="#000000" stroke-width="2" stroke-opacity="0.200000" points="113.15,-243.95 115.69,-238.12 110.07,-241.1 113.15,-243.95"/>
</g>
<!-- state/stateManager.js -->
<g id="node10" class="node">
<title>state/stateManager.js</title>
<g id="a_node10"><a xlink:href="state/stateManager.js" xlink:title="stateManager.js">
<path fill="#ffffcc" stroke="black" d="M163,-34C163,-34 88,-34 88,-34 85,-34 82,-31 82,-28 82,-28 82,-22 82,-22 82,-19 85,-16 88,-16 88,-16 163,-16 163,-16 166,-16 169,-19 169,-22 169,-22 169,-28 169,-28 169,-31 166,-34 163,-34"/>
<text text-anchor="start" x="90" y="-22.8" font-family="Helvetica,sans-Serif" font-size="9.00">stateManager.js</text>
</a>
</g>
</g>
<!-- main.js&#45;&gt;state/stateManager.js -->
<g id="edge9" class="edge">
<title>main.js&#45;&gt;state/stateManager.js</title>
<path fill="none" stroke="#000000" stroke-width="2" stroke-opacity="0.200000" d="M27.86,-398.99C27.23,-350.79 26.26,-123.28 62,-65 69.65,-52.52 82.82,-43.24 95.1,-36.78"/>
<polygon fill="#000000" fill-opacity="0.200000" stroke="#000000" stroke-width="2" stroke-opacity="0.200000" points="96.23,-38.57 100.66,-34.01 94.35,-34.81 96.23,-38.57"/>
</g>
<!-- scene/graphycLibrariesImports.js -->
<g id="node11" class="node">
<title>scene/graphycLibrariesImports.js</title>
<g id="a_node11"><a xlink:href="scene/graphycLibrariesImports.js" xlink:title="graphycLibrariesImports.js">
<path fill="#ffffcc" stroke="black" d="M325,-338C325,-338 200,-338 200,-338 197,-338 194,-335 194,-332 194,-332 194,-326 194,-326 194,-323 197,-320 200,-320 200,-320 325,-320 325,-320 328,-320 331,-323 331,-326 331,-326 331,-332 331,-332 331,-335 328,-338 325,-338"/>
<text text-anchor="start" x="202" y="-326.8" font-family="Helvetica,sans-Serif" font-size="9.00">graphycLibrariesImports.js</text>
</a>
</g>
</g>
<!-- scene/graphicsManager.js&#45;&gt;scene/graphycLibrariesImports.js -->
<g id="edge10" class="edge">
<title>scene/graphicsManager.js&#45;&gt;scene/graphycLibrariesImports.js</title>
<path fill="none" stroke="#000000" stroke-width="2" stroke-opacity="0.200000" d="M133.29,-398.97C144.37,-384.91 167.76,-357.95 194,-344 196.58,-342.63 199.28,-341.38 202.05,-340.25"/>
<polygon fill="#000000" fill-opacity="0.200000" stroke="#000000" stroke-width="2" stroke-opacity="0.200000" points="202.96,-342.15 207.84,-338.08 201.48,-338.22 202.96,-342.15"/>
</g>
<!-- scene/overlay.js -->
<g id="node12" class="node">
<title>scene/overlay.js</title>
<g id="a_node12"><a xlink:href="scene/overlay.js" xlink:title="overlay.js">
<path fill="#ffffcc" stroke="black" d="M285,-368C285,-368 240,-368 240,-368 237,-368 234,-365 234,-362 234,-362 234,-356 234,-356 234,-353 237,-350 240,-350 240,-350 285,-350 285,-350 288,-350 291,-353 291,-356 291,-356 291,-362 291,-362 291,-365 288,-368 285,-368"/>
<text text-anchor="start" x="242" y="-356.8" font-family="Helvetica,sans-Serif" font-size="9.00">overlay.js</text>
</a>
</g>
</g>
<!-- scene/graphicsManager.js&#45;&gt;scene/overlay.js -->
<g id="edge11" class="edge">
<title>scene/graphicsManager.js&#45;&gt;scene/overlay.js</title>
<path fill="none" stroke="#000000" stroke-width="2" stroke-opacity="0.200000" d="M141.83,-398.89C155.21,-391.29 175.34,-380.66 194,-374 204.78,-370.15 216.89,-367.09 227.85,-364.76"/>
<polygon fill="#000000" fill-opacity="0.200000" stroke="#000000" stroke-width="2" stroke-opacity="0.200000" points="228.35,-366.81 233.8,-363.55 227.51,-362.69 228.35,-366.81"/>
</g>
<!-- scene/plot.js -->
<g id="node13" class="node">
<title>scene/plot.js</title>
<g id="a_node13"><a xlink:href="scene/plot.js" xlink:title="plot.js">
<path fill="#ffffcc" stroke="black" d="M283.5,-398C283.5,-398 241.5,-398 241.5,-398 238.5,-398 235.5,-395 235.5,-392 235.5,-392 235.5,-386 235.5,-386 235.5,-383 238.5,-380 241.5,-380 241.5,-380 283.5,-380 283.5,-380 286.5,-380 289.5,-383 289.5,-386 289.5,-386 289.5,-392 289.5,-392 289.5,-395 286.5,-398 283.5,-398"/>
<text text-anchor="start" x="248.5" y="-386.8" font-family="Helvetica,sans-Serif" font-size="9.00">plot.js</text>
</a>
</g>
</g>
<!-- scene/graphicsManager.js&#45;&gt;scene/plot.js -->
<g id="edge12" class="edge">
<title>scene/graphicsManager.js&#45;&gt;scene/plot.js</title>
<path fill="none" stroke="#000000" stroke-width="2" stroke-opacity="0.200000" d="M177.54,-400.82C194.94,-398.37 213.9,-395.7 229.39,-393.52"/>
<polygon fill="#000000" fill-opacity="0.200000" stroke="#000000" stroke-width="2" stroke-opacity="0.200000" points="229.71,-395.59 235.36,-392.68 229.13,-391.44 229.71,-395.59"/>
</g>
<!-- scene/sceneComponents/capsulePool.js -->
<g id="node14" class="node">
<title>scene/sceneComponents/capsulePool.js</title>
<g id="a_node14"><a xlink:href="scene/sceneComponents/capsulePool.js" xlink:title="capsulePool.js">
<path fill="#ffffcc" stroke="black" d="M296,-509C296,-509 229,-509 229,-509 226,-509 223,-506 223,-503 223,-503 223,-497 223,-497 223,-494 226,-491 229,-491 229,-491 296,-491 296,-491 299,-491 302,-494 302,-497 302,-497 302,-503 302,-503 302,-506 299,-509 296,-509"/>
<text text-anchor="start" x="231" y="-497.8" font-family="Helvetica,sans-Serif" font-size="9.00">capsulePool.js</text>
</a>
</g>
</g>
<!-- scene/graphicsManager.js&#45;&gt;scene/sceneComponents/capsulePool.js -->
<g id="edge13" class="edge">
<title>scene/graphicsManager.js&#45;&gt;scene/sceneComponents/capsulePool.js</title>
<path fill="none" stroke="#000000" stroke-width="2" stroke-opacity="0.200000" d="M134.37,-417.39C146.15,-430.96 169.62,-456.17 194,-472 204.33,-478.71 216.53,-484.36 227.7,-488.78"/>
<polygon fill="#000000" fill-opacity="0.200000" stroke="#000000" stroke-width="2" stroke-opacity="0.200000" points="227.08,-490.79 233.43,-490.98 228.58,-486.87 227.08,-490.79"/>
</g>
<!-- scene/sceneComponents/mesh.js -->
<g id="node15" class="node">
<title>scene/sceneComponents/mesh.js</title>
<g id="a_node15"><a xlink:href="scene/sceneComponents/mesh.js" xlink:title="mesh.js">
<path fill="#ffffcc" stroke="black" d="M283.5,-466C283.5,-466 241.5,-466 241.5,-466 238.5,-466 235.5,-463 235.5,-460 235.5,-460 235.5,-454 235.5,-454 235.5,-451 238.5,-448 241.5,-448 241.5,-448 283.5,-448 283.5,-448 286.5,-448 289.5,-451 289.5,-454 289.5,-454 289.5,-460 289.5,-460 289.5,-463 286.5,-466 283.5,-466"/>
<text text-anchor="start" x="245" y="-454.8" font-family="Helvetica,sans-Serif" font-size="9.00">mesh.js</text>
</a>
</g>
</g>
<!-- scene/graphicsManager.js&#45;&gt;scene/sceneComponents/mesh.js -->
<g id="edge14" class="edge">
<title>scene/graphicsManager.js&#45;&gt;scene/sceneComponents/mesh.js</title>
<path fill="none" stroke="#000000" stroke-width="2" stroke-opacity="0.200000" d="M141.83,-417.11C155.21,-424.71 175.34,-435.34 194,-442 205.26,-446.02 217.97,-449.18 229.3,-451.54"/>
<polygon fill="#000000" fill-opacity="0.200000" stroke="#000000" stroke-width="2" stroke-opacity="0.200000" points="229.14,-453.65 235.43,-452.77 229.96,-449.53 229.14,-453.65"/>
</g>
<!-- scene/sceneComponents/stage.js -->
<g id="node16" class="node">
<title>scene/sceneComponents/stage.js</title>
<g id="a_node16"><a xlink:href="scene/sceneComponents/stage.js" xlink:title="stage.js">
<path fill="#ffffcc" stroke="black" d="M283.5,-436C283.5,-436 241.5,-436 241.5,-436 238.5,-436 235.5,-433 235.5,-430 235.5,-430 235.5,-424 235.5,-424 235.5,-421 238.5,-418 241.5,-418 241.5,-418 283.5,-418 283.5,-418 286.5,-418 289.5,-421 289.5,-424 289.5,-424 289.5,-430 289.5,-430 289.5,-433 286.5,-436 283.5,-436"/>
<text text-anchor="start" x="245" y="-424.8" font-family="Helvetica,sans-Serif" font-size="9.00">stage.js</text>
</a>
</g>
</g>
<!-- scene/graphicsManager.js&#45;&gt;scene/sceneComponents/stage.js -->
<g id="edge15" class="edge">
<title>scene/graphicsManager.js&#45;&gt;scene/sceneComponents/stage.js</title>
<path fill="none" stroke="#000000" stroke-width="2" stroke-opacity="0.200000" d="M177.54,-415.18C194.94,-417.63 213.9,-420.3 229.39,-422.48"/>
<polygon fill="#000000" fill-opacity="0.200000" stroke="#000000" stroke-width="2" stroke-opacity="0.200000" points="229.13,-424.56 235.36,-423.32 229.71,-420.41 229.13,-424.56"/>
</g>
<!-- simulation/signallingNetwork/signallingNetwork.js -->
<g id="node27" class="node">
<title>simulation/signallingNetwork/signallingNetwork.js</title>
<g id="a_node27"><a xlink:href="simulation/signallingNetwork/signallingNetwork.js" xlink:title="signallingNetwork.js">
<path fill="#ffffcc" stroke="black" d="M310,-199C310,-199 215,-199 215,-199 212,-199 209,-196 209,-193 209,-193 209,-187 209,-187 209,-184 212,-181 215,-181 215,-181 310,-181 310,-181 313,-181 316,-184 316,-187 316,-187 316,-193 316,-193 316,-196 313,-199 310,-199"/>
<text text-anchor="start" x="217" y="-187.8" font-family="Helvetica,sans-Serif" font-size="9.00">signallingNetwork.js</text>
</a>
</g>
</g>
<!-- simulation/simulationManager.js&#45;&gt;simulation/signallingNetwork/signallingNetwork.js -->
<g id="edge25" class="edge">
<title>simulation/simulationManager.js&#45;&gt;simulation/signallingNetwork/signallingNetwork.js</title>
<path fill="none" stroke="#000000" stroke-width="2" stroke-opacity="0.200000" d="M157.81,-219.95C177.52,-214.26 203.07,-206.88 223.88,-200.87"/>
<polygon fill="#000000" fill-opacity="0.200000" stroke="#000000" stroke-width="2" stroke-opacity="0.200000" points="224.71,-202.81 229.89,-199.13 223.54,-198.78 224.71,-202.81"/>
</g>
<!-- scene/plotOptions.js -->
<g id="node17" class="node">
<title>scene/plotOptions.js</title>
<g id="a_node17"><a xlink:href="scene/plotOptions.js" xlink:title="plotOptions.js">
<path fill="#ffffcc" stroke="black" d="M447,-398C447,-398 381,-398 381,-398 378,-398 375,-395 375,-392 375,-392 375,-386 375,-386 375,-383 378,-380 381,-380 381,-380 447,-380 447,-380 450,-380 453,-383 453,-386 453,-386 453,-392 453,-392 453,-395 450,-398 447,-398"/>
<text text-anchor="start" x="383" y="-386.8" font-family="Helvetica,sans-Serif" font-size="9.00">plotOptions.js</text>
</a>
</g>
</g>
<!-- scene/plot.js&#45;&gt;scene/plotOptions.js -->
<g id="edge16" class="edge">
<title>scene/plot.js&#45;&gt;scene/plotOptions.js</title>
<path fill="none" stroke="#000000" stroke-width="2" stroke-opacity="0.200000" d="M289.54,-389C311.38,-389 343.05,-389 368.84,-389"/>
<polygon fill="#000000" fill-opacity="0.200000" stroke="#000000" stroke-width="2" stroke-opacity="0.200000" points="368.92,-391.1 374.92,-389 368.92,-386.9 368.92,-391.1"/>
</g>
<!-- scene/sceneComponents/geometries.js -->
<g id="node18" class="node">
<title>scene/sceneComponents/geometries.js</title>
<g id="a_node18"><a xlink:href="scene/sceneComponents/geometries.js" xlink:title="geometries.js">
<path fill="#ffffcc" stroke="black" d="M446.5,-522C446.5,-522 381.5,-522 381.5,-522 378.5,-522 375.5,-519 375.5,-516 375.5,-516 375.5,-510 375.5,-510 375.5,-507 378.5,-504 381.5,-504 381.5,-504 446.5,-504 446.5,-504 449.5,-504 452.5,-507 452.5,-510 452.5,-510 452.5,-516 452.5,-516 452.5,-519 449.5,-522 446.5,-522"/>
<text text-anchor="start" x="383.5" y="-510.8" font-family="Helvetica,sans-Serif" font-size="9.00">geometries.js</text>
</a>
</g>
</g>
<!-- scene/sceneComponents/capsulePool.js&#45;&gt;scene/sceneComponents/geometries.js -->
<g id="edge17" class="edge">
<title>scene/sceneComponents/capsulePool.js&#45;&gt;scene/sceneComponents/geometries.js</title>
<path fill="none" stroke="#000000" stroke-width="2" stroke-opacity="0.200000" d="M302.39,-503.38C322.86,-505.16 348.04,-507.35 369.2,-509.19"/>
<polygon fill="#000000" fill-opacity="0.200000" stroke="#000000" stroke-width="2" stroke-opacity="0.200000" points="369.18,-511.3 375.34,-509.73 369.54,-507.11 369.18,-511.3"/>
</g>
<!-- scene/sceneComponents/stageComponetns/camera.js -->
<g id="node19" class="node">
<title>scene/sceneComponents/stageComponetns/camera.js</title>
<g id="a_node19"><a xlink:href="scene/sceneComponents/stageComponetns/camera.js" xlink:title="camera.js">
<path fill="#ffffcc" stroke="black" d="M438,-470C438,-470 390,-470 390,-470 387,-470 384,-467 384,-464 384,-464 384,-458 384,-458 384,-455 387,-452 390,-452 390,-452 438,-452 438,-452 441,-452 444,-455 444,-458 444,-458 444,-464 444,-464 444,-467 441,-470 438,-470"/>
<text text-anchor="start" x="392" y="-458.8" font-family="Helvetica,sans-Serif" font-size="9.00">camera.js</text>
</a>
</g>
</g>
<!-- scene/sceneComponents/stage.js&#45;&gt;scene/sceneComponents/stageComponetns/camera.js -->
<g id="edge18" class="edge">
<title>scene/sceneComponents/stage.js&#45;&gt;scene/sceneComponents/stageComponetns/camera.js</title>
<path fill="none" stroke="#000000" stroke-width="2" stroke-opacity="0.200000" d="M289.8,-432.79C302.29,-435.55 317.42,-438.92 331,-442 346.34,-445.48 363.27,-449.39 377.75,-452.76"/>
<polygon fill="#000000" fill-opacity="0.200000" stroke="#000000" stroke-width="2" stroke-opacity="0.200000" points="377.47,-454.85 383.79,-454.17 378.42,-450.76 377.47,-454.85"/>
</g>
<!-- scene/sceneComponents/stageComponetns/renderer.js -->
<g id="node20" class="node">
<title>scene/sceneComponents/stageComponetns/renderer.js</title>
<g id="a_node20"><a xlink:href="scene/sceneComponents/stageComponetns/renderer.js" xlink:title="renderer.js">
<path fill="#ffffcc" stroke="black" d="M440.5,-440C440.5,-440 387.5,-440 387.5,-440 384.5,-440 381.5,-437 381.5,-434 381.5,-434 381.5,-428 381.5,-428 381.5,-425 384.5,-422 387.5,-422 387.5,-422 440.5,-422 440.5,-422 443.5,-422 446.5,-425 446.5,-428 446.5,-428 446.5,-434 446.5,-434 446.5,-437 443.5,-440 440.5,-440"/>
<text text-anchor="start" x="389.5" y="-428.8" font-family="Helvetica,sans-Serif" font-size="9.00">renderer.js</text>
</a>
</g>
</g>
<!-- scene/sceneComponents/stage.js&#45;&gt;scene/sceneComponents/stageComponetns/renderer.js -->
<g id="edge19" class="edge">
<title>scene/sceneComponents/stage.js&#45;&gt;scene/sceneComponents/stageComponetns/renderer.js</title>
<path fill="none" stroke="#000000" stroke-width="2" stroke-opacity="0.200000" d="M289.54,-427.7C313.16,-428.33 348.28,-429.27 375.03,-429.98"/>
<polygon fill="#000000" fill-opacity="0.200000" stroke="#000000" stroke-width="2" stroke-opacity="0.200000" points="375.24,-432.09 381.29,-430.15 375.35,-427.89 375.24,-432.09"/>
</g>
<!-- simulation/signallingNetwork/FTCS.js -->
<g id="node21" class="node">
<title>simulation/signallingNetwork/FTCS.js</title>
<g id="a_node21"><a xlink:href="simulation/signallingNetwork/FTCS.js" xlink:title="no&#45;orphans">
<path fill="#ccffcc" stroke="orange" d="M283.5,-244C283.5,-244 241.5,-244 241.5,-244 238.5,-244 235.5,-241 235.5,-238 235.5,-238 235.5,-232 235.5,-232 235.5,-229 238.5,-226 241.5,-226 241.5,-226 283.5,-226 283.5,-226 286.5,-226 289.5,-229 289.5,-232 289.5,-232 289.5,-238 289.5,-238 289.5,-241 286.5,-244 283.5,-244"/>
<text text-anchor="start" x="246" y="-232.8" font-family="Helvetica,sans-Serif" font-size="9.00" fill="orange">FTCS.js</text>
</a>
</g>
</g>
<!-- simulation/signallingNetwork/extracellular/ADI.js -->
<g id="node22" class="node">
<title>simulation/signallingNetwork/extracellular/ADI.js</title>
<g id="a_node22"><a xlink:href="simulation/signallingNetwork/extracellular/ADI.js" xlink:title="ADI.js">
<path fill="#ffffcc" stroke="black" d="M435,-140C435,-140 393,-140 393,-140 390,-140 387,-137 387,-134 387,-134 387,-128 387,-128 387,-125 390,-122 393,-122 393,-122 435,-122 435,-122 438,-122 441,-125 441,-128 441,-128 441,-134 441,-134 441,-137 438,-140 435,-140"/>
<text text-anchor="start" x="401" y="-128.8" font-family="Helvetica,sans-Serif" font-size="9.00">ADI.js</text>
</a>
</g>
</g>
<!-- simulation/signallingNetwork/extracellular/initArrays.js -->
<g id="node23" class="node">
<title>simulation/signallingNetwork/extracellular/initArrays.js</title>
<g id="a_node23"><a xlink:href="simulation/signallingNetwork/extracellular/initArrays.js" xlink:title="initArrays.js">
<path fill="#ffffcc" stroke="black" d="M574,-110C574,-110 517,-110 517,-110 514,-110 511,-107 511,-104 511,-104 511,-98 511,-98 511,-95 514,-92 517,-92 517,-92 574,-92 574,-92 577,-92 580,-95 580,-98 580,-98 580,-104 580,-104 580,-107 577,-110 574,-110"/>
<text text-anchor="start" x="519" y="-98.8" font-family="Helvetica,sans-Serif" font-size="9.00">initArrays.js</text>
</a>
</g>
</g>
<!-- simulation/signallingNetwork/extracellular/ADI.js&#45;&gt;simulation/signallingNetwork/extracellular/initArrays.js -->
<g id="edge20" class="edge">
<title>simulation/signallingNetwork/extracellular/ADI.js&#45;&gt;simulation/signallingNetwork/extracellular/initArrays.js</title>
<path fill="none" stroke="#000000" stroke-width="2" stroke-opacity="0.200000" d="M441.21,-124.93C459.5,-120.69 484.26,-114.96 504.94,-110.16"/>
<polygon fill="#000000" fill-opacity="0.200000" stroke="#000000" stroke-width="2" stroke-opacity="0.200000" points="505.57,-112.17 510.94,-108.77 504.62,-108.08 505.57,-112.17"/>
</g>
<!-- simulation/signallingNetwork/extracellular/thomasAlgorithm.js -->
<g id="node24" class="node">
<title>simulation/signallingNetwork/extracellular/thomasAlgorithm.js</title>
<g id="a_node24"><a xlink:href="simulation/signallingNetwork/extracellular/thomasAlgorithm.js" xlink:title="thomasAlgorithm.js">
<path fill="#ffffcc" stroke="black" d="M591.5,-140C591.5,-140 499.5,-140 499.5,-140 496.5,-140 493.5,-137 493.5,-134 493.5,-134 493.5,-128 493.5,-128 493.5,-125 496.5,-122 499.5,-122 499.5,-122 591.5,-122 591.5,-122 594.5,-122 597.5,-125 597.5,-128 597.5,-128 597.5,-134 597.5,-134 597.5,-137 594.5,-140 591.5,-140"/>
<text text-anchor="start" x="501.5" y="-128.8" font-family="Helvetica,sans-Serif" font-size="9.00">thomasAlgorithm.js</text>
</a>
</g>
</g>
<!-- simulation/signallingNetwork/extracellular/ADI.js&#45;&gt;simulation/signallingNetwork/extracellular/thomasAlgorithm.js -->
<g id="edge21" class="edge">
<title>simulation/signallingNetwork/extracellular/ADI.js&#45;&gt;simulation/signallingNetwork/extracellular/thomasAlgorithm.js</title>
<path fill="none" stroke="#000000" stroke-width="2" stroke-opacity="0.200000" d="M441.21,-131C454.45,-131 471.08,-131 487.1,-131"/>
<polygon fill="#000000" fill-opacity="0.200000" stroke="#000000" stroke-width="2" stroke-opacity="0.200000" points="487.44,-133.1 493.44,-131 487.44,-128.9 487.44,-133.1"/>
</g>
<!-- simulation/signallingNetwork/grid.js -->
<g id="node25" class="node">
<title>simulation/signallingNetwork/grid.js</title>
<g id="a_node25"><a xlink:href="simulation/signallingNetwork/grid.js" xlink:title="grid.js">
<path fill="#ffffcc" stroke="black" d="M435,-192C435,-192 393,-192 393,-192 390,-192 387,-189 387,-186 387,-186 387,-180 387,-180 387,-177 390,-174 393,-174 393,-174 435,-174 435,-174 438,-174 441,-177 441,-180 441,-180 441,-186 441,-186 441,-189 438,-192 435,-192"/>
<text text-anchor="start" x="400" y="-180.8" font-family="Helvetica,sans-Serif" font-size="9.00">grid.js</text>
</a>
</g>
</g>
<!-- simulation/signallingNetwork/intracellular/cytoplasm.js -->
<g id="node26" class="node">
<title>simulation/signallingNetwork/intracellular/cytoplasm.js</title>
<g id="a_node26"><a xlink:href="simulation/signallingNetwork/intracellular/cytoplasm.js" xlink:title="cytoplasm.js">
<path fill="#ffffcc" stroke="black" d="M444.5,-226C444.5,-226 383.5,-226 383.5,-226 380.5,-226 377.5,-223 377.5,-220 377.5,-220 377.5,-214 377.5,-214 377.5,-211 380.5,-208 383.5,-208 383.5,-208 444.5,-208 444.5,-208 447.5,-208 450.5,-211 450.5,-214 450.5,-214 450.5,-220 450.5,-220 450.5,-223 447.5,-226 444.5,-226"/>
<text text-anchor="start" x="385.5" y="-214.8" font-family="Helvetica,sans-Serif" font-size="9.00">cytoplasm.js</text>
</a>
</g>
</g>
<!-- simulation/signallingNetwork/signallingNetwork.js&#45;&gt;simulation/signallingNetwork/extracellular/ADI.js -->
<g id="edge22" class="edge">
<title>simulation/signallingNetwork/signallingNetwork.js&#45;&gt;simulation/signallingNetwork/extracellular/ADI.js</title>
<path fill="none" stroke="#000000" stroke-width="2" stroke-opacity="0.200000" d="M279.7,-180.95C298.43,-170.78 330.43,-154.37 359.5,-144 366.32,-141.57 373.79,-139.43 380.93,-137.64"/>
<polygon fill="#000000" fill-opacity="0.200000" stroke="#000000" stroke-width="2" stroke-opacity="0.200000" points="381.49,-139.66 386.83,-136.21 380.5,-135.58 381.49,-139.66"/>
</g>
<!-- simulation/signallingNetwork/signallingNetwork.js&#45;&gt;simulation/signallingNetwork/grid.js -->
<g id="edge23" class="edge">
<title>simulation/signallingNetwork/signallingNetwork.js&#45;&gt;simulation/signallingNetwork/grid.js</title>
<path fill="none" stroke="#000000" stroke-width="2" stroke-opacity="0.200000" d="M316.21,-187.53C337.66,-186.53 361.77,-185.4 380.56,-184.52"/>
<polygon fill="#000000" fill-opacity="0.200000" stroke="#000000" stroke-width="2" stroke-opacity="0.200000" points="380.82,-186.61 386.72,-184.23 380.62,-182.41 380.82,-186.61"/>
</g>
<!-- simulation/signallingNetwork/signallingNetwork.js&#45;&gt;simulation/signallingNetwork/intracellular/cytoplasm.js -->
<g id="edge24" class="edge">
<title>simulation/signallingNetwork/signallingNetwork.js&#45;&gt;simulation/signallingNetwork/intracellular/cytoplasm.js</title>
<path fill="none" stroke="#000000" stroke-width="2" stroke-opacity="0.200000" d="M313.7,-199.07C332.45,-202.45 353.51,-206.26 371.4,-209.49"/>
<polygon fill="#000000" fill-opacity="0.200000" stroke="#000000" stroke-width="2" stroke-opacity="0.200000" points="371.06,-211.56 377.34,-210.56 371.81,-207.43 371.06,-211.56"/>
</g>
</g>
</svg>
