<?xml version="1.0" encoding="UTF-8" standalone="no"?>
<!DOCTYPE svg PUBLIC "-//W3C//DTD SVG 1.1//EN"
 "http://www.w3.org/Graphics/SVG/1.1/DTD/svg11.dtd">
<!-- Generated by graphviz version 2.43.0 (0)
 -->
<!-- Title: dependency&#45;cruiser output Pages: 1 -->
<svg width="873pt" height="906pt"
 viewBox="0.00 0.00 872.50 906.00" xmlns="http://www.w3.org/2000/svg" xmlns:xlink="http://www.w3.org/1999/xlink">
<g id="graph0" class="graph" transform="scale(1 1) rotate(0) translate(4 902)">
<title>dependency&#45;cruiser output</title>
<polygon fill="white" stroke="transparent" points="-4,4 -4,-902 868.5,-902 868.5,4 -4,4"/>
<g id="clust1" class="cluster">
<title>cluster_GUI</title>
<path fill="#ffffff" stroke="black" stroke-width="2" d="M151.5,-808C151.5,-808 573.5,-808 573.5,-808 579.5,-808 585.5,-814 585.5,-820 585.5,-820 585.5,-878 585.5,-878 585.5,-884 579.5,-890 573.5,-890 573.5,-890 151.5,-890 151.5,-890 145.5,-890 139.5,-884 139.5,-878 139.5,-878 139.5,-820 139.5,-820 139.5,-814 145.5,-808 151.5,-808"/>
<text text-anchor="middle" x="362.5" y="-878.8" font-family="Helvetica,sans-Serif" font-weight="bold" font-size="9.00">GUI</text>
</g>
<g id="clust2" class="cluster">
<title>cluster_https:</title>
<path fill="#ffffff" stroke="black" stroke-width="2" d="M271,-596C271,-596 439,-596 439,-596 445,-596 451,-602 451,-608 451,-608 451,-788 451,-788 451,-794 445,-800 439,-800 439,-800 271,-800 271,-800 265,-800 259,-794 259,-788 259,-788 259,-608 259,-608 259,-602 265,-596 271,-596"/>
<text text-anchor="middle" x="355" y="-788.8" font-family="Helvetica,sans-Serif" font-weight="bold" font-size="9.00">https:</text>
</g>
<g id="clust3" class="cluster">
<title>cluster_https:/</title>
<path fill="#ffffff" stroke="black" stroke-width="2" d="M279,-604C279,-604 431,-604 431,-604 437,-604 443,-610 443,-616 443,-616 443,-762 443,-762 443,-768 437,-774 431,-774 431,-774 279,-774 279,-774 273,-774 267,-768 267,-762 267,-762 267,-616 267,-616 267,-610 273,-604 279,-604"/>
</g>
<g id="clust4" class="cluster">
<title>cluster_https://cdn.jsdelivr.net</title>
<path fill="#ffffff" stroke="black" stroke-width="2" d="M287,-612C287,-612 423,-612 423,-612 429,-612 435,-618 435,-624 435,-624 435,-754 435,-754 435,-760 429,-766 423,-766 423,-766 287,-766 287,-766 281,-766 275,-760 275,-754 275,-754 275,-624 275,-624 275,-618 281,-612 287,-612"/>
<text text-anchor="middle" x="355" y="-754.8" font-family="Helvetica,sans-Serif" font-weight="bold" font-size="9.00">cdn.jsdelivr.net</text>
</g>
<g id="clust5" class="cluster">
<title>cluster_https://cdn.jsdelivr.net/npm</title>
<path fill="#ffffff" stroke="black" stroke-width="2" d="M295,-620C295,-620 415,-620 415,-620 421,-620 427,-626 427,-632 427,-632 427,-728 427,-728 427,-734 421,-740 415,-740 415,-740 295,-740 295,-740 289,-740 283,-734 283,-728 283,-728 283,-632 283,-632 283,-626 289,-620 295,-620"/>
<text text-anchor="middle" x="355" y="-728.8" font-family="Helvetica,sans-Serif" font-weight="bold" font-size="9.00">npm</text>
</g>
<g id="clust6" class="cluster">
<title>cluster_https://cdn.jsdelivr.net/npm/tweakpane@4.0.5</title>
<path fill="#ffffff" stroke="black" stroke-width="2" d="M303,-628C303,-628 407,-628 407,-628 413,-628 419,-634 419,-640 419,-640 419,-702 419,-702 419,-708 413,-714 407,-714 407,-714 303,-714 303,-714 297,-714 291,-708 291,-702 291,-702 291,-640 291,-640 291,-634 297,-628 303,-628"/>
<text text-anchor="middle" x="355" y="-702.8" font-family="Helvetica,sans-Serif" font-weight="bold" font-size="9.00">tweakpane@4.0.5</text>
</g>
<g id="clust7" class="cluster">
<title>cluster_https://cdn.jsdelivr.net/npm/tweakpane@4.0.5/dist</title>
<path fill="#ffffff" stroke="black" stroke-width="2" d="M311,-636C311,-636 399,-636 399,-636 405,-636 411,-642 411,-648 411,-648 411,-676 411,-676 411,-682 405,-688 399,-688 399,-688 311,-688 311,-688 305,-688 299,-682 299,-676 299,-676 299,-648 299,-648 299,-642 305,-636 311,-636"/>
<text text-anchor="middle" x="355" y="-676.8" font-family="Helvetica,sans-Serif" font-weight="bold" font-size="9.00">dist</text>
</g>
<g id="clust8" class="cluster">
<title>cluster_scene</title>
<path fill="#ffffff" stroke="black" stroke-width="2" d="M147.5,-326C147.5,-326 589,-326 589,-326 595,-326 601,-332 601,-338 601,-338 601,-576 601,-576 601,-582 595,-588 589,-588 589,-588 147.5,-588 147.5,-588 141.5,-588 135.5,-582 135.5,-576 135.5,-576 135.5,-338 135.5,-338 135.5,-332 141.5,-326 147.5,-326"/>
<text text-anchor="middle" x="368.25" y="-576.8" font-family="Helvetica,sans-Serif" font-weight="bold" font-size="9.00">scene</text>
</g>
<g id="clust9" class="cluster">
<title>cluster_scene/sceneComponents</title>
<path fill="#ffffff" stroke="black" stroke-width="2" d="M319.5,-420C319.5,-420 581,-420 581,-420 587,-420 593,-426 593,-432 593,-432 593,-550 593,-550 593,-556 587,-562 581,-562 581,-562 319.5,-562 319.5,-562 313.5,-562 307.5,-556 307.5,-550 307.5,-550 307.5,-432 307.5,-432 307.5,-426 313.5,-420 319.5,-420"/>
<text text-anchor="middle" x="450.25" y="-550.8" font-family="Helvetica,sans-Serif" font-weight="bold" font-size="9.00">sceneComponents</text>
</g>
<g id="clust10" class="cluster">
<title>cluster_scene/sceneComponents/stageComponetns</title>
<path fill="#ffffff" stroke="black" stroke-width="2" d="M487,-428C487,-428 573,-428 573,-428 579,-428 585,-434 585,-440 585,-440 585,-498 585,-498 585,-504 579,-510 573,-510 573,-510 487,-510 487,-510 481,-510 475,-504 475,-498 475,-498 475,-440 475,-440 475,-434 481,-428 487,-428"/>
<text text-anchor="middle" x="530" y="-498.8" font-family="Helvetica,sans-Serif" font-weight="bold" font-size="9.00">stageComponetns</text>
</g>
<g id="clust11" class="cluster">
<title>cluster_simulation</title>
<path fill="#ffffff" stroke="black" stroke-width="2" d="M144,-68C144,-68 844.5,-68 844.5,-68 850.5,-68 856.5,-74 856.5,-80 856.5,-80 856.5,-306 856.5,-306 856.5,-312 850.5,-318 844.5,-318 844.5,-318 144,-318 144,-318 138,-318 132,-312 132,-306 132,-306 132,-80 132,-80 132,-74 138,-68 144,-68"/>
<text text-anchor="middle" x="494.25" y="-306.8" font-family="Helvetica,sans-Serif" font-weight="bold" font-size="9.00">simulation</text>
</g>
<g id="clust12" class="cluster">
<title>cluster_simulation/signallingNetwork</title>
<path fill="#ffffff" stroke="black" stroke-width="2" d="M305.5,-76C305.5,-76 836.5,-76 836.5,-76 842.5,-76 848.5,-82 848.5,-88 848.5,-88 848.5,-280 848.5,-280 848.5,-286 842.5,-292 836.5,-292 836.5,-292 305.5,-292 305.5,-292 299.5,-292 293.5,-286 293.5,-280 293.5,-280 293.5,-88 293.5,-88 293.5,-82 299.5,-76 305.5,-76"/>
<text text-anchor="middle" x="571" y="-280.8" font-family="Helvetica,sans-Serif" font-weight="bold" font-size="9.00">signallingNetwork</text>
</g>
<g id="clust13" class="cluster">
<title>cluster_simulation/signallingNetwork/extracellular</title>
<path fill="#ffffff" stroke="black" stroke-width="2" d="M506.5,-84C506.5,-84 715.5,-84 715.5,-84 721.5,-84 727.5,-90 727.5,-96 727.5,-96 727.5,-154 727.5,-154 727.5,-160 721.5,-166 715.5,-166 715.5,-166 506.5,-166 506.5,-166 500.5,-166 494.5,-160 494.5,-154 494.5,-154 494.5,-96 494.5,-96 494.5,-90 500.5,-84 506.5,-84"/>
<text text-anchor="middle" x="611" y="-154.8" font-family="Helvetica,sans-Serif" font-weight="bold" font-size="9.00">extracellular</text>
</g>
<g id="clust14" class="cluster">
<title>cluster_simulation/signallingNetwork/intracellular</title>
<path fill="#ffffff" stroke="black" stroke-width="2" d="M478,-200C478,-200 828.5,-200 828.5,-200 834.5,-200 840.5,-206 840.5,-212 840.5,-212 840.5,-254 840.5,-254 840.5,-260 834.5,-266 828.5,-266 828.5,-266 478,-266 478,-266 472,-266 466,-260 466,-254 466,-254 466,-212 466,-212 466,-206 472,-200 478,-200"/>
<text text-anchor="middle" x="653.25" y="-254.8" font-family="Helvetica,sans-Serif" font-weight="bold" font-size="9.00">intracellular</text>
</g>
<g id="clust15" class="cluster">
<title>cluster_state</title>
<path fill="#ffffff" stroke="black" stroke-width="2" d="M156,-8C156,-8 235,-8 235,-8 241,-8 247,-14 247,-20 247,-20 247,-48 247,-48 247,-54 241,-60 235,-60 235,-60 156,-60 156,-60 150,-60 144,-54 144,-48 144,-48 144,-20 144,-20 144,-14 150,-8 156,-8"/>
<text text-anchor="middle" x="195.5" y="-48.8" font-family="Helvetica,sans-Serif" font-weight="bold" font-size="9.00">state</text>
</g>
<!-- .dependency&#45;cruiser.cjs -->
<g id="node1" class="node">
<title>.dependency&#45;cruiser.cjs</title>
<g id="a_node1"><a xlink:href=".dependency-cruiser.cjs" xlink:title=".dependency&#45;cruiser.cjs">
<path fill="#ccffcc" stroke="black" d="M118,-341C118,-341 6,-341 6,-341 3,-341 0,-338 0,-335 0,-335 0,-329 0,-329 0,-326 3,-323 6,-323 6,-323 118,-323 118,-323 121,-323 124,-326 124,-329 124,-329 124,-335 124,-335 124,-338 121,-341 118,-341"/>
<text text-anchor="middle" x="62" y="-329.8" font-family="Helvetica,sans-Serif" font-size="9.00">.dependency&#45;cruiser.cjs</text>
</a>
</g>
</g>
<!-- ArbCircuit.js -->
<g id="node2" class="node">
<title>ArbCircuit.js</title>
<g id="a_node2"><a xlink:href="ArbCircuit.js" xlink:title="no&#45;orphans">
<path fill="#ccffcc" stroke="orange" d="M91.5,-371C91.5,-371 32.5,-371 32.5,-371 29.5,-371 26.5,-368 26.5,-365 26.5,-365 26.5,-359 26.5,-359 26.5,-356 29.5,-353 32.5,-353 32.5,-353 91.5,-353 91.5,-353 94.5,-353 97.5,-356 97.5,-359 97.5,-359 97.5,-365 97.5,-365 97.5,-368 94.5,-371 91.5,-371"/>
<text text-anchor="middle" x="62" y="-359.8" font-family="Helvetica,sans-Serif" font-size="9.00" fill="orange">ArbCircuit.js</text>
</a>
</g>
</g>
<!-- CircuitMod.js -->
<g id="node3" class="node">
<title>CircuitMod.js</title>
<g id="a_node3"><a xlink:href="CircuitMod.js" xlink:title="no&#45;orphans">
<path fill="#ccffcc" stroke="orange" d="M93,-401C93,-401 31,-401 31,-401 28,-401 25,-398 25,-395 25,-395 25,-389 25,-389 25,-386 28,-383 31,-383 31,-383 93,-383 93,-383 96,-383 99,-386 99,-389 99,-389 99,-395 99,-395 99,-398 96,-401 93,-401"/>
<text text-anchor="middle" x="62" y="-389.8" font-family="Helvetica,sans-Serif" font-size="9.00" fill="orange">CircuitMod.js</text>
</a>
</g>
</g>
<!-- GUI/controlManager.js -->
<g id="node4" class="node">
<title>GUI/controlManager.js</title>
<g id="a_node4"><a xlink:href="GUI/controlManager.js" xlink:title="controlManager.js">
<path fill="#ffffcc" stroke="black" d="M237.5,-834C237.5,-834 153.5,-834 153.5,-834 150.5,-834 147.5,-831 147.5,-828 147.5,-828 147.5,-822 147.5,-822 147.5,-819 150.5,-816 153.5,-816 153.5,-816 237.5,-816 237.5,-816 240.5,-816 243.5,-819 243.5,-822 243.5,-822 243.5,-828 243.5,-828 243.5,-831 240.5,-834 237.5,-834"/>
<text text-anchor="start" x="155.5" y="-822.8" font-family="Helvetica,sans-Serif" font-size="9.00">controlManager.js</text>
</a>
</g>
</g>
<!-- GUI/sessionTab.js -->
<g id="node5" class="node">
<title>GUI/sessionTab.js</title>
<g id="a_node5"><a xlink:href="GUI/sessionTab.js" xlink:title="sessionTab.js">
<path fill="#ffffcc" stroke="black" d="M386,-834C386,-834 324,-834 324,-834 321,-834 318,-831 318,-828 318,-828 318,-822 318,-822 318,-819 321,-816 324,-816 324,-816 386,-816 386,-816 389,-816 392,-819 392,-822 392,-822 392,-828 392,-828 392,-831 389,-834 386,-834"/>
<text text-anchor="start" x="326" y="-822.8" font-family="Helvetica,sans-Serif" font-size="9.00">sessionTab.js</text>
</a>
</g>
</g>
<!-- GUI/controlManager.js&#45;&gt;GUI/sessionTab.js -->
<g id="edge1" class="edge">
<title>GUI/controlManager.js&#45;&gt;GUI/sessionTab.js</title>
<path fill="none" stroke="#000000" stroke-width="2" stroke-opacity="0.200000" d="M243.76,-825C265.36,-825 290.76,-825 311.72,-825"/>
<polygon fill="#000000" fill-opacity="0.200000" stroke="#000000" stroke-width="2" stroke-opacity="0.200000" points="311.8,-827.1 317.8,-825 311.8,-822.9 311.8,-827.1"/>
</g>
<!-- GUI/signallingTab.js -->
<g id="node6" class="node">
<title>GUI/signallingTab.js</title>
<g id="a_node6"><a xlink:href="GUI/signallingTab.js" xlink:title="signallingTab.js">
<path fill="#ffffcc" stroke="black" d="M391,-864C391,-864 319,-864 319,-864 316,-864 313,-861 313,-858 313,-858 313,-852 313,-852 313,-849 316,-846 319,-846 319,-846 391,-846 391,-846 394,-846 397,-849 397,-852 397,-852 397,-858 397,-858 397,-861 394,-864 391,-864"/>
<text text-anchor="start" x="321" y="-852.8" font-family="Helvetica,sans-Serif" font-size="9.00">signallingTab.js</text>
</a>
</g>
</g>
<!-- GUI/controlManager.js&#45;&gt;GUI/signallingTab.js -->
<g id="edge2" class="edge">
<title>GUI/controlManager.js&#45;&gt;GUI/signallingTab.js</title>
<path fill="none" stroke="#000000" stroke-width="2" stroke-opacity="0.200000" d="M232.09,-834.05C240.86,-836.14 250.24,-838.26 259,-840 274.47,-843.07 291.46,-845.92 306.74,-848.29"/>
<polygon fill="#000000" fill-opacity="0.200000" stroke="#000000" stroke-width="2" stroke-opacity="0.200000" points="306.48,-850.37 312.72,-849.21 307.11,-846.22 306.48,-850.37"/>
</g>
<!-- https://cdn.jsdelivr.net/npm/tweakpane@4.0.5/dist/tweakpane.min.js -->
<g id="node7" class="node">
<title>https://cdn.jsdelivr.net/npm/tweakpane@4.0.5/dist/tweakpane.min.js</title>
<g id="a_node7"><a xlink:title="tweakpane.min.js">
<path fill="#ffffcc" stroke="black" d="M397,-662C397,-662 313,-662 313,-662 310,-662 307,-659 307,-656 307,-656 307,-650 307,-650 307,-647 310,-644 313,-644 313,-644 397,-644 397,-644 400,-644 403,-647 403,-650 403,-650 403,-656 403,-656 403,-659 400,-662 397,-662"/>
<text text-anchor="start" x="315" y="-650.8" font-family="Helvetica,sans-Serif" font-size="9.00">tweakpane.min.js</text>
</a>
</g>
</g>
<!-- GUI/controlManager.js&#45;&gt;https://cdn.jsdelivr.net/npm/tweakpane@4.0.5/dist/tweakpane.min.js -->
<g id="edge3" class="edge">
<title>GUI/controlManager.js&#45;&gt;https://cdn.jsdelivr.net/npm/tweakpane@4.0.5/dist/tweakpane.min.js</title>
<g id="a_edge3"><a xlink:title="not&#45;to&#45;unresolvable">
<path fill="none" stroke="red" stroke-width="2" d="M204.97,-815.75C231.03,-787.29 310.17,-700.86 341.26,-666.91"/>
<polygon fill="red" stroke="red" stroke-width="2" points="342.99,-668.14 345.49,-662.29 339.89,-665.3 342.99,-668.14"/>
</a>
</g>
<text text-anchor="middle" x="231.34" y="-731.71" font-family="Helvetica,sans-Serif" font-size="9.00" fill="red">not&#45;to&#45;unresolvable</text>
</g>
<!-- GUI/dataProcessor.js -->
<g id="node8" class="node">
<title>GUI/dataProcessor.js</title>
<g id="a_node8"><a xlink:href="GUI/dataProcessor.js" xlink:title="dataProcessor.js">
<path fill="#ffffcc" stroke="black" d="M568,-834C568,-834 491,-834 491,-834 488,-834 485,-831 485,-828 485,-828 485,-822 485,-822 485,-819 488,-816 491,-816 491,-816 568,-816 568,-816 571,-816 574,-819 574,-822 574,-822 574,-828 574,-828 574,-831 571,-834 568,-834"/>
<text text-anchor="start" x="493" y="-822.8" font-family="Helvetica,sans-Serif" font-size="9.00">dataProcessor.js</text>
</a>
</g>
</g>
<!-- GUI/sessionTab.js&#45;&gt;GUI/dataProcessor.js -->
<g id="edge4" class="edge">
<title>GUI/sessionTab.js&#45;&gt;GUI/dataProcessor.js</title>
<path fill="none" stroke="#000000" stroke-width="2" stroke-opacity="0.200000" d="M392.16,-825C417.24,-825 450.95,-825 478.58,-825"/>
<polygon fill="#000000" fill-opacity="0.200000" stroke="#000000" stroke-width="2" stroke-opacity="0.200000" points="478.74,-827.1 484.74,-825 478.74,-822.9 478.74,-827.1"/>
</g>
<!-- GUI/visualizationTab.js -->
<g id="node9" class="node">
<title>GUI/visualizationTab.js</title>
<g id="a_node9"><a xlink:href="GUI/visualizationTab.js" xlink:title="visualizationTab.js">
<path fill="#ffffcc" stroke="black" d="M571.5,-864C571.5,-864 487.5,-864 487.5,-864 484.5,-864 481.5,-861 481.5,-858 481.5,-858 481.5,-852 481.5,-852 481.5,-849 484.5,-846 487.5,-846 487.5,-846 571.5,-846 571.5,-846 574.5,-846 577.5,-849 577.5,-852 577.5,-852 577.5,-858 577.5,-858 577.5,-861 574.5,-864 571.5,-864"/>
<text text-anchor="start" x="489.5" y="-852.8" font-family="Helvetica,sans-Serif" font-size="9.00">visualizationTab.js</text>
</a>
</g>
</g>
<!-- GUI/signallingTab.js&#45;&gt;GUI/visualizationTab.js -->
<g id="edge5" class="edge">
<title>GUI/signallingTab.js&#45;&gt;GUI/visualizationTab.js</title>
<path fill="none" stroke="#000000" stroke-width="2" stroke-opacity="0.200000" d="M397.32,-855C420.66,-855 450.09,-855 475.15,-855"/>
<polygon fill="#000000" fill-opacity="0.200000" stroke="#000000" stroke-width="2" stroke-opacity="0.200000" points="475.43,-857.1 481.43,-855 475.43,-852.9 475.43,-857.1"/>
</g>
<!-- config.js -->
<g id="node10" class="node">
<title>config.js</title>
<g id="a_node10"><a xlink:href="config.js" xlink:title="config.js">
<path fill="#ffffcc" stroke="black" d="M217,-614C217,-614 174,-614 174,-614 171,-614 168,-611 168,-608 168,-608 168,-602 168,-602 168,-599 171,-596 174,-596 174,-596 217,-596 217,-596 220,-596 223,-599 223,-602 223,-602 223,-608 223,-608 223,-611 220,-614 217,-614"/>
<text text-anchor="middle" x="195.5" y="-602.8" font-family="Helvetica,sans-Serif" font-size="9.00">config.js</text>
</a>
</g>
</g>
<!-- jest.config.js -->
<g id="node11" class="node">
<title>jest.config.js</title>
<g id="a_node11"><a xlink:href="jest.config.js" xlink:title="no&#45;orphans">
<path fill="#ccffcc" stroke="orange" d="M93,-461C93,-461 31,-461 31,-461 28,-461 25,-458 25,-455 25,-455 25,-449 25,-449 25,-446 28,-443 31,-443 31,-443 93,-443 93,-443 96,-443 99,-446 99,-449 99,-449 99,-455 99,-455 99,-458 96,-461 93,-461"/>
<text text-anchor="middle" x="62" y="-449.8" font-family="Helvetica,sans-Serif" font-size="9.00" fill="orange">jest.config.js</text>
</a>
</g>
</g>
<!-- main.js -->
<g id="node12" class="node">
<title>main.js</title>
<g id="a_node12"><a xlink:href="main.js" xlink:title="main.js">
<path fill="#ffffcc" stroke="black" d="M83,-431C83,-431 41,-431 41,-431 38,-431 35,-428 35,-425 35,-425 35,-419 35,-419 35,-416 38,-413 41,-413 41,-413 83,-413 83,-413 86,-413 89,-416 89,-419 89,-419 89,-425 89,-425 89,-428 86,-431 83,-431"/>
<text text-anchor="middle" x="62" y="-419.8" font-family="Helvetica,sans-Serif" font-size="9.00">main.js</text>
</a>
</g>
</g>
<!-- main.js&#45;&gt;GUI/controlManager.js -->
<g id="edge7" class="edge">
<title>main.js&#45;&gt;GUI/controlManager.js</title>
<path fill="none" stroke="#000000" stroke-width="2" stroke-opacity="0.200000" d="M89.02,-421.6C101.55,-422.89 115.63,-426.79 124,-437 136.9,-452.74 128.56,-599.94 132,-620 144.55,-693.19 175.52,-776.86 188.56,-810.18"/>
<polygon fill="#000000" fill-opacity="0.200000" stroke="#000000" stroke-width="2" stroke-opacity="0.200000" points="186.62,-810.99 190.78,-815.8 190.53,-809.45 186.62,-810.99"/>
</g>
<!-- main.js&#45;&gt;config.js -->
<g id="edge6" class="edge">
<title>main.js&#45;&gt;config.js</title>
<path fill="none" stroke="#000000" stroke-width="2" stroke-opacity="0.200000" d="M89.3,-421.66C101.74,-422.99 115.66,-426.91 124,-437 145.83,-463.41 109.89,-564.82 132,-591 139.32,-599.67 150.75,-603.66 161.83,-605.31"/>
<polygon fill="#000000" fill-opacity="0.200000" stroke="#000000" stroke-width="2" stroke-opacity="0.200000" points="161.73,-607.41 167.93,-606 162.21,-603.24 161.73,-607.41"/>
</g>
<!-- scene/graphicsManager.js -->
<g id="node13" class="node">
<title>scene/graphicsManager.js</title>
<g id="a_node13"><a xlink:href="scene/graphicsManager.js" xlink:title="graphicsManager.js">
<path fill="#ffffcc" stroke="black" d="M241.5,-431C241.5,-431 149.5,-431 149.5,-431 146.5,-431 143.5,-428 143.5,-425 143.5,-425 143.5,-419 143.5,-419 143.5,-416 146.5,-413 149.5,-413 149.5,-413 241.5,-413 241.5,-413 244.5,-413 247.5,-416 247.5,-419 247.5,-419 247.5,-425 247.5,-425 247.5,-428 244.5,-431 241.5,-431"/>
<text text-anchor="start" x="151.5" y="-419.8" font-family="Helvetica,sans-Serif" font-size="9.00">graphicsManager.js</text>
</a>
</g>
</g>
<!-- main.js&#45;&gt;scene/graphicsManager.js -->
<g id="edge8" class="edge">
<title>main.js&#45;&gt;scene/graphicsManager.js</title>
<path fill="none" stroke="#000000" stroke-width="2" stroke-opacity="0.200000" d="M89.29,-422C103.11,-422 120.62,-422 137.37,-422"/>
<polygon fill="#000000" fill-opacity="0.200000" stroke="#000000" stroke-width="2" stroke-opacity="0.200000" points="137.5,-424.1 143.5,-422 137.5,-419.9 137.5,-424.1"/>
</g>
<!-- simulation/simulationManager.js -->
<g id="node14" class="node">
<title>simulation/simulationManager.js</title>
<g id="a_node14"><a xlink:href="simulation/simulationManager.js" xlink:title="simulationManager.js">
<path fill="#ffffcc" stroke="black" d="M245,-251C245,-251 146,-251 146,-251 143,-251 140,-248 140,-245 140,-245 140,-239 140,-239 140,-236 143,-233 146,-233 146,-233 245,-233 245,-233 248,-233 251,-236 251,-239 251,-239 251,-245 251,-245 251,-248 248,-251 245,-251"/>
<text text-anchor="start" x="148" y="-239.8" font-family="Helvetica,sans-Serif" font-size="9.00">simulationManager.js</text>
</a>
</g>
</g>
<!-- main.js&#45;&gt;simulation/simulationManager.js -->
<g id="edge9" class="edge">
<title>main.js&#45;&gt;simulation/simulationManager.js</title>
<path fill="none" stroke="#000000" stroke-width="2" stroke-opacity="0.200000" d="M89.11,-422.18C101.51,-420.82 115.45,-416.9 124,-407 136.26,-392.81 125.11,-340.44 132,-323 142.64,-296.05 165.1,-270.56 179.99,-255.61"/>
<polygon fill="#000000" fill-opacity="0.200000" stroke="#000000" stroke-width="2" stroke-opacity="0.200000" points="181.55,-257.02 184.35,-251.32 178.6,-254.03 181.55,-257.02"/>
</g>
<!-- state/stateManager.js -->
<g id="node15" class="node">
<title>state/stateManager.js</title>
<g id="a_node15"><a xlink:href="state/stateManager.js" xlink:title="stateManager.js">
<path fill="#ffffcc" stroke="black" d="M233,-34C233,-34 158,-34 158,-34 155,-34 152,-31 152,-28 152,-28 152,-22 152,-22 152,-19 155,-16 158,-16 158,-16 233,-16 233,-16 236,-16 239,-19 239,-22 239,-22 239,-28 239,-28 239,-31 236,-34 233,-34"/>
<text text-anchor="start" x="160" y="-22.8" font-family="Helvetica,sans-Serif" font-size="9.00">stateManager.js</text>
</a>
</g>
</g>
<!-- main.js&#45;&gt;state/stateManager.js -->
<g id="edge10" class="edge">
<title>main.js&#45;&gt;state/stateManager.js</title>
<path fill="none" stroke="#000000" stroke-width="2" stroke-opacity="0.200000" d="M89.11,-422.47C101.66,-421.2 115.74,-417.29 124,-407 135.9,-392.18 122.68,-81.56 132,-65 139.07,-52.44 151.89,-43.22 164.09,-36.82"/>
<polygon fill="#000000" fill-opacity="0.200000" stroke="#000000" stroke-width="2" stroke-opacity="0.200000" points="165.19,-38.62 169.63,-34.07 163.32,-34.85 165.19,-38.62"/>
</g>
<!-- scene/graphycLibrariesImports.js -->
<g id="node16" class="node">
<title>scene/graphycLibrariesImports.js</title>
<g id="a_node16"><a xlink:href="scene/graphycLibrariesImports.js" xlink:title="graphycLibrariesImports.js">
<path fill="#ffffcc" stroke="black" d="M417.5,-352C417.5,-352 292.5,-352 292.5,-352 289.5,-352 286.5,-349 286.5,-346 286.5,-346 286.5,-340 286.5,-340 286.5,-337 289.5,-334 292.5,-334 292.5,-334 417.5,-334 417.5,-334 420.5,-334 423.5,-337 423.5,-340 423.5,-340 423.5,-346 423.5,-346 423.5,-349 420.5,-352 417.5,-352"/>
<text text-anchor="start" x="294.5" y="-340.8" font-family="Helvetica,sans-Serif" font-size="9.00">graphycLibrariesImports.js</text>
</a>
</g>
</g>
<!-- scene/graphicsManager.js&#45;&gt;scene/graphycLibrariesImports.js -->
<g id="edge11" class="edge">
<title>scene/graphicsManager.js&#45;&gt;scene/graphycLibrariesImports.js</title>
<path fill="none" stroke="#000000" stroke-width="2" stroke-opacity="0.200000" d="M202.53,-412.77C212.43,-398.44 233.61,-371.12 259,-358 265.61,-354.59 272.79,-351.91 280.15,-349.81"/>
<polygon fill="#000000" fill-opacity="0.200000" stroke="#000000" stroke-width="2" stroke-opacity="0.200000" points="281.09,-351.73 286.36,-348.18 280.02,-347.67 281.09,-351.73"/>
</g>
<!-- scene/overlay.js -->
<g id="node17" class="node">
<title>scene/overlay.js</title>
<g id="a_node17"><a xlink:href="scene/overlay.js" xlink:title="overlay.js">
<path fill="#ffffcc" stroke="black" d="M377.5,-382C377.5,-382 332.5,-382 332.5,-382 329.5,-382 326.5,-379 326.5,-376 326.5,-376 326.5,-370 326.5,-370 326.5,-367 329.5,-364 332.5,-364 332.5,-364 377.5,-364 377.5,-364 380.5,-364 383.5,-367 383.5,-370 383.5,-370 383.5,-376 383.5,-376 383.5,-379 380.5,-382 377.5,-382"/>
<text text-anchor="start" x="334.5" y="-370.8" font-family="Helvetica,sans-Serif" font-size="9.00">overlay.js</text>
</a>
</g>
</g>
<!-- scene/graphicsManager.js&#45;&gt;scene/overlay.js -->
<g id="edge12" class="edge">
<title>scene/graphicsManager.js&#45;&gt;scene/overlay.js</title>
<path fill="none" stroke="#000000" stroke-width="2" stroke-opacity="0.200000" d="M210.26,-412.71C222.52,-404.89 241.22,-394.04 259,-388 278.74,-381.29 301.83,-377.56 320.3,-375.5"/>
<polygon fill="#000000" fill-opacity="0.200000" stroke="#000000" stroke-width="2" stroke-opacity="0.200000" points="320.63,-377.57 326.38,-374.86 320.19,-373.4 320.63,-377.57"/>
</g>
<!-- scene/plot.js -->
<g id="node18" class="node">
<title>scene/plot.js</title>
<g id="a_node18"><a xlink:href="scene/plot.js" xlink:title="plot.js">
<path fill="#ffffcc" stroke="black" d="M376,-412C376,-412 334,-412 334,-412 331,-412 328,-409 328,-406 328,-406 328,-400 328,-400 328,-397 331,-394 334,-394 334,-394 376,-394 376,-394 379,-394 382,-397 382,-400 382,-400 382,-406 382,-406 382,-409 379,-412 376,-412"/>
<text text-anchor="start" x="341" y="-400.8" font-family="Helvetica,sans-Serif" font-size="9.00">plot.js</text>
</a>
</g>
</g>
<!-- scene/graphicsManager.js&#45;&gt;scene/plot.js -->
<g id="edge13" class="edge">
<title>scene/graphicsManager.js&#45;&gt;scene/plot.js</title>
<path fill="none" stroke="#000000" stroke-width="2" stroke-opacity="0.200000" d="M247.64,-415.83C272,-412.89 300.4,-409.47 321.72,-406.89"/>
<polygon fill="#000000" fill-opacity="0.200000" stroke="#000000" stroke-width="2" stroke-opacity="0.200000" points="322.11,-408.96 327.82,-406.16 321.61,-404.79 322.11,-408.96"/>
</g>
<!-- scene/sceneComponents/capsulePool.js -->
<g id="node19" class="node">
<title>scene/sceneComponents/capsulePool.js</title>
<g id="a_node19"><a xlink:href="scene/sceneComponents/capsulePool.js" xlink:title="capsulePool.js">
<path fill="#ffffcc" stroke="black" d="M388.5,-523C388.5,-523 321.5,-523 321.5,-523 318.5,-523 315.5,-520 315.5,-517 315.5,-517 315.5,-511 315.5,-511 315.5,-508 318.5,-505 321.5,-505 321.5,-505 388.5,-505 388.5,-505 391.5,-505 394.5,-508 394.5,-511 394.5,-511 394.5,-517 394.5,-517 394.5,-520 391.5,-523 388.5,-523"/>
<text text-anchor="start" x="323.5" y="-511.8" font-family="Helvetica,sans-Serif" font-size="9.00">capsulePool.js</text>
</a>
</g>
</g>
<!-- scene/graphicsManager.js&#45;&gt;scene/sceneComponents/capsulePool.js -->
<g id="edge14" class="edge">
<title>scene/graphicsManager.js&#45;&gt;scene/sceneComponents/capsulePool.js</title>
<path fill="none" stroke="#000000" stroke-width="2" stroke-opacity="0.200000" d="M203.08,-431.3C213.41,-445.22 234.78,-471.42 259,-486 274.22,-495.16 292.63,-501.49 309.17,-505.78"/>
<polygon fill="#000000" fill-opacity="0.200000" stroke="#000000" stroke-width="2" stroke-opacity="0.200000" points="308.84,-507.86 315.17,-507.27 309.85,-503.78 308.84,-507.86"/>
</g>
<!-- scene/sceneComponents/mesh.js -->
<g id="node20" class="node">
<title>scene/sceneComponents/mesh.js</title>
<g id="a_node20"><a xlink:href="scene/sceneComponents/mesh.js" xlink:title="mesh.js">
<path fill="#ffffcc" stroke="black" d="M376,-480C376,-480 334,-480 334,-480 331,-480 328,-477 328,-474 328,-474 328,-468 328,-468 328,-465 331,-462 334,-462 334,-462 376,-462 376,-462 379,-462 382,-465 382,-468 382,-468 382,-474 382,-474 382,-477 379,-480 376,-480"/>
<text text-anchor="start" x="337.5" y="-468.8" font-family="Helvetica,sans-Serif" font-size="9.00">mesh.js</text>
</a>
</g>
</g>
<!-- scene/graphicsManager.js&#45;&gt;scene/sceneComponents/mesh.js -->
<g id="edge15" class="edge">
<title>scene/graphicsManager.js&#45;&gt;scene/sceneComponents/mesh.js</title>
<path fill="none" stroke="#000000" stroke-width="2" stroke-opacity="0.200000" d="M210.26,-431.29C222.52,-439.11 241.22,-449.96 259,-456 279.17,-462.85 302.83,-466.6 321.49,-468.63"/>
<polygon fill="#000000" fill-opacity="0.200000" stroke="#000000" stroke-width="2" stroke-opacity="0.200000" points="321.44,-470.74 327.62,-469.26 321.86,-466.56 321.44,-470.74"/>
</g>
<!-- scene/sceneComponents/stage.js -->
<g id="node21" class="node">
<title>scene/sceneComponents/stage.js</title>
<g id="a_node21"><a xlink:href="scene/sceneComponents/stage.js" xlink:title="stage.js">
<path fill="#ffffcc" stroke="black" d="M376,-450C376,-450 334,-450 334,-450 331,-450 328,-447 328,-444 328,-444 328,-438 328,-438 328,-435 331,-432 334,-432 334,-432 376,-432 376,-432 379,-432 382,-435 382,-438 382,-438 382,-444 382,-444 382,-447 379,-450 376,-450"/>
<text text-anchor="start" x="337.5" y="-438.8" font-family="Helvetica,sans-Serif" font-size="9.00">stage.js</text>
</a>
</g>
</g>
<!-- scene/graphicsManager.js&#45;&gt;scene/sceneComponents/stage.js -->
<g id="edge16" class="edge">
<title>scene/graphicsManager.js&#45;&gt;scene/sceneComponents/stage.js</title>
<path fill="none" stroke="#000000" stroke-width="2" stroke-opacity="0.200000" d="M247.64,-428.17C272,-431.11 300.4,-434.53 321.72,-437.11"/>
<polygon fill="#000000" fill-opacity="0.200000" stroke="#000000" stroke-width="2" stroke-opacity="0.200000" points="321.61,-439.21 327.82,-437.84 322.11,-435.04 321.61,-439.21"/>
</g>
<!-- simulation/signallingNetwork/signallingNetwork.js -->
<g id="node34" class="node">
<title>simulation/signallingNetwork/signallingNetwork.js</title>
<g id="a_node34"><a xlink:href="simulation/signallingNetwork/signallingNetwork.js" xlink:title="signallingNetwork.js">
<path fill="#ffffcc" stroke="black" d="M402.5,-209C402.5,-209 307.5,-209 307.5,-209 304.5,-209 301.5,-206 301.5,-203 301.5,-203 301.5,-197 301.5,-197 301.5,-194 304.5,-191 307.5,-191 307.5,-191 402.5,-191 402.5,-191 405.5,-191 408.5,-194 408.5,-197 408.5,-197 408.5,-203 408.5,-203 408.5,-206 405.5,-209 402.5,-209"/>
<text text-anchor="start" x="309.5" y="-197.8" font-family="Helvetica,sans-Serif" font-size="9.00">signallingNetwork.js</text>
</a>
</g>
</g>
<!-- simulation/simulationManager.js&#45;&gt;simulation/signallingNetwork/signallingNetwork.js -->
<g id="edge29" class="edge">
<title>simulation/simulationManager.js&#45;&gt;simulation/signallingNetwork/signallingNetwork.js</title>
<path fill="none" stroke="#000000" stroke-width="2" stroke-opacity="0.200000" d="M220.01,-232.9C231.63,-228.62 245.93,-223.66 259,-220 271.81,-216.41 285.75,-213.14 298.9,-210.32"/>
<polygon fill="#000000" fill-opacity="0.200000" stroke="#000000" stroke-width="2" stroke-opacity="0.200000" points="299.45,-212.35 304.88,-209.06 298.58,-208.24 299.45,-212.35"/>
</g>
<!-- scene/plotOptions.js -->
<g id="node22" class="node">
<title>scene/plotOptions.js</title>
<g id="a_node22"><a xlink:href="scene/plotOptions.js" xlink:title="plotOptions.js">
<path fill="#ffffcc" stroke="black" d="M562.5,-412C562.5,-412 496.5,-412 496.5,-412 493.5,-412 490.5,-409 490.5,-406 490.5,-406 490.5,-400 490.5,-400 490.5,-397 493.5,-394 496.5,-394 496.5,-394 562.5,-394 562.5,-394 565.5,-394 568.5,-397 568.5,-400 568.5,-400 568.5,-406 568.5,-406 568.5,-409 565.5,-412 562.5,-412"/>
<text text-anchor="start" x="498.5" y="-400.8" font-family="Helvetica,sans-Serif" font-size="9.00">plotOptions.js</text>
</a>
</g>
</g>
<!-- scene/plot.js&#45;&gt;scene/plotOptions.js -->
<g id="edge17" class="edge">
<title>scene/plot.js&#45;&gt;scene/plotOptions.js</title>
<path fill="none" stroke="#000000" stroke-width="2" stroke-opacity="0.200000" d="M382.2,-403C409.15,-403 451.63,-403 483.88,-403"/>
<polygon fill="#000000" fill-opacity="0.200000" stroke="#000000" stroke-width="2" stroke-opacity="0.200000" points="484.19,-405.1 490.19,-403 484.19,-400.9 484.19,-405.1"/>
</g>
<!-- scene/sceneComponents/geometries.js -->
<g id="node23" class="node">
<title>scene/sceneComponents/geometries.js</title>
<g id="a_node23"><a xlink:href="scene/sceneComponents/geometries.js" xlink:title="geometries.js">
<path fill="#ffffcc" stroke="black" d="M562,-536C562,-536 497,-536 497,-536 494,-536 491,-533 491,-530 491,-530 491,-524 491,-524 491,-521 494,-518 497,-518 497,-518 562,-518 562,-518 565,-518 568,-521 568,-524 568,-524 568,-530 568,-530 568,-533 565,-536 562,-536"/>
<text text-anchor="start" x="499" y="-524.8" font-family="Helvetica,sans-Serif" font-size="9.00">geometries.js</text>
</a>
</g>
</g>
<!-- scene/sceneComponents/capsulePool.js&#45;&gt;scene/sceneComponents/geometries.js -->
<g id="edge18" class="edge">
<title>scene/sceneComponents/capsulePool.js&#45;&gt;scene/sceneComponents/geometries.js</title>
<path fill="none" stroke="#000000" stroke-width="2" stroke-opacity="0.200000" d="M394.71,-516.92C421.4,-518.93 456.92,-521.61 484.65,-523.7"/>
<polygon fill="#000000" fill-opacity="0.200000" stroke="#000000" stroke-width="2" stroke-opacity="0.200000" points="484.67,-525.8 490.81,-524.16 484.98,-521.61 484.67,-525.8"/>
</g>
<!-- scene/sceneComponents/stageComponetns/camera.js -->
<g id="node24" class="node">
<title>scene/sceneComponents/stageComponetns/camera.js</title>
<g id="a_node24"><a xlink:href="scene/sceneComponents/stageComponetns/camera.js" xlink:title="camera.js">
<path fill="#ffffcc" stroke="black" d="M553.5,-484C553.5,-484 505.5,-484 505.5,-484 502.5,-484 499.5,-481 499.5,-478 499.5,-478 499.5,-472 499.5,-472 499.5,-469 502.5,-466 505.5,-466 505.5,-466 553.5,-466 553.5,-466 556.5,-466 559.5,-469 559.5,-472 559.5,-472 559.5,-478 559.5,-478 559.5,-481 556.5,-484 553.5,-484"/>
<text text-anchor="start" x="507.5" y="-472.8" font-family="Helvetica,sans-Serif" font-size="9.00">camera.js</text>
</a>
</g>
</g>
<!-- scene/sceneComponents/stage.js&#45;&gt;scene/sceneComponents/stageComponetns/camera.js -->
<g id="edge19" class="edge">
<title>scene/sceneComponents/stage.js&#45;&gt;scene/sceneComponents/stageComponetns/camera.js</title>
<path fill="none" stroke="#000000" stroke-width="2" stroke-opacity="0.200000" d="M382.34,-444.41C401.49,-447.07 427.97,-451.12 451,-456 457.75,-457.43 459.31,-458.31 466,-460 474.79,-462.23 484.29,-464.55 493.18,-466.69"/>
<polygon fill="#000000" fill-opacity="0.200000" stroke="#000000" stroke-width="2" stroke-opacity="0.200000" points="492.89,-468.78 499.21,-468.13 493.86,-464.69 492.89,-468.78"/>
</g>
<!-- scene/sceneComponents/stageComponetns/renderer.js -->
<g id="node25" class="node">
<title>scene/sceneComponents/stageComponetns/renderer.js</title>
<g id="a_node25"><a xlink:href="scene/sceneComponents/stageComponetns/renderer.js" xlink:title="renderer.js">
<path fill="#ffffcc" stroke="black" d="M556,-454C556,-454 503,-454 503,-454 500,-454 497,-451 497,-448 497,-448 497,-442 497,-442 497,-439 500,-436 503,-436 503,-436 556,-436 556,-436 559,-436 562,-439 562,-442 562,-442 562,-448 562,-448 562,-451 559,-454 556,-454"/>
<text text-anchor="start" x="505" y="-442.8" font-family="Helvetica,sans-Serif" font-size="9.00">renderer.js</text>
</a>
</g>
</g>
<!-- scene/sceneComponents/stage.js&#45;&gt;scene/sceneComponents/stageComponetns/renderer.js -->
<g id="edge20" class="edge">
<title>scene/sceneComponents/stage.js&#45;&gt;scene/sceneComponents/stageComponetns/renderer.js</title>
<path fill="none" stroke="#000000" stroke-width="2" stroke-opacity="0.200000" d="M382.2,-441.61C411,-442.28 457.55,-443.35 490.39,-444.12"/>
<polygon fill="#000000" fill-opacity="0.200000" stroke="#000000" stroke-width="2" stroke-opacity="0.200000" points="490.72,-446.22 496.77,-444.26 490.82,-442.03 490.72,-446.22"/>
</g>
<!-- simulation/signallingNetwork/FTCS.js -->
<g id="node26" class="node">
<title>simulation/signallingNetwork/FTCS.js</title>
<g id="a_node26"><a xlink:href="simulation/signallingNetwork/FTCS.js" xlink:title="no&#45;orphans">
<path fill="#ccffcc" stroke="orange" d="M376,-244C376,-244 334,-244 334,-244 331,-244 328,-241 328,-238 328,-238 328,-232 328,-232 328,-229 331,-226 334,-226 334,-226 376,-226 376,-226 379,-226 382,-229 382,-232 382,-232 382,-238 382,-238 382,-241 379,-244 376,-244"/>
<text text-anchor="start" x="338.5" y="-232.8" font-family="Helvetica,sans-Serif" font-size="9.00" fill="orange">FTCS.js</text>
</a>
</g>
</g>
<!-- simulation/signallingNetwork/extracellular/ADI.js -->
<g id="node27" class="node">
<title>simulation/signallingNetwork/extracellular/ADI.js</title>
<g id="a_node27"><a xlink:href="simulation/signallingNetwork/extracellular/ADI.js" xlink:title="ADI.js">
<path fill="#ffffcc" stroke="black" d="M550.5,-140C550.5,-140 508.5,-140 508.5,-140 505.5,-140 502.5,-137 502.5,-134 502.5,-134 502.5,-128 502.5,-128 502.5,-125 505.5,-122 508.5,-122 508.5,-122 550.5,-122 550.5,-122 553.5,-122 556.5,-125 556.5,-128 556.5,-128 556.5,-134 556.5,-134 556.5,-137 553.5,-140 550.5,-140"/>
<text text-anchor="start" x="516.5" y="-128.8" font-family="Helvetica,sans-Serif" font-size="9.00">ADI.js</text>
</a>
</g>
</g>
<!-- simulation/signallingNetwork/extracellular/initArrays.js -->
<g id="node28" class="node">
<title>simulation/signallingNetwork/extracellular/initArrays.js</title>
<g id="a_node28"><a xlink:href="simulation/signallingNetwork/extracellular/initArrays.js" xlink:title="initArrays.js">
<path fill="#ffffcc" stroke="black" d="M696,-110C696,-110 639,-110 639,-110 636,-110 633,-107 633,-104 633,-104 633,-98 633,-98 633,-95 636,-92 639,-92 639,-92 696,-92 696,-92 699,-92 702,-95 702,-98 702,-98 702,-104 702,-104 702,-107 699,-110 696,-110"/>
<text text-anchor="start" x="641" y="-98.8" font-family="Helvetica,sans-Serif" font-size="9.00">initArrays.js</text>
</a>
</g>
</g>
<!-- simulation/signallingNetwork/extracellular/ADI.js&#45;&gt;simulation/signallingNetwork/extracellular/initArrays.js -->
<g id="edge21" class="edge">
<title>simulation/signallingNetwork/extracellular/ADI.js&#45;&gt;simulation/signallingNetwork/extracellular/initArrays.js</title>
<path fill="none" stroke="#000000" stroke-width="2" stroke-opacity="0.200000" d="M556.72,-125.22C576.56,-120.84 604.15,-114.75 626.7,-109.78"/>
<polygon fill="#000000" fill-opacity="0.200000" stroke="#000000" stroke-width="2" stroke-opacity="0.200000" points="627.21,-111.82 632.62,-108.47 626.31,-107.72 627.21,-111.82"/>
</g>
<!-- simulation/signallingNetwork/extracellular/thomasAlgorithm.js -->
<g id="node29" class="node">
<title>simulation/signallingNetwork/extracellular/thomasAlgorithm.js</title>
<g id="a_node29"><a xlink:href="simulation/signallingNetwork/extracellular/thomasAlgorithm.js" xlink:title="thomasAlgorithm.js">
<path fill="#ffffcc" stroke="black" d="M713.5,-140C713.5,-140 621.5,-140 621.5,-140 618.5,-140 615.5,-137 615.5,-134 615.5,-134 615.5,-128 615.5,-128 615.5,-125 618.5,-122 621.5,-122 621.5,-122 713.5,-122 713.5,-122 716.5,-122 719.5,-125 719.5,-128 719.5,-128 719.5,-134 719.5,-134 719.5,-137 716.5,-140 713.5,-140"/>
<text text-anchor="start" x="623.5" y="-128.8" font-family="Helvetica,sans-Serif" font-size="9.00">thomasAlgorithm.js</text>
</a>
</g>
</g>
<!-- simulation/signallingNetwork/extracellular/ADI.js&#45;&gt;simulation/signallingNetwork/extracellular/thomasAlgorithm.js -->
<g id="edge22" class="edge">
<title>simulation/signallingNetwork/extracellular/ADI.js&#45;&gt;simulation/signallingNetwork/extracellular/thomasAlgorithm.js</title>
<path fill="none" stroke="#000000" stroke-width="2" stroke-opacity="0.200000" d="M556.72,-131C571.63,-131 590.92,-131 609.15,-131"/>
<polygon fill="#000000" fill-opacity="0.200000" stroke="#000000" stroke-width="2" stroke-opacity="0.200000" points="609.29,-133.1 615.29,-131 609.29,-128.9 609.29,-133.1"/>
</g>
<!-- simulation/signallingNetwork/grid.js -->
<g id="node30" class="node">
<title>simulation/signallingNetwork/grid.js</title>
<g id="a_node30"><a xlink:href="simulation/signallingNetwork/grid.js" xlink:title="grid.js">
<path fill="#ffffcc" stroke="black" d="M550.5,-192C550.5,-192 508.5,-192 508.5,-192 505.5,-192 502.5,-189 502.5,-186 502.5,-186 502.5,-180 502.5,-180 502.5,-177 505.5,-174 508.5,-174 508.5,-174 550.5,-174 550.5,-174 553.5,-174 556.5,-177 556.5,-180 556.5,-180 556.5,-186 556.5,-186 556.5,-189 553.5,-192 550.5,-192"/>
<text text-anchor="start" x="515.5" y="-180.8" font-family="Helvetica,sans-Serif" font-size="9.00">grid.js</text>
</a>
</g>
</g>
<!-- simulation/signallingNetwork/intracellular/cytoplasmManager.js -->
<g id="node31" class="node">
<title>simulation/signallingNetwork/intracellular/cytoplasmManager.js</title>
<g id="a_node31"><a xlink:href="simulation/signallingNetwork/intracellular/cytoplasmManager.js" xlink:title="cytoplasmManager.js">
<path fill="#ffffcc" stroke="black" d="M579,-226C579,-226 480,-226 480,-226 477,-226 474,-223 474,-220 474,-220 474,-214 474,-214 474,-211 477,-208 480,-208 480,-208 579,-208 579,-208 582,-208 585,-211 585,-214 585,-214 585,-220 585,-220 585,-223 582,-226 579,-226"/>
<text text-anchor="start" x="482" y="-214.8" font-family="Helvetica,sans-Serif" font-size="9.00">cytoplasmManager.js</text>
</a>
</g>
</g>
<!-- simulation/signallingNetwork/intracellular/cytoplasmState.js -->
<g id="node32" class="node">
<title>simulation/signallingNetwork/intracellular/cytoplasmState.js</title>
<g id="a_node32"><a xlink:href="simulation/signallingNetwork/intracellular/cytoplasmState.js" xlink:title="cytoplasmState.js">
<path fill="#ffffcc" stroke="black" d="M826.5,-233C826.5,-233 741.5,-233 741.5,-233 738.5,-233 735.5,-230 735.5,-227 735.5,-227 735.5,-221 735.5,-221 735.5,-218 738.5,-215 741.5,-215 741.5,-215 826.5,-215 826.5,-215 829.5,-215 832.5,-218 832.5,-221 832.5,-221 832.5,-227 832.5,-227 832.5,-230 829.5,-233 826.5,-233"/>
<text text-anchor="start" x="743.5" y="-221.8" font-family="Helvetica,sans-Serif" font-size="9.00">cytoplasmState.js</text>
</a>
</g>
</g>
<!-- simulation/signallingNetwork/intracellular/cytoplasmManager.js&#45;&gt;simulation/signallingNetwork/intracellular/cytoplasmState.js -->
<g id="edge23" class="edge">
<title>simulation/signallingNetwork/intracellular/cytoplasmManager.js&#45;&gt;simulation/signallingNetwork/intracellular/cytoplasmState.js</title>
<path fill="none" stroke="#000000" stroke-width="2" stroke-opacity="0.200000" d="M585.35,-214.47C624.91,-213.2 679.57,-212.56 727.5,-216 727.97,-216.03 728.45,-216.07 728.93,-216.11"/>
<polygon fill="#000000" fill-opacity="0.200000" stroke="#000000" stroke-width="2" stroke-opacity="0.200000" points="729.05,-218.23 735.21,-216.67 729.43,-214.04 729.05,-218.23"/>
</g>
<!-- simulation/signallingNetwork/intracellular/cytoplasmUpdater.js -->
<g id="node33" class="node">
<title>simulation/signallingNetwork/intracellular/cytoplasmUpdater.js</title>
<g id="a_node33"><a xlink:href="simulation/signallingNetwork/intracellular/cytoplasmUpdater.js" xlink:title="cytoplasmUpdater.js">
<path fill="#ffffcc" stroke="black" d="M716,-240C716,-240 619,-240 619,-240 616,-240 613,-237 613,-234 613,-234 613,-228 613,-228 613,-225 616,-222 619,-222 619,-222 716,-222 716,-222 719,-222 722,-225 722,-228 722,-228 722,-234 722,-234 722,-237 719,-240 716,-240"/>
<text text-anchor="start" x="621" y="-228.8" font-family="Helvetica,sans-Serif" font-size="9.00">cytoplasmUpdater.js</text>
</a>
</g>
</g>
<!-- simulation/signallingNetwork/intracellular/cytoplasmManager.js&#45;&gt;simulation/signallingNetwork/intracellular/cytoplasmUpdater.js -->
<g id="edge24" class="edge">
<title>simulation/signallingNetwork/intracellular/cytoplasmManager.js&#45;&gt;simulation/signallingNetwork/intracellular/cytoplasmUpdater.js</title>
<path fill="none" stroke="#000000" stroke-width="2" stroke-opacity="0.200000" d="M585.03,-222.61C592.19,-223.35 599.56,-224.11 606.8,-224.85"/>
<polygon fill="#000000" fill-opacity="0.200000" stroke="#000000" stroke-width="2" stroke-opacity="0.200000" points="606.66,-226.95 612.84,-225.48 607.09,-222.77 606.66,-226.95"/>
</g>
<!-- simulation/signallingNetwork/intracellular/cytoplasmUpdater.js&#45;&gt;simulation/signallingNetwork/intracellular/cytoplasmState.js -->
<g id="edge25" class="edge">
<title>simulation/signallingNetwork/intracellular/cytoplasmUpdater.js&#45;&gt;simulation/signallingNetwork/intracellular/cytoplasmState.js</title>
<path fill="none" stroke="#000000" stroke-width="2" stroke-opacity="0.200000" d="M722.06,-227.73C724.41,-227.58 726.77,-227.44 729.12,-227.29"/>
<polygon fill="#000000" fill-opacity="0.200000" stroke="#000000" stroke-width="2" stroke-opacity="0.200000" points="729.45,-229.38 735.31,-226.92 729.2,-225.19 729.45,-229.38"/>
</g>
<!-- simulation/signallingNetwork/signallingNetwork.js&#45;&gt;simulation/signallingNetwork/extracellular/ADI.js -->
<g id="edge26" class="edge">
<title>simulation/signallingNetwork/signallingNetwork.js&#45;&gt;simulation/signallingNetwork/extracellular/ADI.js</title>
<path fill="none" stroke="#000000" stroke-width="2" stroke-opacity="0.200000" d="M370.74,-190.89C391.33,-178.53 430.22,-156.58 466,-144 475.61,-140.62 486.38,-137.99 496.23,-136.01"/>
<polygon fill="#000000" fill-opacity="0.200000" stroke="#000000" stroke-width="2" stroke-opacity="0.200000" points="496.73,-138.05 502.23,-134.86 495.94,-133.93 496.73,-138.05"/>
</g>
<!-- simulation/signallingNetwork/signallingNetwork.js&#45;&gt;simulation/signallingNetwork/grid.js -->
<g id="edge27" class="edge">
<title>simulation/signallingNetwork/signallingNetwork.js&#45;&gt;simulation/signallingNetwork/grid.js</title>
<path fill="none" stroke="#000000" stroke-width="2" stroke-opacity="0.200000" d="M408.69,-194.81C437.19,-192 471.48,-188.62 496.06,-186.2"/>
<polygon fill="#000000" fill-opacity="0.200000" stroke="#000000" stroke-width="2" stroke-opacity="0.200000" points="496.32,-188.28 502.09,-185.6 495.91,-184.1 496.32,-188.28"/>
</g>
<!-- simulation/signallingNetwork/signallingNetwork.js&#45;&gt;simulation/signallingNetwork/intracellular/cytoplasmManager.js -->
<g id="edge28" class="edge">
<title>simulation/signallingNetwork/signallingNetwork.js&#45;&gt;simulation/signallingNetwork/intracellular/cytoplasmManager.js</title>
<path fill="none" stroke="#000000" stroke-width="2" stroke-opacity="0.200000" d="M408.69,-205.19C427.29,-207.03 448.35,-209.1 467.57,-211"/>
<polygon fill="#000000" fill-opacity="0.200000" stroke="#000000" stroke-width="2" stroke-opacity="0.200000" points="467.57,-213.1 473.74,-211.6 467.98,-208.93 467.57,-213.1"/>
</g>
</g>
</svg>
