<?xml version="1.0" encoding="UTF-8" standalone="no"?>
<!DOCTYPE svg PUBLIC "-//W3C//DTD SVG 1.1//EN"
 "http://www.w3.org/Graphics/SVG/1.1/DTD/svg11.dtd">
<!-- Generated by graphviz version 2.43.0 (0)
 -->
<!-- Title: dependency&#45;cruiser output Pages: 1 -->
<svg width="823pt" height="720pt"
 viewBox="0.00 0.00 822.50 720.00" xmlns="http://www.w3.org/2000/svg" xmlns:xlink="http://www.w3.org/1999/xlink">
<g id="graph0" class="graph" transform="scale(1 1) rotate(0) translate(4 716)">
<title>dependency&#45;cruiser output</title>
<polygon fill="white" stroke="transparent" points="-4,4 -4,-716 818.5,-716 818.5,4 -4,4"/>
<g id="clust1" class="cluster">
<title>cluster_GUI</title>
<path fill="#ffffff" stroke="black" stroke-width="2" d="M151.5,-622C151.5,-622 523.5,-622 523.5,-622 529.5,-622 535.5,-628 535.5,-634 535.5,-634 535.5,-692 535.5,-692 535.5,-698 529.5,-704 523.5,-704 523.5,-704 151.5,-704 151.5,-704 145.5,-704 139.5,-698 139.5,-692 139.5,-692 139.5,-634 139.5,-634 139.5,-628 145.5,-622 151.5,-622"/>
<text text-anchor="middle" x="337.5" y="-692.8" font-family="Helvetica,sans-Serif" font-weight="bold" font-size="9.00">GUI</text>
</g>
<g id="clust2" class="cluster">
<title>cluster_scene</title>
<path fill="#ffffff" stroke="black" stroke-width="2" d="M147.5,-326C147.5,-326 539,-326 539,-326 545,-326 551,-332 551,-338 551,-338 551,-576 551,-576 551,-582 545,-588 539,-588 539,-588 147.5,-588 147.5,-588 141.5,-588 135.5,-582 135.5,-576 135.5,-576 135.5,-338 135.5,-338 135.5,-332 141.5,-326 147.5,-326"/>
<text text-anchor="middle" x="343.25" y="-576.8" font-family="Helvetica,sans-Serif" font-weight="bold" font-size="9.00">scene</text>
</g>
<g id="clust3" class="cluster">
<title>cluster_scene/sceneComponents</title>
<path fill="#ffffff" stroke="black" stroke-width="2" d="M297,-420C297,-420 531,-420 531,-420 537,-420 543,-426 543,-432 543,-432 543,-550 543,-550 543,-556 537,-562 531,-562 531,-562 297,-562 297,-562 291,-562 285,-556 285,-550 285,-550 285,-432 285,-432 285,-426 291,-420 297,-420"/>
<text text-anchor="middle" x="414" y="-550.8" font-family="Helvetica,sans-Serif" font-weight="bold" font-size="9.00">sceneComponents</text>
</g>
<g id="clust4" class="cluster">
<title>cluster_scene/sceneComponents/stageComponetns</title>
<path fill="#ffffff" stroke="black" stroke-width="2" d="M437,-428C437,-428 523,-428 523,-428 529,-428 535,-434 535,-440 535,-440 535,-498 535,-498 535,-504 529,-510 523,-510 523,-510 437,-510 437,-510 431,-510 425,-504 425,-498 425,-498 425,-440 425,-440 425,-434 431,-428 437,-428"/>
<text text-anchor="middle" x="480" y="-498.8" font-family="Helvetica,sans-Serif" font-weight="bold" font-size="9.00">stageComponetns</text>
</g>
<g id="clust5" class="cluster">
<title>cluster_simulation</title>
<path fill="#ffffff" stroke="black" stroke-width="2" d="M144,-68C144,-68 794.5,-68 794.5,-68 800.5,-68 806.5,-74 806.5,-80 806.5,-80 806.5,-306 806.5,-306 806.5,-312 800.5,-318 794.5,-318 794.5,-318 144,-318 144,-318 138,-318 132,-312 132,-306 132,-306 132,-80 132,-80 132,-74 138,-68 144,-68"/>
<text text-anchor="middle" x="469.25" y="-306.8" font-family="Helvetica,sans-Serif" font-weight="bold" font-size="9.00">simulation</text>
</g>
<g id="clust6" class="cluster">
<title>cluster_simulation/signallingNetwork</title>
<path fill="#ffffff" stroke="black" stroke-width="2" d="M283,-76C283,-76 786.5,-76 786.5,-76 792.5,-76 798.5,-82 798.5,-88 798.5,-88 798.5,-280 798.5,-280 798.5,-286 792.5,-292 786.5,-292 786.5,-292 283,-292 283,-292 277,-292 271,-286 271,-280 271,-280 271,-88 271,-88 271,-82 277,-76 283,-76"/>
<text text-anchor="middle" x="534.75" y="-280.8" font-family="Helvetica,sans-Serif" font-weight="bold" font-size="9.00">signallingNetwork</text>
</g>
<g id="clust7" class="cluster">
<title>cluster_simulation/signallingNetwork/extracellular</title>
<path fill="#ffffff" stroke="black" stroke-width="2" d="M456.5,-84C456.5,-84 665.5,-84 665.5,-84 671.5,-84 677.5,-90 677.5,-96 677.5,-96 677.5,-154 677.5,-154 677.5,-160 671.5,-166 665.5,-166 665.5,-166 456.5,-166 456.5,-166 450.5,-166 444.5,-160 444.5,-154 444.5,-154 444.5,-96 444.5,-96 444.5,-90 450.5,-84 456.5,-84"/>
<text text-anchor="middle" x="561" y="-154.8" font-family="Helvetica,sans-Serif" font-weight="bold" font-size="9.00">extracellular</text>
</g>
<g id="clust8" class="cluster">
<title>cluster_simulation/signallingNetwork/intracellular</title>
<path fill="#ffffff" stroke="black" stroke-width="2" d="M428,-200C428,-200 778.5,-200 778.5,-200 784.5,-200 790.5,-206 790.5,-212 790.5,-212 790.5,-254 790.5,-254 790.5,-260 784.5,-266 778.5,-266 778.5,-266 428,-266 428,-266 422,-266 416,-260 416,-254 416,-254 416,-212 416,-212 416,-206 422,-200 428,-200"/>
<text text-anchor="middle" x="603.25" y="-254.8" font-family="Helvetica,sans-Serif" font-weight="bold" font-size="9.00">intracellular</text>
</g>
<g id="clust9" class="cluster">
<title>cluster_state</title>
<path fill="#ffffff" stroke="black" stroke-width="2" d="M156,-8C156,-8 235,-8 235,-8 241,-8 247,-14 247,-20 247,-20 247,-48 247,-48 247,-54 241,-60 235,-60 235,-60 156,-60 156,-60 150,-60 144,-54 144,-48 144,-48 144,-20 144,-20 144,-14 150,-8 156,-8"/>
<text text-anchor="middle" x="195.5" y="-48.8" font-family="Helvetica,sans-Serif" font-weight="bold" font-size="9.00">state</text>
</g>
<!-- .dependency&#45;cruiser.cjs -->
<g id="node1" class="node">
<title>.dependency&#45;cruiser.cjs</title>
<g id="a_node1"><a xlink:href=".dependency-cruiser.cjs" xlink:title=".dependency&#45;cruiser.cjs">
<path fill="#ccffcc" stroke="black" d="M118,-311C118,-311 6,-311 6,-311 3,-311 0,-308 0,-305 0,-305 0,-299 0,-299 0,-296 3,-293 6,-293 6,-293 118,-293 118,-293 121,-293 124,-296 124,-299 124,-299 124,-305 124,-305 124,-308 121,-311 118,-311"/>
<text text-anchor="middle" x="62" y="-299.8" font-family="Helvetica,sans-Serif" font-size="9.00">.dependency&#45;cruiser.cjs</text>
</a>
</g>
</g>
<!-- ArbCircuit.js -->
<g id="node2" class="node">
<title>ArbCircuit.js</title>
<g id="a_node2"><a xlink:href="ArbCircuit.js" xlink:title="no&#45;orphans">
<path fill="#ccffcc" stroke="orange" d="M91.5,-341C91.5,-341 32.5,-341 32.5,-341 29.5,-341 26.5,-338 26.5,-335 26.5,-335 26.5,-329 26.5,-329 26.5,-326 29.5,-323 32.5,-323 32.5,-323 91.5,-323 91.5,-323 94.5,-323 97.5,-326 97.5,-329 97.5,-329 97.5,-335 97.5,-335 97.5,-338 94.5,-341 91.5,-341"/>
<text text-anchor="middle" x="62" y="-329.8" font-family="Helvetica,sans-Serif" font-size="9.00" fill="orange">ArbCircuit.js</text>
</a>
</g>
</g>
<!-- AvigdorCorrections.js -->
<g id="node3" class="node">
<title>AvigdorCorrections.js</title>
<g id="a_node3"><a xlink:href="AvigdorCorrections.js" xlink:title="no&#45;orphans">
<path fill="#ccffcc" stroke="orange" d="M112,-371C112,-371 12,-371 12,-371 9,-371 6,-368 6,-365 6,-365 6,-359 6,-359 6,-356 9,-353 12,-353 12,-353 112,-353 112,-353 115,-353 118,-356 118,-359 118,-359 118,-365 118,-365 118,-368 115,-371 112,-371"/>
<text text-anchor="middle" x="62" y="-359.8" font-family="Helvetica,sans-Serif" font-size="9.00" fill="orange">AvigdorCorrections.js</text>
</a>
</g>
</g>
<!-- CircuitMod.js -->
<g id="node4" class="node">
<title>CircuitMod.js</title>
<g id="a_node4"><a xlink:href="CircuitMod.js" xlink:title="no&#45;orphans">
<path fill="#ccffcc" stroke="orange" d="M93,-401C93,-401 31,-401 31,-401 28,-401 25,-398 25,-395 25,-395 25,-389 25,-389 25,-386 28,-383 31,-383 31,-383 93,-383 93,-383 96,-383 99,-386 99,-389 99,-389 99,-395 99,-395 99,-398 96,-401 93,-401"/>
<text text-anchor="middle" x="62" y="-389.8" font-family="Helvetica,sans-Serif" font-size="9.00" fill="orange">CircuitMod.js</text>
</a>
</g>
</g>
<!-- GUI/controlManager.js -->
<g id="node5" class="node">
<title>GUI/controlManager.js</title>
<g id="a_node5"><a xlink:href="GUI/controlManager.js" xlink:title="controlManager.js">
<path fill="#ffffcc" stroke="black" d="M237.5,-648C237.5,-648 153.5,-648 153.5,-648 150.5,-648 147.5,-645 147.5,-642 147.5,-642 147.5,-636 147.5,-636 147.5,-633 150.5,-630 153.5,-630 153.5,-630 237.5,-630 237.5,-630 240.5,-630 243.5,-633 243.5,-636 243.5,-636 243.5,-642 243.5,-642 243.5,-645 240.5,-648 237.5,-648"/>
<text text-anchor="start" x="155.5" y="-636.8" font-family="Helvetica,sans-Serif" font-size="9.00">controlManager.js</text>
</a>
</g>
</g>
<!-- GUI/sessionTab.js -->
<g id="node6" class="node">
<title>GUI/sessionTab.js</title>
<g id="a_node6"><a xlink:href="GUI/sessionTab.js" xlink:title="sessionTab.js">
<path fill="#ffffcc" stroke="black" d="M363.5,-648C363.5,-648 301.5,-648 301.5,-648 298.5,-648 295.5,-645 295.5,-642 295.5,-642 295.5,-636 295.5,-636 295.5,-633 298.5,-630 301.5,-630 301.5,-630 363.5,-630 363.5,-630 366.5,-630 369.5,-633 369.5,-636 369.5,-636 369.5,-642 369.5,-642 369.5,-645 366.5,-648 363.5,-648"/>
<text text-anchor="start" x="303.5" y="-636.8" font-family="Helvetica,sans-Serif" font-size="9.00">sessionTab.js</text>
</a>
</g>
</g>
<!-- GUI/controlManager.js&#45;&gt;GUI/sessionTab.js -->
<g id="edge1" class="edge">
<title>GUI/controlManager.js&#45;&gt;GUI/sessionTab.js</title>
<path fill="none" stroke="#000000" stroke-width="2" stroke-opacity="0.200000" d="M243.72,-639C258.49,-639 274.68,-639 289.1,-639"/>
<polygon fill="#000000" fill-opacity="0.200000" stroke="#000000" stroke-width="2" stroke-opacity="0.200000" points="289.16,-641.1 295.16,-639 289.16,-636.9 289.16,-641.1"/>
</g>
<!-- GUI/signallingTab.js -->
<g id="node7" class="node">
<title>GUI/signallingTab.js</title>
<g id="a_node7"><a xlink:href="GUI/signallingTab.js" xlink:title="signallingTab.js">
<path fill="#ffffcc" stroke="black" d="M368.5,-678C368.5,-678 296.5,-678 296.5,-678 293.5,-678 290.5,-675 290.5,-672 290.5,-672 290.5,-666 290.5,-666 290.5,-663 293.5,-660 296.5,-660 296.5,-660 368.5,-660 368.5,-660 371.5,-660 374.5,-663 374.5,-666 374.5,-666 374.5,-672 374.5,-672 374.5,-675 371.5,-678 368.5,-678"/>
<text text-anchor="start" x="298.5" y="-666.8" font-family="Helvetica,sans-Serif" font-size="9.00">signallingTab.js</text>
</a>
</g>
</g>
<!-- GUI/controlManager.js&#45;&gt;GUI/signallingTab.js -->
<g id="edge2" class="edge">
<title>GUI/controlManager.js&#45;&gt;GUI/signallingTab.js</title>
<path fill="none" stroke="#000000" stroke-width="2" stroke-opacity="0.200000" d="M237,-648C251.95,-651.32 269.01,-655.11 284.49,-658.55"/>
<polygon fill="#000000" fill-opacity="0.200000" stroke="#000000" stroke-width="2" stroke-opacity="0.200000" points="284.24,-660.65 290.56,-659.9 285.16,-656.55 284.24,-660.65"/>
</g>
<!-- GUI/dataProcessor.js -->
<g id="node8" class="node">
<title>GUI/dataProcessor.js</title>
<g id="a_node8"><a xlink:href="GUI/dataProcessor.js" xlink:title="dataProcessor.js">
<path fill="#ffffcc" stroke="black" d="M518,-648C518,-648 441,-648 441,-648 438,-648 435,-645 435,-642 435,-642 435,-636 435,-636 435,-633 438,-630 441,-630 441,-630 518,-630 518,-630 521,-630 524,-633 524,-636 524,-636 524,-642 524,-642 524,-645 521,-648 518,-648"/>
<text text-anchor="start" x="443" y="-636.8" font-family="Helvetica,sans-Serif" font-size="9.00">dataProcessor.js</text>
</a>
</g>
</g>
<!-- GUI/sessionTab.js&#45;&gt;GUI/dataProcessor.js -->
<g id="edge3" class="edge">
<title>GUI/sessionTab.js&#45;&gt;GUI/dataProcessor.js</title>
<path fill="none" stroke="#000000" stroke-width="2" stroke-opacity="0.200000" d="M369.72,-639C387.5,-639 409.22,-639 428.55,-639"/>
<polygon fill="#000000" fill-opacity="0.200000" stroke="#000000" stroke-width="2" stroke-opacity="0.200000" points="428.74,-641.1 434.74,-639 428.74,-636.9 428.74,-641.1"/>
</g>
<!-- GUI/visualizationTab.js -->
<g id="node9" class="node">
<title>GUI/visualizationTab.js</title>
<g id="a_node9"><a xlink:href="GUI/visualizationTab.js" xlink:title="visualizationTab.js">
<path fill="#ffffcc" stroke="black" d="M521.5,-678C521.5,-678 437.5,-678 437.5,-678 434.5,-678 431.5,-675 431.5,-672 431.5,-672 431.5,-666 431.5,-666 431.5,-663 434.5,-660 437.5,-660 437.5,-660 521.5,-660 521.5,-660 524.5,-660 527.5,-663 527.5,-666 527.5,-666 527.5,-672 527.5,-672 527.5,-675 524.5,-678 521.5,-678"/>
<text text-anchor="start" x="439.5" y="-666.8" font-family="Helvetica,sans-Serif" font-size="9.00">visualizationTab.js</text>
</a>
</g>
</g>
<!-- GUI/signallingTab.js&#45;&gt;GUI/visualizationTab.js -->
<g id="edge4" class="edge">
<title>GUI/signallingTab.js&#45;&gt;GUI/visualizationTab.js</title>
<path fill="none" stroke="#000000" stroke-width="2" stroke-opacity="0.200000" d="M374.66,-669C390.4,-669 408.57,-669 425.27,-669"/>
<polygon fill="#000000" fill-opacity="0.200000" stroke="#000000" stroke-width="2" stroke-opacity="0.200000" points="425.35,-671.1 431.35,-669 425.35,-666.9 425.35,-671.1"/>
</g>
<!-- MonotonicDecreasing.js -->
<g id="node10" class="node">
<title>MonotonicDecreasing.js</title>
<g id="a_node10"><a xlink:href="MonotonicDecreasing.js" xlink:title="no&#45;orphans">
<path fill="#ccffcc" stroke="orange" d="M117.5,-461C117.5,-461 6.5,-461 6.5,-461 3.5,-461 0.5,-458 0.5,-455 0.5,-455 0.5,-449 0.5,-449 0.5,-446 3.5,-443 6.5,-443 6.5,-443 117.5,-443 117.5,-443 120.5,-443 123.5,-446 123.5,-449 123.5,-449 123.5,-455 123.5,-455 123.5,-458 120.5,-461 117.5,-461"/>
<text text-anchor="middle" x="62" y="-449.8" font-family="Helvetica,sans-Serif" font-size="9.00" fill="orange">MonotonicDecreasing.js</text>
</a>
</g>
</g>
<!-- config.js -->
<g id="node11" class="node">
<title>config.js</title>
<g id="a_node11"><a xlink:href="config.js" xlink:title="config.js">
<path fill="#ffffcc" stroke="black" d="M217,-614C217,-614 174,-614 174,-614 171,-614 168,-611 168,-608 168,-608 168,-602 168,-602 168,-599 171,-596 174,-596 174,-596 217,-596 217,-596 220,-596 223,-599 223,-602 223,-602 223,-608 223,-608 223,-611 220,-614 217,-614"/>
<text text-anchor="middle" x="195.5" y="-602.8" font-family="Helvetica,sans-Serif" font-size="9.00">config.js</text>
</a>
</g>
</g>
<!-- jest.config.js -->
<g id="node12" class="node">
<title>jest.config.js</title>
<g id="a_node12"><a xlink:href="jest.config.js" xlink:title="no&#45;orphans">
<path fill="#ccffcc" stroke="orange" d="M93,-491C93,-491 31,-491 31,-491 28,-491 25,-488 25,-485 25,-485 25,-479 25,-479 25,-476 28,-473 31,-473 31,-473 93,-473 93,-473 96,-473 99,-476 99,-479 99,-479 99,-485 99,-485 99,-488 96,-491 93,-491"/>
<text text-anchor="middle" x="62" y="-479.8" font-family="Helvetica,sans-Serif" font-size="9.00" fill="orange">jest.config.js</text>
</a>
</g>
</g>
<!-- main.js -->
<g id="node13" class="node">
<title>main.js</title>
<g id="a_node13"><a xlink:href="main.js" xlink:title="main.js">
<path fill="#ffffcc" stroke="black" d="M83,-431C83,-431 41,-431 41,-431 38,-431 35,-428 35,-425 35,-425 35,-419 35,-419 35,-416 38,-413 41,-413 41,-413 83,-413 83,-413 86,-413 89,-416 89,-419 89,-419 89,-425 89,-425 89,-428 86,-431 83,-431"/>
<text text-anchor="middle" x="62" y="-419.8" font-family="Helvetica,sans-Serif" font-size="9.00">main.js</text>
</a>
</g>
</g>
<!-- main.js&#45;&gt;GUI/controlManager.js -->
<g id="edge6" class="edge">
<title>main.js&#45;&gt;GUI/controlManager.js</title>
<path fill="none" stroke="#000000" stroke-width="2" stroke-opacity="0.200000" d="M89.02,-421.6C101.55,-422.89 115.63,-426.79 124,-437 136.9,-452.74 119.53,-603.92 132,-620 134.77,-623.57 138.2,-626.49 142,-628.88"/>
<polygon fill="#000000" fill-opacity="0.200000" stroke="#000000" stroke-width="2" stroke-opacity="0.200000" points="141.13,-630.8 147.41,-631.81 143.13,-627.1 141.13,-630.8"/>
</g>
<!-- main.js&#45;&gt;config.js -->
<g id="edge5" class="edge">
<title>main.js&#45;&gt;config.js</title>
<path fill="none" stroke="#000000" stroke-width="2" stroke-opacity="0.200000" d="M89.3,-421.66C101.74,-422.99 115.66,-426.91 124,-437 145.83,-463.41 109.89,-564.82 132,-591 139.32,-599.67 150.75,-603.66 161.83,-605.31"/>
<polygon fill="#000000" fill-opacity="0.200000" stroke="#000000" stroke-width="2" stroke-opacity="0.200000" points="161.73,-607.41 167.93,-606 162.21,-603.24 161.73,-607.41"/>
</g>
<!-- scene/graphicsManager.js -->
<g id="node14" class="node">
<title>scene/graphicsManager.js</title>
<g id="a_node14"><a xlink:href="scene/graphicsManager.js" xlink:title="graphicsManager.js">
<path fill="#ffffcc" stroke="black" d="M241.5,-431C241.5,-431 149.5,-431 149.5,-431 146.5,-431 143.5,-428 143.5,-425 143.5,-425 143.5,-419 143.5,-419 143.5,-416 146.5,-413 149.5,-413 149.5,-413 241.5,-413 241.5,-413 244.5,-413 247.5,-416 247.5,-419 247.5,-419 247.5,-425 247.5,-425 247.5,-428 244.5,-431 241.5,-431"/>
<text text-anchor="start" x="151.5" y="-419.8" font-family="Helvetica,sans-Serif" font-size="9.00">graphicsManager.js</text>
</a>
</g>
</g>
<!-- main.js&#45;&gt;scene/graphicsManager.js -->
<g id="edge7" class="edge">
<title>main.js&#45;&gt;scene/graphicsManager.js</title>
<path fill="none" stroke="#000000" stroke-width="2" stroke-opacity="0.200000" d="M89.29,-422C103.11,-422 120.62,-422 137.37,-422"/>
<polygon fill="#000000" fill-opacity="0.200000" stroke="#000000" stroke-width="2" stroke-opacity="0.200000" points="137.5,-424.1 143.5,-422 137.5,-419.9 137.5,-424.1"/>
</g>
<!-- simulation/simulationManager.js -->
<g id="node15" class="node">
<title>simulation/simulationManager.js</title>
<g id="a_node15"><a xlink:href="simulation/simulationManager.js" xlink:title="simulationManager.js">
<path fill="#ffffcc" stroke="black" d="M245,-251C245,-251 146,-251 146,-251 143,-251 140,-248 140,-245 140,-245 140,-239 140,-239 140,-236 143,-233 146,-233 146,-233 245,-233 245,-233 248,-233 251,-236 251,-239 251,-239 251,-245 251,-245 251,-248 248,-251 245,-251"/>
<text text-anchor="start" x="148" y="-239.8" font-family="Helvetica,sans-Serif" font-size="9.00">simulationManager.js</text>
</a>
</g>
</g>
<!-- main.js&#45;&gt;simulation/simulationManager.js -->
<g id="edge8" class="edge">
<title>main.js&#45;&gt;simulation/simulationManager.js</title>
<path fill="none" stroke="#000000" stroke-width="2" stroke-opacity="0.200000" d="M89.11,-422.18C101.51,-420.82 115.45,-416.9 124,-407 136.26,-392.81 125.11,-340.44 132,-323 142.64,-296.05 165.1,-270.56 179.99,-255.61"/>
<polygon fill="#000000" fill-opacity="0.200000" stroke="#000000" stroke-width="2" stroke-opacity="0.200000" points="181.55,-257.02 184.35,-251.32 178.6,-254.03 181.55,-257.02"/>
</g>
<!-- state/stateManager.js -->
<g id="node16" class="node">
<title>state/stateManager.js</title>
<g id="a_node16"><a xlink:href="state/stateManager.js" xlink:title="stateManager.js">
<path fill="#ffffcc" stroke="black" d="M233,-34C233,-34 158,-34 158,-34 155,-34 152,-31 152,-28 152,-28 152,-22 152,-22 152,-19 155,-16 158,-16 158,-16 233,-16 233,-16 236,-16 239,-19 239,-22 239,-22 239,-28 239,-28 239,-31 236,-34 233,-34"/>
<text text-anchor="start" x="160" y="-22.8" font-family="Helvetica,sans-Serif" font-size="9.00">stateManager.js</text>
</a>
</g>
</g>
<!-- main.js&#45;&gt;state/stateManager.js -->
<g id="edge9" class="edge">
<title>main.js&#45;&gt;state/stateManager.js</title>
<path fill="none" stroke="#000000" stroke-width="2" stroke-opacity="0.200000" d="M89.11,-422.47C101.66,-421.2 115.74,-417.29 124,-407 135.9,-392.18 122.68,-81.56 132,-65 139.07,-52.44 151.89,-43.22 164.09,-36.82"/>
<polygon fill="#000000" fill-opacity="0.200000" stroke="#000000" stroke-width="2" stroke-opacity="0.200000" points="165.19,-38.62 169.63,-34.07 163.32,-34.85 165.19,-38.62"/>
</g>
<!-- scene/graphycLibrariesImports.js -->
<g id="node17" class="node">
<title>scene/graphycLibrariesImports.js</title>
<g id="a_node17"><a xlink:href="scene/graphycLibrariesImports.js" xlink:title="graphycLibrariesImports.js">
<path fill="#ffffcc" stroke="black" d="M395,-352C395,-352 270,-352 270,-352 267,-352 264,-349 264,-346 264,-346 264,-340 264,-340 264,-337 267,-334 270,-334 270,-334 395,-334 395,-334 398,-334 401,-337 401,-340 401,-340 401,-346 401,-346 401,-349 398,-352 395,-352"/>
<text text-anchor="start" x="272" y="-340.8" font-family="Helvetica,sans-Serif" font-size="9.00">graphycLibrariesImports.js</text>
</a>
</g>
</g>
<!-- scene/graphicsManager.js&#45;&gt;scene/graphycLibrariesImports.js -->
<g id="edge10" class="edge">
<title>scene/graphicsManager.js&#45;&gt;scene/graphycLibrariesImports.js</title>
<path fill="none" stroke="#000000" stroke-width="2" stroke-opacity="0.200000" d="M203.29,-412.97C214.37,-398.91 237.76,-371.95 264,-358 266.58,-356.63 269.28,-355.38 272.05,-354.25"/>
<polygon fill="#000000" fill-opacity="0.200000" stroke="#000000" stroke-width="2" stroke-opacity="0.200000" points="272.96,-356.15 277.84,-352.08 271.48,-352.22 272.96,-356.15"/>
</g>
<!-- scene/overlay.js -->
<g id="node18" class="node">
<title>scene/overlay.js</title>
<g id="a_node18"><a xlink:href="scene/overlay.js" xlink:title="overlay.js">
<path fill="#ffffcc" stroke="black" d="M355,-382C355,-382 310,-382 310,-382 307,-382 304,-379 304,-376 304,-376 304,-370 304,-370 304,-367 307,-364 310,-364 310,-364 355,-364 355,-364 358,-364 361,-367 361,-370 361,-370 361,-376 361,-376 361,-379 358,-382 355,-382"/>
<text text-anchor="start" x="312" y="-370.8" font-family="Helvetica,sans-Serif" font-size="9.00">overlay.js</text>
</a>
</g>
</g>
<!-- scene/graphicsManager.js&#45;&gt;scene/overlay.js -->
<g id="edge11" class="edge">
<title>scene/graphicsManager.js&#45;&gt;scene/overlay.js</title>
<path fill="none" stroke="#000000" stroke-width="2" stroke-opacity="0.200000" d="M211.83,-412.89C225.21,-405.29 245.34,-394.66 264,-388 274.78,-384.15 286.89,-381.09 297.85,-378.76"/>
<polygon fill="#000000" fill-opacity="0.200000" stroke="#000000" stroke-width="2" stroke-opacity="0.200000" points="298.35,-380.81 303.8,-377.55 297.51,-376.69 298.35,-380.81"/>
</g>
<!-- scene/plot.js -->
<g id="node19" class="node">
<title>scene/plot.js</title>
<g id="a_node19"><a xlink:href="scene/plot.js" xlink:title="plot.js">
<path fill="#ffffcc" stroke="black" d="M353.5,-412C353.5,-412 311.5,-412 311.5,-412 308.5,-412 305.5,-409 305.5,-406 305.5,-406 305.5,-400 305.5,-400 305.5,-397 308.5,-394 311.5,-394 311.5,-394 353.5,-394 353.5,-394 356.5,-394 359.5,-397 359.5,-400 359.5,-400 359.5,-406 359.5,-406 359.5,-409 356.5,-412 353.5,-412"/>
<text text-anchor="start" x="318.5" y="-400.8" font-family="Helvetica,sans-Serif" font-size="9.00">plot.js</text>
</a>
</g>
</g>
<!-- scene/graphicsManager.js&#45;&gt;scene/plot.js -->
<g id="edge12" class="edge">
<title>scene/graphicsManager.js&#45;&gt;scene/plot.js</title>
<path fill="none" stroke="#000000" stroke-width="2" stroke-opacity="0.200000" d="M247.54,-414.82C264.94,-412.37 283.9,-409.7 299.39,-407.52"/>
<polygon fill="#000000" fill-opacity="0.200000" stroke="#000000" stroke-width="2" stroke-opacity="0.200000" points="299.71,-409.59 305.36,-406.68 299.13,-405.44 299.71,-409.59"/>
</g>
<!-- scene/sceneComponents/capsulePool.js -->
<g id="node20" class="node">
<title>scene/sceneComponents/capsulePool.js</title>
<g id="a_node20"><a xlink:href="scene/sceneComponents/capsulePool.js" xlink:title="capsulePool.js">
<path fill="#ffffcc" stroke="black" d="M366,-523C366,-523 299,-523 299,-523 296,-523 293,-520 293,-517 293,-517 293,-511 293,-511 293,-508 296,-505 299,-505 299,-505 366,-505 366,-505 369,-505 372,-508 372,-511 372,-511 372,-517 372,-517 372,-520 369,-523 366,-523"/>
<text text-anchor="start" x="301" y="-511.8" font-family="Helvetica,sans-Serif" font-size="9.00">capsulePool.js</text>
</a>
</g>
</g>
<!-- scene/graphicsManager.js&#45;&gt;scene/sceneComponents/capsulePool.js -->
<g id="edge13" class="edge">
<title>scene/graphicsManager.js&#45;&gt;scene/sceneComponents/capsulePool.js</title>
<path fill="none" stroke="#000000" stroke-width="2" stroke-opacity="0.200000" d="M204.37,-431.39C216.15,-444.96 239.62,-470.17 264,-486 274.33,-492.71 286.53,-498.36 297.7,-502.78"/>
<polygon fill="#000000" fill-opacity="0.200000" stroke="#000000" stroke-width="2" stroke-opacity="0.200000" points="297.08,-504.79 303.43,-504.98 298.58,-500.87 297.08,-504.79"/>
</g>
<!-- scene/sceneComponents/mesh.js -->
<g id="node21" class="node">
<title>scene/sceneComponents/mesh.js</title>
<g id="a_node21"><a xlink:href="scene/sceneComponents/mesh.js" xlink:title="mesh.js">
<path fill="#ffffcc" stroke="black" d="M353.5,-480C353.5,-480 311.5,-480 311.5,-480 308.5,-480 305.5,-477 305.5,-474 305.5,-474 305.5,-468 305.5,-468 305.5,-465 308.5,-462 311.5,-462 311.5,-462 353.5,-462 353.5,-462 356.5,-462 359.5,-465 359.5,-468 359.5,-468 359.5,-474 359.5,-474 359.5,-477 356.5,-480 353.5,-480"/>
<text text-anchor="start" x="315" y="-468.8" font-family="Helvetica,sans-Serif" font-size="9.00">mesh.js</text>
</a>
</g>
</g>
<!-- scene/graphicsManager.js&#45;&gt;scene/sceneComponents/mesh.js -->
<g id="edge14" class="edge">
<title>scene/graphicsManager.js&#45;&gt;scene/sceneComponents/mesh.js</title>
<path fill="none" stroke="#000000" stroke-width="2" stroke-opacity="0.200000" d="M211.83,-431.11C225.21,-438.71 245.34,-449.34 264,-456 275.26,-460.02 287.97,-463.18 299.3,-465.54"/>
<polygon fill="#000000" fill-opacity="0.200000" stroke="#000000" stroke-width="2" stroke-opacity="0.200000" points="299.14,-467.65 305.43,-466.77 299.96,-463.53 299.14,-467.65"/>
</g>
<!-- scene/sceneComponents/stage.js -->
<g id="node22" class="node">
<title>scene/sceneComponents/stage.js</title>
<g id="a_node22"><a xlink:href="scene/sceneComponents/stage.js" xlink:title="stage.js">
<path fill="#ffffcc" stroke="black" d="M353.5,-450C353.5,-450 311.5,-450 311.5,-450 308.5,-450 305.5,-447 305.5,-444 305.5,-444 305.5,-438 305.5,-438 305.5,-435 308.5,-432 311.5,-432 311.5,-432 353.5,-432 353.5,-432 356.5,-432 359.5,-435 359.5,-438 359.5,-438 359.5,-444 359.5,-444 359.5,-447 356.5,-450 353.5,-450"/>
<text text-anchor="start" x="315" y="-438.8" font-family="Helvetica,sans-Serif" font-size="9.00">stage.js</text>
</a>
</g>
</g>
<!-- scene/graphicsManager.js&#45;&gt;scene/sceneComponents/stage.js -->
<g id="edge15" class="edge">
<title>scene/graphicsManager.js&#45;&gt;scene/sceneComponents/stage.js</title>
<path fill="none" stroke="#000000" stroke-width="2" stroke-opacity="0.200000" d="M247.54,-429.18C264.94,-431.63 283.9,-434.3 299.39,-436.48"/>
<polygon fill="#000000" fill-opacity="0.200000" stroke="#000000" stroke-width="2" stroke-opacity="0.200000" points="299.13,-438.56 305.36,-437.32 299.71,-434.41 299.13,-438.56"/>
</g>
<!-- simulation/signallingNetwork/signallingNetwork.js -->
<g id="node35" class="node">
<title>simulation/signallingNetwork/signallingNetwork.js</title>
<g id="a_node35"><a xlink:href="simulation/signallingNetwork/signallingNetwork.js" xlink:title="signallingNetwork.js">
<path fill="#ffffcc" stroke="black" d="M380,-209C380,-209 285,-209 285,-209 282,-209 279,-206 279,-203 279,-203 279,-197 279,-197 279,-194 282,-191 285,-191 285,-191 380,-191 380,-191 383,-191 386,-194 386,-197 386,-197 386,-203 386,-203 386,-206 383,-209 380,-209"/>
<text text-anchor="start" x="287" y="-197.8" font-family="Helvetica,sans-Serif" font-size="9.00">signallingNetwork.js</text>
</a>
</g>
</g>
<!-- simulation/simulationManager.js&#45;&gt;simulation/signallingNetwork/signallingNetwork.js -->
<g id="edge28" class="edge">
<title>simulation/simulationManager.js&#45;&gt;simulation/signallingNetwork/signallingNetwork.js</title>
<path fill="none" stroke="#000000" stroke-width="2" stroke-opacity="0.200000" d="M223.71,-232.95C235.99,-228.91 250.7,-224.14 264,-220 273.76,-216.96 284.35,-213.78 294.18,-210.86"/>
<polygon fill="#000000" fill-opacity="0.200000" stroke="#000000" stroke-width="2" stroke-opacity="0.200000" points="295.03,-212.8 300.19,-209.08 293.84,-208.77 295.03,-212.8"/>
</g>
<!-- scene/plotOptions.js -->
<g id="node23" class="node">
<title>scene/plotOptions.js</title>
<g id="a_node23"><a xlink:href="scene/plotOptions.js" xlink:title="plotOptions.js">
<path fill="#ffffcc" stroke="black" d="M512.5,-412C512.5,-412 446.5,-412 446.5,-412 443.5,-412 440.5,-409 440.5,-406 440.5,-406 440.5,-400 440.5,-400 440.5,-397 443.5,-394 446.5,-394 446.5,-394 512.5,-394 512.5,-394 515.5,-394 518.5,-397 518.5,-400 518.5,-400 518.5,-406 518.5,-406 518.5,-409 515.5,-412 512.5,-412"/>
<text text-anchor="start" x="448.5" y="-400.8" font-family="Helvetica,sans-Serif" font-size="9.00">plotOptions.js</text>
</a>
</g>
</g>
<!-- scene/plot.js&#45;&gt;scene/plotOptions.js -->
<g id="edge16" class="edge">
<title>scene/plot.js&#45;&gt;scene/plotOptions.js</title>
<path fill="none" stroke="#000000" stroke-width="2" stroke-opacity="0.200000" d="M359.76,-403C380.52,-403 409.97,-403 434.35,-403"/>
<polygon fill="#000000" fill-opacity="0.200000" stroke="#000000" stroke-width="2" stroke-opacity="0.200000" points="434.43,-405.1 440.43,-403 434.43,-400.9 434.43,-405.1"/>
</g>
<!-- scene/sceneComponents/geometries.js -->
<g id="node24" class="node">
<title>scene/sceneComponents/geometries.js</title>
<g id="a_node24"><a xlink:href="scene/sceneComponents/geometries.js" xlink:title="geometries.js">
<path fill="#ffffcc" stroke="black" d="M512,-536C512,-536 447,-536 447,-536 444,-536 441,-533 441,-530 441,-530 441,-524 441,-524 441,-521 444,-518 447,-518 447,-518 512,-518 512,-518 515,-518 518,-521 518,-524 518,-524 518,-530 518,-530 518,-533 515,-536 512,-536"/>
<text text-anchor="start" x="449" y="-524.8" font-family="Helvetica,sans-Serif" font-size="9.00">geometries.js</text>
</a>
</g>
</g>
<!-- scene/sceneComponents/capsulePool.js&#45;&gt;scene/sceneComponents/geometries.js -->
<g id="edge17" class="edge">
<title>scene/sceneComponents/capsulePool.js&#45;&gt;scene/sceneComponents/geometries.js</title>
<path fill="none" stroke="#000000" stroke-width="2" stroke-opacity="0.200000" d="M372.36,-517.48C391.52,-519.2 414.7,-521.28 434.51,-523.06"/>
<polygon fill="#000000" fill-opacity="0.200000" stroke="#000000" stroke-width="2" stroke-opacity="0.200000" points="434.38,-525.15 440.54,-523.6 434.75,-520.97 434.38,-525.15"/>
</g>
<!-- scene/sceneComponents/stageComponetns/camera.js -->
<g id="node25" class="node">
<title>scene/sceneComponents/stageComponetns/camera.js</title>
<g id="a_node25"><a xlink:href="scene/sceneComponents/stageComponetns/camera.js" xlink:title="camera.js">
<path fill="#ffffcc" stroke="black" d="M503.5,-484C503.5,-484 455.5,-484 455.5,-484 452.5,-484 449.5,-481 449.5,-478 449.5,-478 449.5,-472 449.5,-472 449.5,-469 452.5,-466 455.5,-466 455.5,-466 503.5,-466 503.5,-466 506.5,-466 509.5,-469 509.5,-472 509.5,-472 509.5,-478 509.5,-478 509.5,-481 506.5,-484 503.5,-484"/>
<text text-anchor="start" x="457.5" y="-472.8" font-family="Helvetica,sans-Serif" font-size="9.00">camera.js</text>
</a>
</g>
</g>
<!-- scene/sceneComponents/stage.js&#45;&gt;scene/sceneComponents/stageComponetns/camera.js -->
<g id="edge18" class="edge">
<title>scene/sceneComponents/stage.js&#45;&gt;scene/sceneComponents/stageComponetns/camera.js</title>
<path fill="none" stroke="#000000" stroke-width="2" stroke-opacity="0.200000" d="M359.52,-446.52C372.08,-449.25 387.36,-452.67 401,-456 407.7,-457.64 409.31,-458.31 416,-460 424.79,-462.23 434.29,-464.55 443.18,-466.69"/>
<polygon fill="#000000" fill-opacity="0.200000" stroke="#000000" stroke-width="2" stroke-opacity="0.200000" points="442.89,-468.78 449.21,-468.13 443.86,-464.69 442.89,-468.78"/>
</g>
<!-- scene/sceneComponents/stageComponetns/renderer.js -->
<g id="node26" class="node">
<title>scene/sceneComponents/stageComponetns/renderer.js</title>
<g id="a_node26"><a xlink:href="scene/sceneComponents/stageComponetns/renderer.js" xlink:title="renderer.js">
<path fill="#ffffcc" stroke="black" d="M506,-454C506,-454 453,-454 453,-454 450,-454 447,-451 447,-448 447,-448 447,-442 447,-442 447,-439 450,-436 453,-436 453,-436 506,-436 506,-436 509,-436 512,-439 512,-442 512,-442 512,-448 512,-448 512,-451 509,-454 506,-454"/>
<text text-anchor="start" x="455" y="-442.8" font-family="Helvetica,sans-Serif" font-size="9.00">renderer.js</text>
</a>
</g>
</g>
<!-- scene/sceneComponents/stage.js&#45;&gt;scene/sceneComponents/stageComponetns/renderer.js -->
<g id="edge19" class="edge">
<title>scene/sceneComponents/stage.js&#45;&gt;scene/sceneComponents/stageComponetns/renderer.js</title>
<path fill="none" stroke="#000000" stroke-width="2" stroke-opacity="0.200000" d="M359.76,-441.72C382.33,-442.35 415.16,-443.25 440.58,-443.95"/>
<polygon fill="#000000" fill-opacity="0.200000" stroke="#000000" stroke-width="2" stroke-opacity="0.200000" points="440.82,-446.06 446.88,-444.13 440.94,-441.86 440.82,-446.06"/>
</g>
<!-- simulation/signallingNetwork/FTCS.js -->
<g id="node27" class="node">
<title>simulation/signallingNetwork/FTCS.js</title>
<g id="a_node27"><a xlink:href="simulation/signallingNetwork/FTCS.js" xlink:title="no&#45;orphans">
<path fill="#ccffcc" stroke="orange" d="M353.5,-244C353.5,-244 311.5,-244 311.5,-244 308.5,-244 305.5,-241 305.5,-238 305.5,-238 305.5,-232 305.5,-232 305.5,-229 308.5,-226 311.5,-226 311.5,-226 353.5,-226 353.5,-226 356.5,-226 359.5,-229 359.5,-232 359.5,-232 359.5,-238 359.5,-238 359.5,-241 356.5,-244 353.5,-244"/>
<text text-anchor="start" x="316" y="-232.8" font-family="Helvetica,sans-Serif" font-size="9.00" fill="orange">FTCS.js</text>
</a>
</g>
</g>
<!-- simulation/signallingNetwork/extracellular/ADI.js -->
<g id="node28" class="node">
<title>simulation/signallingNetwork/extracellular/ADI.js</title>
<g id="a_node28"><a xlink:href="simulation/signallingNetwork/extracellular/ADI.js" xlink:title="ADI.js">
<path fill="#ffffcc" stroke="black" d="M500.5,-140C500.5,-140 458.5,-140 458.5,-140 455.5,-140 452.5,-137 452.5,-134 452.5,-134 452.5,-128 452.5,-128 452.5,-125 455.5,-122 458.5,-122 458.5,-122 500.5,-122 500.5,-122 503.5,-122 506.5,-125 506.5,-128 506.5,-128 506.5,-134 506.5,-134 506.5,-137 503.5,-140 500.5,-140"/>
<text text-anchor="start" x="466.5" y="-128.8" font-family="Helvetica,sans-Serif" font-size="9.00">ADI.js</text>
</a>
</g>
</g>
<!-- simulation/signallingNetwork/extracellular/initArrays.js -->
<g id="node29" class="node">
<title>simulation/signallingNetwork/extracellular/initArrays.js</title>
<g id="a_node29"><a xlink:href="simulation/signallingNetwork/extracellular/initArrays.js" xlink:title="initArrays.js">
<path fill="#ffffcc" stroke="black" d="M646,-110C646,-110 589,-110 589,-110 586,-110 583,-107 583,-104 583,-104 583,-98 583,-98 583,-95 586,-92 589,-92 589,-92 646,-92 646,-92 649,-92 652,-95 652,-98 652,-98 652,-104 652,-104 652,-107 649,-110 646,-110"/>
<text text-anchor="start" x="591" y="-98.8" font-family="Helvetica,sans-Serif" font-size="9.00">initArrays.js</text>
</a>
</g>
</g>
<!-- simulation/signallingNetwork/extracellular/ADI.js&#45;&gt;simulation/signallingNetwork/extracellular/initArrays.js -->
<g id="edge20" class="edge">
<title>simulation/signallingNetwork/extracellular/ADI.js&#45;&gt;simulation/signallingNetwork/extracellular/initArrays.js</title>
<path fill="none" stroke="#000000" stroke-width="2" stroke-opacity="0.200000" d="M506.72,-125.22C526.56,-120.84 554.15,-114.75 576.7,-109.78"/>
<polygon fill="#000000" fill-opacity="0.200000" stroke="#000000" stroke-width="2" stroke-opacity="0.200000" points="577.21,-111.82 582.62,-108.47 576.31,-107.72 577.21,-111.82"/>
</g>
<!-- simulation/signallingNetwork/extracellular/thomasAlgorithm.js -->
<g id="node30" class="node">
<title>simulation/signallingNetwork/extracellular/thomasAlgorithm.js</title>
<g id="a_node30"><a xlink:href="simulation/signallingNetwork/extracellular/thomasAlgorithm.js" xlink:title="thomasAlgorithm.js">
<path fill="#ffffcc" stroke="black" d="M663.5,-140C663.5,-140 571.5,-140 571.5,-140 568.5,-140 565.5,-137 565.5,-134 565.5,-134 565.5,-128 565.5,-128 565.5,-125 568.5,-122 571.5,-122 571.5,-122 663.5,-122 663.5,-122 666.5,-122 669.5,-125 669.5,-128 669.5,-128 669.5,-134 669.5,-134 669.5,-137 666.5,-140 663.5,-140"/>
<text text-anchor="start" x="573.5" y="-128.8" font-family="Helvetica,sans-Serif" font-size="9.00">thomasAlgorithm.js</text>
</a>
</g>
</g>
<!-- simulation/signallingNetwork/extracellular/ADI.js&#45;&gt;simulation/signallingNetwork/extracellular/thomasAlgorithm.js -->
<g id="edge21" class="edge">
<title>simulation/signallingNetwork/extracellular/ADI.js&#45;&gt;simulation/signallingNetwork/extracellular/thomasAlgorithm.js</title>
<path fill="none" stroke="#000000" stroke-width="2" stroke-opacity="0.200000" d="M506.72,-131C521.63,-131 540.92,-131 559.15,-131"/>
<polygon fill="#000000" fill-opacity="0.200000" stroke="#000000" stroke-width="2" stroke-opacity="0.200000" points="559.29,-133.1 565.29,-131 559.29,-128.9 559.29,-133.1"/>
</g>
<!-- simulation/signallingNetwork/grid.js -->
<g id="node31" class="node">
<title>simulation/signallingNetwork/grid.js</title>
<g id="a_node31"><a xlink:href="simulation/signallingNetwork/grid.js" xlink:title="grid.js">
<path fill="#ffffcc" stroke="black" d="M500.5,-192C500.5,-192 458.5,-192 458.5,-192 455.5,-192 452.5,-189 452.5,-186 452.5,-186 452.5,-180 452.5,-180 452.5,-177 455.5,-174 458.5,-174 458.5,-174 500.5,-174 500.5,-174 503.5,-174 506.5,-177 506.5,-180 506.5,-180 506.5,-186 506.5,-186 506.5,-189 503.5,-192 500.5,-192"/>
<text text-anchor="start" x="465.5" y="-180.8" font-family="Helvetica,sans-Serif" font-size="9.00">grid.js</text>
</a>
</g>
</g>
<!-- simulation/signallingNetwork/intracellular/cytoplasmManager.js -->
<g id="node32" class="node">
<title>simulation/signallingNetwork/intracellular/cytoplasmManager.js</title>
<g id="a_node32"><a xlink:href="simulation/signallingNetwork/intracellular/cytoplasmManager.js" xlink:title="cytoplasmManager.js">
<path fill="#ffffcc" stroke="black" d="M529,-226C529,-226 430,-226 430,-226 427,-226 424,-223 424,-220 424,-220 424,-214 424,-214 424,-211 427,-208 430,-208 430,-208 529,-208 529,-208 532,-208 535,-211 535,-214 535,-214 535,-220 535,-220 535,-223 532,-226 529,-226"/>
<text text-anchor="start" x="432" y="-214.8" font-family="Helvetica,sans-Serif" font-size="9.00">cytoplasmManager.js</text>
</a>
</g>
</g>
<!-- simulation/signallingNetwork/intracellular/cytoplasmState.js -->
<g id="node33" class="node">
<title>simulation/signallingNetwork/intracellular/cytoplasmState.js</title>
<g id="a_node33"><a xlink:href="simulation/signallingNetwork/intracellular/cytoplasmState.js" xlink:title="cytoplasmState.js">
<path fill="#ffffcc" stroke="black" d="M776.5,-233C776.5,-233 691.5,-233 691.5,-233 688.5,-233 685.5,-230 685.5,-227 685.5,-227 685.5,-221 685.5,-221 685.5,-218 688.5,-215 691.5,-215 691.5,-215 776.5,-215 776.5,-215 779.5,-215 782.5,-218 782.5,-221 782.5,-221 782.5,-227 782.5,-227 782.5,-230 779.5,-233 776.5,-233"/>
<text text-anchor="start" x="693.5" y="-221.8" font-family="Helvetica,sans-Serif" font-size="9.00">cytoplasmState.js</text>
</a>
</g>
</g>
<!-- simulation/signallingNetwork/intracellular/cytoplasmManager.js&#45;&gt;simulation/signallingNetwork/intracellular/cytoplasmState.js -->
<g id="edge22" class="edge">
<title>simulation/signallingNetwork/intracellular/cytoplasmManager.js&#45;&gt;simulation/signallingNetwork/intracellular/cytoplasmState.js</title>
<path fill="none" stroke="#000000" stroke-width="2" stroke-opacity="0.200000" d="M535.35,-214.47C574.91,-213.2 629.57,-212.56 677.5,-216 677.97,-216.03 678.45,-216.07 678.93,-216.11"/>
<polygon fill="#000000" fill-opacity="0.200000" stroke="#000000" stroke-width="2" stroke-opacity="0.200000" points="679.05,-218.23 685.21,-216.67 679.43,-214.04 679.05,-218.23"/>
</g>
<!-- simulation/signallingNetwork/intracellular/cytoplasmUpdater.js -->
<g id="node34" class="node">
<title>simulation/signallingNetwork/intracellular/cytoplasmUpdater.js</title>
<g id="a_node34"><a xlink:href="simulation/signallingNetwork/intracellular/cytoplasmUpdater.js" xlink:title="cytoplasmUpdater.js">
<path fill="#ffffcc" stroke="black" d="M666,-240C666,-240 569,-240 569,-240 566,-240 563,-237 563,-234 563,-234 563,-228 563,-228 563,-225 566,-222 569,-222 569,-222 666,-222 666,-222 669,-222 672,-225 672,-228 672,-228 672,-234 672,-234 672,-237 669,-240 666,-240"/>
<text text-anchor="start" x="571" y="-228.8" font-family="Helvetica,sans-Serif" font-size="9.00">cytoplasmUpdater.js</text>
</a>
</g>
</g>
<!-- simulation/signallingNetwork/intracellular/cytoplasmManager.js&#45;&gt;simulation/signallingNetwork/intracellular/cytoplasmUpdater.js -->
<g id="edge23" class="edge">
<title>simulation/signallingNetwork/intracellular/cytoplasmManager.js&#45;&gt;simulation/signallingNetwork/intracellular/cytoplasmUpdater.js</title>
<path fill="none" stroke="#000000" stroke-width="2" stroke-opacity="0.200000" d="M535.03,-222.61C542.19,-223.35 549.56,-224.11 556.8,-224.85"/>
<polygon fill="#000000" fill-opacity="0.200000" stroke="#000000" stroke-width="2" stroke-opacity="0.200000" points="556.66,-226.95 562.84,-225.48 557.09,-222.77 556.66,-226.95"/>
</g>
<!-- simulation/signallingNetwork/intracellular/cytoplasmUpdater.js&#45;&gt;simulation/signallingNetwork/intracellular/cytoplasmState.js -->
<g id="edge24" class="edge">
<title>simulation/signallingNetwork/intracellular/cytoplasmUpdater.js&#45;&gt;simulation/signallingNetwork/intracellular/cytoplasmState.js</title>
<path fill="none" stroke="#000000" stroke-width="2" stroke-opacity="0.200000" d="M672.06,-227.73C674.41,-227.58 676.77,-227.44 679.12,-227.29"/>
<polygon fill="#000000" fill-opacity="0.200000" stroke="#000000" stroke-width="2" stroke-opacity="0.200000" points="679.45,-229.38 685.31,-226.92 679.2,-225.19 679.45,-229.38"/>
</g>
<!-- simulation/signallingNetwork/signallingNetwork.js&#45;&gt;simulation/signallingNetwork/extracellular/ADI.js -->
<g id="edge25" class="edge">
<title>simulation/signallingNetwork/signallingNetwork.js&#45;&gt;simulation/signallingNetwork/extracellular/ADI.js</title>
<path fill="none" stroke="#000000" stroke-width="2" stroke-opacity="0.200000" d="M343.91,-190.92C358.83,-178.4 387.63,-156.02 416,-144 425.47,-139.99 436.28,-137.18 446.21,-135.23"/>
<polygon fill="#000000" fill-opacity="0.200000" stroke="#000000" stroke-width="2" stroke-opacity="0.200000" points="446.75,-137.26 452.27,-134.12 445.99,-133.13 446.75,-137.26"/>
</g>
<!-- simulation/signallingNetwork/signallingNetwork.js&#45;&gt;simulation/signallingNetwork/grid.js -->
<g id="edge26" class="edge">
<title>simulation/signallingNetwork/signallingNetwork.js&#45;&gt;simulation/signallingNetwork/grid.js</title>
<path fill="none" stroke="#000000" stroke-width="2" stroke-opacity="0.200000" d="M386.26,-193.81C406.31,-191.46 428.54,-188.86 446.15,-186.79"/>
<polygon fill="#000000" fill-opacity="0.200000" stroke="#000000" stroke-width="2" stroke-opacity="0.200000" points="446.7,-188.84 452.42,-186.06 446.21,-184.67 446.7,-188.84"/>
</g>
<!-- simulation/signallingNetwork/signallingNetwork.js&#45;&gt;simulation/signallingNetwork/intracellular/cytoplasmManager.js -->
<g id="edge27" class="edge">
<title>simulation/signallingNetwork/signallingNetwork.js&#45;&gt;simulation/signallingNetwork/intracellular/cytoplasmManager.js</title>
<path fill="none" stroke="#000000" stroke-width="2" stroke-opacity="0.200000" d="M386.26,-206.19C396.41,-207.38 407.12,-208.63 417.51,-209.85"/>
<polygon fill="#000000" fill-opacity="0.200000" stroke="#000000" stroke-width="2" stroke-opacity="0.200000" points="417.38,-211.95 423.59,-210.56 417.87,-207.78 417.38,-211.95"/>
</g>
</g>
</svg>
